<svg width="40" height="40" viewBox="0 0 40 40" fill="none" xmlns="http://www.w3.org/2000/svg">
<g clip-path="url(#clip0_6051_13906)">
<path d="M20 40.0002C31.0457 40.0002 40 31.0459 40 20.0002C40 8.95455 31.0457 0.000244141 20 0.000244141C8.9543 0.000244141 0 8.95455 0 20.0002C0 31.0459 8.9543 40.0002 20 40.0002Z" fill="white"/>
<path d="M33.9954 5.71462C30.3881 2.18024 25.4492 0.000244141 20.0002 0.000244141C18.2611 0.000244141 13.1725 2.18024 9.56543 5.71462H33.9954Z" fill="#249F58"/>
<path d="M20.0004 17.143H39.7963C39.5077 15.1254 38.9184 13.2051 38.0746 11.4287H19.1309L20.0004 17.143Z" fill="#249F58"/>
<path d="M1.9259 28.5716H38.0742C38.9181 26.7952 39.5074 24.8748 39.796 22.8572H0.204102C0.492773 24.8748 1.08191 26.7953 1.9259 28.5716Z" fill="#249F58"/>
<path d="M6.00488 34.2858C9.61215 37.8201 14.5511 40.0001 20 40.0001C25.449 40.0001 30.3879 37.8201 33.9952 34.2858H6.00488Z" fill="#249F58"/>
<path d="M20 0.00012207C9.92457 0.00012207 1.59066 7.45098 0.204102 17.143H20V0.00012207Z" fill="#F93939"/>
<path d="M9.99941 15.3334L9.12988 13.5944V10.1161L11.3038 8.37695L13.4777 10.1161V12.7248L14.3472 11.8552V13.5944L12.6081 15.3334H9.99941Z" fill="white"/>
<path d="M5.32289 10.0001L5.55312 10.7087H6.29812L5.69539 11.1468L5.9257 11.8553L5.32289 11.4173L4.72008 11.8553L4.95039 11.1468L4.34766 10.7087H5.09266L5.32289 10.0001Z" fill="white"/>
<path d="M7.06215 8.26099L7.29238 8.96958H8.03746L7.43465 9.40763L7.66488 10.1161L7.06215 9.67825L6.45941 10.1161L6.68973 9.40763L6.08691 8.96958H6.83184L7.06215 8.26099Z" fill="white"/>
<path d="M8.80141 6.52173L9.03164 7.23032H9.77656L9.17391 7.66837L9.40406 8.37688L8.80141 7.93899L8.19859 8.37688L8.42883 7.66837L7.82617 7.23032H8.57109L8.80141 6.52173Z" fill="white"/>
<path d="M17.2857 10.0001L17.0555 10.7087H16.3105L16.9132 11.1468L16.683 11.8553L17.2857 11.4173L17.8885 11.8553L17.6583 11.1468L18.2609 10.7087H17.516L17.2857 10.0001Z" fill="white"/>
<path d="M15.5464 8.26099L15.3162 8.96958H14.5713L15.1739 9.40763L14.9437 10.1161L15.5464 9.67825L16.1493 10.1161L15.9189 9.40763L16.5217 8.96958H15.7768L15.5464 8.26099Z" fill="white"/>
<path d="M13.8073 6.52173L13.577 7.23032H12.832L13.4347 7.66837L13.2045 8.37688L13.8073 7.93899L14.41 8.37688L14.1798 7.66837L14.7824 7.23032H14.0375L13.8073 6.52173Z" fill="white"/>
<path d="M11.3043 5.65222L11.074 6.36082H10.3291L10.9318 6.79878L10.7015 7.5073L11.3043 7.06941L11.9071 7.5073L11.6768 6.79878L12.2795 6.36082H11.5346L11.3043 5.65222Z" fill="white"/>
<circle cx="20" cy="20" r="19.5" stroke="#CCCCCC"/>
</g>
<defs>
<clipPath id="clip0_6051_13906">
<rect width="40" height="40" fill="white"/>
</clipPath>
</defs>
</svg>
