<svg width="40" height="40" viewBox="0 0 40 40" fill="none" xmlns="http://www.w3.org/2000/svg">
<g clip-path="url(#clip0_6041_12060)">
<path d="M42.6667 0H-2.66667C-5.61219 0 -8 2.38781 -8 5.33333V34.6667C-8 37.6122 -5.61219 40 -2.66667 40H42.6667C45.6122 40 48 37.6122 48 34.6667V5.33333C48 2.38781 45.6122 0 42.6667 0Z" fill="#FFDA2C"/>
<path fill-rule="evenodd" clip-rule="evenodd" d="M-8 0H10.6667V40H-8V0Z" fill="#1A47B8"/>
<path fill-rule="evenodd" clip-rule="evenodd" d="M29.333 0H47.9997V40H29.333V0Z" fill="#F93939"/>
<path fill-rule="evenodd" clip-rule="evenodd" d="M23.829 26.4933C25.4663 25.9946 26.6663 24.472 26.6663 22.6666V14.6666C26.6663 12.44 24.8743 10.6666 22.6663 10.6666H17.333C15.1303 10.6666 13.333 12.4533 13.333 14.6666V22.6666C13.333 24.4853 14.5277 26 16.1703 26.496C16.6663 28.1493 18.1917 29.3333 19.9997 29.3333C21.8183 29.3333 23.333 28.1333 23.829 26.4933Z" fill="#D4AF2C"/>
<path fill-rule="evenodd" clip-rule="evenodd" d="M16 13.3334H18.6667V17.3334H16V13.3334ZM21.3333 18.6667H24V22.6667H21.3333V18.6667Z" fill="#AF010D"/>
<path fill-rule="evenodd" clip-rule="evenodd" d="M21.3333 13.3334H24V17.3334H21.3333V13.3334ZM16 18.6667H18.6667V22.6667H16V18.6667Z" fill="#FFDA2C"/>
</g>
<defs>
<clipPath id="clip0_6041_12060">
<path d="M0 20C0 8.95431 8.95431 0 20 0C31.0457 0 40 8.95431 40 20C40 31.0457 31.0457 40 20 40C8.95431 40 0 31.0457 0 20Z" fill="white"/>
</clipPath>
</defs>
</svg>
