<svg width="40" height="40" viewBox="0 0 40 40" fill="none" xmlns="http://www.w3.org/2000/svg">
<g clip-path="url(#clip0_6041_13790)">
<path d="M44.9792 0H-0.354167C-3.29969 0 -5.6875 2.38781 -5.6875 5.33333V34.6667C-5.6875 37.6122 -3.29969 40 -0.354167 40H44.9792C47.9247 40 50.3125 37.6122 50.3125 34.6667V5.33333C50.3125 2.38781 47.9247 0 44.9792 0Z" fill="white"/>
<path fill-rule="evenodd" clip-rule="evenodd" d="M-5.6875 26.6667H50.3125V40.0001H-5.6875V26.6667Z" fill="#151515"/>
<path fill-rule="evenodd" clip-rule="evenodd" d="M-5.6875 0H50.3125V13.3333H-5.6875V0Z" fill="#249F58"/>
<path fill-rule="evenodd" clip-rule="evenodd" d="M-5.6875 0V40H10.3125V0H-5.6875Z" fill="#F93939"/>
<circle cx="20" cy="20" r="19.5" stroke="#CCCCCC"/>
</g>
<defs>
<clipPath id="clip0_6041_13790">
<path d="M0 20C0 8.95431 8.95431 0 20 0C31.0457 0 40 8.95431 40 20C40 31.0457 31.0457 40 20 40C8.95431 40 0 31.0457 0 20Z" fill="white"/>
</clipPath>
</defs>
</svg>
