<svg width="40" height="40" viewBox="0 0 40 40" fill="none" xmlns="http://www.w3.org/2000/svg">
<g clip-path="url(#clip0_6041_12034)">
<path d="M42.6667 0H-2.66667C-5.61219 0 -8 2.38781 -8 5.33333V34.6667C-8 37.6122 -5.61219 40 -2.66667 40H42.6667C45.6122 40 48 37.6122 48 34.6667V5.33333C48 2.38781 45.6122 0 42.6667 0Z" fill="#F93939"/>
<path fill-rule="evenodd" clip-rule="evenodd" d="M-8 0H10.6667V40H-8V0Z" fill="#151515"/>
<path fill-rule="evenodd" clip-rule="evenodd" d="M29.333 0H47.9997V40H29.333V0Z" fill="#249F58"/>
<path fill-rule="evenodd" clip-rule="evenodd" d="M19.9997 26.6667C23.6797 26.6667 26.6663 23.68 26.6663 20C26.6663 16.32 23.6797 13.3334 19.9997 13.3334C16.3197 13.3334 13.333 16.32 13.333 20C13.333 23.68 16.3197 26.6667 19.9997 26.6667ZM19.9997 24C22.2077 24 23.9997 21.6134 23.9997 18.6667C23.9997 15.72 22.2077 13.3334 19.9997 13.3334C17.7917 13.3334 15.9997 15.72 15.9997 18.6667C15.9997 21.6134 17.7917 24 19.9997 24ZM19.9997 21.3334C20.7357 21.3334 21.333 20.1387 21.333 18.6667C21.333 17.1947 20.7357 16 19.9997 16C19.2637 16 18.6663 17.1947 18.6663 18.6667C18.6663 20.1387 19.2637 21.3334 19.9997 21.3334Z" fill="white"/>
</g>
<defs>
<clipPath id="clip0_6041_12034">
<path d="M0 20C0 8.95431 8.95431 0 20 0C31.0457 0 40 8.95431 40 20C40 31.0457 31.0457 40 20 40C8.95431 40 0 31.0457 0 20Z" fill="white"/>
</clipPath>
</defs>
</svg>
