<svg width="40" height="40" viewBox="0 0 40 40" fill="none" xmlns="http://www.w3.org/2000/svg">
<g clip-path="url(#clip0_6041_12111)">
<path d="M0 20C0 8.95431 8.95431 0 20 0C31.0457 0 40 8.95431 40 20C40 31.0457 31.0457 40 20 40C8.95431 40 0 31.0457 0 20Z" fill="#151515"/>
<path d="M19.9993 24C25.154 24 29.3327 19.8214 29.3327 14.6667C29.3327 9.51205 25.154 5.33337 19.9993 5.33337C14.8447 5.33337 10.666 9.51205 10.666 14.6667C10.666 19.8214 14.8447 24 19.9993 24Z" fill="#FFDA2C"/>
<path fill-rule="evenodd" clip-rule="evenodd" d="M-8 24H48V40H-8V24Z" fill="white"/>
<path fill-rule="evenodd" clip-rule="evenodd" d="M-8 16H48V24H-8V16Z" fill="#3A99FF"/>
<path fill-rule="evenodd" clip-rule="evenodd" d="M21.3333 40H-8V0L21.3333 40Z" fill="#F93939"/>
<path fill-rule="evenodd" clip-rule="evenodd" d="M18.666 40H47.9993V0L18.666 40Z" fill="#F93939"/>
</g>
<defs>
<clipPath id="clip0_6041_12111">
<path d="M0 20C0 8.95431 8.95431 0 20 0C31.0457 0 40 8.95431 40 20C40 31.0457 31.0457 40 20 40C8.95431 40 0 31.0457 0 20Z" fill="white"/>
</clipPath>
</defs>
</svg>
