<svg width="40" height="40" viewBox="0 0 40 40" fill="none" xmlns="http://www.w3.org/2000/svg">
<path d="M40 20C40 31.0456 31.0456 40 20 40C8.95437 40 0 31.0456 0 20C0 20.0048 20 0.0021875 20 0C31.0456 0 40 8.95437 40 20Z" fill="#0052B4"/>
<path d="M19.9473 20H20.0008C20.0008 19.9821 20.0008 19.9646 20.0008 19.9465C19.983 19.9644 19.9652 19.9822 19.9473 20Z" fill="white"/>
<path d="M20 10.4348C20 6.91563 20 4.60977 20 0H19.9966C8.95242 0.001875 0 8.95539 0 20H10.4348V14.1241L16.3106 20H19.9466C19.9644 19.9822 19.9822 19.9644 20.0001 19.9465C20.0001 18.5991 20.0001 17.3968 20.0001 16.3108L14.1241 10.4348H20Z" fill="white"/>
<path d="M10.1191 2.60864C6.99102 4.38981 4.39047 6.99028 2.60938 10.1183V20H7.8268V7.82622V7.82607H20.0007C20.0007 6.18052 20.0007 4.61286 20.0007 2.60864H10.1191Z" fill="#D80027"/>
<path d="M20.0008 17.5405L12.8949 10.4348H10.4355V10.435L20.0006 20H20.0008C20.0008 20 20.0008 18.3041 20.0008 17.5405Z" fill="#D80027"/>
<path d="M33.8241 22.9277C34.3991 22.1364 34.7833 21.1702 34.7833 20V11.3044C34.0566 11.8503 33.1534 12.1739 32.1746 12.1739C30.7523 12.1739 29.4895 11.4909 28.6963 10.4349C27.903 11.4909 26.6403 12.1739 25.218 12.1739C24.2391 12.1739 23.336 11.8502 22.6094 11.3045V20C22.6094 21.1702 22.9935 22.1364 23.5686 22.9277H33.8241Z" fill="white"/>
<path d="M32.0159 18.3868C32.2928 17.7113 32.5081 16.724 32.5081 16.2327C32.5081 15.4433 31.4789 14.8033 31.4789 14.8033C31.4789 14.8033 30.4497 15.4433 30.4497 16.2327C30.4497 16.7241 30.6651 17.7114 30.9418 18.3868L30.3477 19.7283C30.6969 19.8703 31.0786 19.9492 31.479 19.9492C31.8794 19.9492 32.261 19.8702 32.6103 19.7283L32.0159 18.3868Z" fill="#FF9811"/>
<path d="M27.9929 14.0431C27.2698 14.1411 26.307 14.4485 25.8816 14.6942C25.1979 15.0889 25.1582 16.3001 25.1582 16.3001C25.1582 16.3001 26.2271 16.8714 26.9107 16.4767C27.3363 16.231 28.0835 15.551 28.5298 14.9735L29.9889 14.8173C29.9373 14.444 29.8145 14.0739 29.6145 13.7273C29.4142 13.3806 29.1552 13.0894 28.8576 12.8579L27.9929 14.0431Z" fill="#FF9811"/>
<path d="M26.2422 19.699C26.6885 20.2761 27.4359 20.9561 27.8616 21.2018C28.5452 21.5965 29.6141 21.0254 29.6141 21.0254C29.6141 21.0254 29.5742 19.814 28.8907 19.4193C28.465 19.1736 27.5024 18.8665 26.7791 18.7686L25.9145 17.5833C25.617 17.8147 25.3579 18.1061 25.1577 18.4524C24.9576 18.7992 24.8351 19.1691 24.7832 19.5426L26.2422 19.699Z" fill="#FF9811"/>
<path d="M23.3535 22.6089C24.9776 25.2147 28.6964 26.087 28.6964 26.087C28.6964 26.087 32.4152 25.2147 34.0393 22.6089H23.3535Z" fill="#338AF3"/>
<circle cx="20" cy="20" r="19.5" stroke="#CCCCCC"/>
</svg>
