<svg width="40" height="40" viewBox="0 0 40 40" fill="none" xmlns="http://www.w3.org/2000/svg">
<g clip-path="url(#clip0_6041_12040)">
<path d="M0 20C0 8.95431 8.95431 0 20 0C31.0457 0 40 8.95431 40 20C40 31.0457 31.0457 40 20 40C8.95431 40 0 31.0457 0 20Z" fill="#F93939"/>
<path d="M42.6667 0H-2.66667C-5.61219 0 -8 2.38781 -8 5.33333V34.6667C-8 37.6122 -5.61219 40 -2.66667 40H42.6667C45.6122 40 48 37.6122 48 34.6667V5.33333C48 2.38781 45.6122 0 42.6667 0Z" fill="#F93939"/>
<path fill-rule="evenodd" clip-rule="evenodd" d="M19.9999 12.201L16.6575 9.97278L14.4292 12.201H16.6575L14.4292 14.4293L9.97266 12.201V23.3424L16.6575 21.1141L14.4292 25.5707H12.2009L14.4292 27.7989L16.6575 25.5707L19.9999 30.0272V12.201ZM23.3423 9.97278L25.5706 12.201H23.3423L25.5706 14.4293L30.0271 12.201V23.3424L23.3423 21.1141L25.5706 25.5707H27.7988L25.5706 27.7989L23.3423 25.5707L19.9999 30.0272V12.201L23.3423 9.97278Z" fill="#151515"/>
</g>
<defs>
<clipPath id="clip0_6041_12040">
<path d="M0 20C0 8.95431 8.95431 0 20 0C31.0457 0 40 8.95431 40 20C40 31.0457 31.0457 40 20 40C8.95431 40 0 31.0457 0 20Z" fill="white"/>
</clipPath>
</defs>
</svg>
