<svg width="40" height="40" viewBox="0 0 40 40" fill="none" xmlns="http://www.w3.org/2000/svg">
<g clip-path="url(#clip0_6041_13176)">
<circle cx="20" cy="20" r="19.5" fill="white" stroke="#CCCCCC"/>
<path d="M14 0H26V40H14V0Z" fill="#AF010D"/>
<path d="M0 14H40V26H0V14Z" fill="#232C80"/>
<path fill-rule="evenodd" clip-rule="evenodd" d="M15.1429 15.7143H17.2857V17.4286H15.1429V15.7143ZM19.4286 14H21.5714V15.7143H19.4286V14ZM23.7143 15.7143H25.8571V17.4286H23.7143V15.7143ZM25.8571 19.1429H28V20.8571H25.8571V19.1429ZM13 19.1429H15.1429V20.8571H13V19.1429ZM23.7143 22.5714H25.8571V24.2857H23.7143V22.5714ZM19.4286 24.2857H21.5714V26H19.4286V24.2857ZM15.1429 22.5714H17.2857V24.2857H15.1429V22.5714Z" fill="white"/>
<circle cx="20" cy="20" r="19.5" stroke="#CCCCCC"/>
</g>
<defs>
<clipPath id="clip0_6041_13176">
<path d="M0 20C0 8.95431 8.95431 0 20 0C31.0457 0 40 8.95431 40 20C40 31.0457 31.0457 40 20 40C8.95431 40 0 31.0457 0 20Z" fill="white"/>
</clipPath>
</defs>
</svg>
