<svg width="40" height="40" viewBox="0 0 40 40" fill="none" xmlns="http://www.w3.org/2000/svg">
<g clip-path="url(#clip0_6041_12068)">
<path d="M0 20C0 8.95431 8.95431 0 20 0C31.0457 0 40 8.95431 40 20C40 31.0457 31.0457 40 20 40C8.95431 40 0 31.0457 0 20Z" fill="#F93939"/>
<path d="M42.6667 0H-2.66667C-5.61219 0 -8 2.38781 -8 5.33333V34.6667C-8 37.6122 -5.61219 40 -2.66667 40H42.6667C45.6122 40 48 37.6122 48 34.6667V5.33333C48 2.38781 45.6122 0 42.6667 0Z" fill="#F93939"/>
<path fill-rule="evenodd" clip-rule="evenodd" d="M-8 21.3334H48V40H-8V21.3334Z" fill="#151515"/>
<path fill-rule="evenodd" clip-rule="evenodd" d="M26.3475 24.3645C27.5049 22.8125 28.1875 20.8871 28.1875 18.8018C28.1875 14.8898 25.7795 11.5405 22.3662 10.1511L20.7529 12.4098C23.5102 13.2285 25.5209 15.7805 25.5209 18.8018C25.5209 20.3858 24.9689 21.8418 24.0462 22.9831L14.8542 17.4685L22.0435 24.6578C21.0969 25.1751 20.0089 25.4685 18.8542 25.4685C16.6142 25.4685 14.6329 24.3645 13.4249 22.6685L11.8115 24.9271C13.5209 26.8925 16.0409 28.1351 18.8542 28.1351C20.7475 28.1351 22.5129 27.5698 23.9849 26.5991L25.5209 28.1351L28.1875 25.4685L26.3475 24.3645ZM14.8542 12.1351H17.5209V14.8018H14.8542V12.1351Z" fill="#FFDA2C"/>
</g>
<defs>
<clipPath id="clip0_6041_12068">
<path d="M0 20C0 8.95431 8.95431 0 20 0C31.0457 0 40 8.95431 40 20C40 31.0457 31.0457 40 20 40C8.95431 40 0 31.0457 0 20Z" fill="white"/>
</clipPath>
</defs>
</svg>
