<svg width="40" height="40" viewBox="0 0 40 40" fill="none" xmlns="http://www.w3.org/2000/svg">
<circle cx="20" cy="20" r="20" fill="#232C80"/>
<path d="M40 20C40 25.3043 37.8929 30.3914 34.1421 34.1421C30.3914 37.8929 25.3043 40 20 40C14.6957 40 9.60859 37.8929 5.85787 34.1421C2.10714 30.3914 8.00932e-07 25.3043 0 20L20 20H40Z" fill="white"/>
<path d="M10.5 20L20.5 4L30 20L20.5 25L10.5 20Z" fill="white"/>
<path d="M10.5 20L20.5 25L30 20L20.5 35.9999L10.5 20Z" fill="#232C80"/>
<path d="M20 39C9.50659 39 1 30.4934 1 20H-1C-1 31.598 8.40202 41 20 41V39ZM39 20C39 30.4934 30.4934 39 20 39V41C31.598 41 41 31.598 41 20H39ZM20 1C30.4934 1 39 9.50659 39 20H41C41 8.40202 31.598 -1 20 -1V1ZM20 -1C8.40202 -1 -1 8.40202 -1 20H1C1 9.50659 9.50659 1 20 1V-1Z" fill="#CCCCCC"/>
</svg>
