<svg width="40" height="40" viewBox="0 0 40 40" fill="none" xmlns="http://www.w3.org/2000/svg">
<path d="M40 20C40 31.0456 31.0456 40 20 40C8.95437 40 0 31.0456 0 20C0 20.0047 20 0.00226562 20 0C31.0456 0 40 8.95437 40 20Z" fill="#0052B4"/>
<path d="M19.9995 0C19.9984 0 19.9972 7.8125e-05 19.9961 7.8125e-05L19.9995 0Z" fill="white"/>
<path d="M19.9473 20H20.0008C20.0008 19.9819 20.0008 19.9646 20.0008 19.9465C19.983 19.9644 19.9652 19.9822 19.9473 20Z" fill="white"/>
<path d="M20 10.4349C20 6.91575 20 4.60973 20 0.00012207H19.9966C8.9525 0.00191895 0 8.95543 0 20H10.4348V14.1241L16.3107 20H19.9466C19.9645 19.9822 19.9823 19.9644 20.0001 19.9465C20.0001 18.5991 20.0001 17.3968 20.0001 16.3109L14.1241 10.4349H20Z" fill="white"/>
<path d="M10.1191 2.60864C6.99102 4.38981 4.39055 6.99028 2.60938 10.1183V20H7.8268V7.82614V7.82607H20.0007C20.0007 6.18052 20.0007 4.61286 20.0007 2.60864H10.1191Z" fill="#D80027"/>
<path d="M20.0007 17.5405L12.895 10.4348H10.4355C10.4355 10.4348 10.4355 10.4348 10.4355 10.4348L20.0006 19.9999H20.0007C20.0007 19.9999 20.0007 18.3042 20.0007 17.5405Z" fill="#D80027"/>
<path d="M12.0612 23.4784L13.1588 25.7735L15.6375 25.2007L14.5275 27.4899L16.5208 29.0706L14.039 29.63L14.0459 32.174L12.0612 30.5824L10.0765 32.174L10.0834 29.63L7.60156 29.0706L9.59492 27.4899L8.48477 25.2007L10.9636 25.7735L12.0612 23.4784Z" fill="white"/>
<path d="M29.9427 27.8262L30.4915 28.9737L31.7309 28.6873L31.1758 29.8319L32.1725 30.6223L30.9316 30.902L30.935 32.174L29.9427 31.3781L28.9503 32.174L28.9537 30.902L27.7129 30.6223L28.7095 29.8319L28.1545 28.6873L29.3938 28.9737L29.9427 27.8262Z" fill="white"/>
<path d="M24.8373 15.6522L25.386 16.7999L26.6254 16.5133L26.0704 17.6579L27.067 18.4483L25.8262 18.728L25.8295 20L24.8373 19.2042L23.8449 20L23.8483 18.728L22.6074 18.4483L23.6041 17.6579L23.0491 16.5133L24.2884 16.7999L24.8373 15.6522Z" fill="white"/>
<path d="M29.9427 8.69568L30.4915 9.84334L31.7309 9.55685L31.1759 10.7015L32.1724 11.4918L30.9316 11.7715L30.935 13.0436L29.9427 12.2477L28.9503 13.0436L28.9537 11.7715L27.7129 11.4918L28.7095 10.7015L28.1545 9.55685L29.3938 9.84334L29.9427 8.69568Z" fill="white"/>
<path d="M34.4037 13.9131L34.9524 15.0607L36.1918 14.7742L35.6368 15.9188L36.6334 16.7092L35.3925 16.9889L35.3959 18.2609L34.4037 17.4651L33.4113 18.2609L33.4147 16.9889L32.1738 16.7092L33.1705 15.9188L32.6155 14.7742L33.8548 15.0607L34.4037 13.9131Z" fill="white"/>
<path d="M31.2134 20L31.6451 21.3286H33.0421L31.9119 22.1498L32.3437 23.4783L31.2134 22.6572L30.0833 23.4783L30.5149 22.1498L29.3848 21.3286H30.7817L31.2134 20Z" fill="white"/>
<circle cx="20" cy="20" r="19.5" stroke="#CCCCCC"/>
</svg>
