<svg width="40" height="40" viewBox="0 0 40 40" fill="none" xmlns="http://www.w3.org/2000/svg">
<path d="M20 40C31.0457 40 40 31.0457 40 20C40 8.9543 31.0457 0 20 0C8.9543 0 0 8.9543 0 20C0 31.0457 8.9543 40 20 40Z" fill="#FFDA44"/>
<path d="M20.0009 39.9999C26.0627 39.9999 31.4941 37.3028 35.1619 33.0435H4.83984C8.50758 37.3028 13.9391 39.9999 20.0009 39.9999Z" fill="#338AF3"/>
<path d="M40 20C40 8.95437 31.0456 0 20 0C8.95437 0 0 8.95437 0 20C0 21.8052 0.240625 23.5538 0.688984 25.2174H39.3111C39.7594 23.5538 40 21.8052 40 20Z" fill="#338AF3"/>
<path d="M1.58984 27.826C1.97539 28.732 2.42609 29.6032 2.93555 30.4347H37.0646C37.5741 29.6032 38.0248 28.7319 38.4105 27.826H1.58984Z" fill="#338AF3"/>
<path d="M9.16531 12.6143L5.25781 10.8898L9.16531 9.16523L10.8898 5.25781L12.6142 9.16523L16.5216 10.8898L12.6142 12.6143L10.8898 16.5217L9.16531 12.6143Z" fill="#F0F0F0"/>
<path d="M10.8904 7.4115L11.9553 9.8247L14.3686 10.8898L11.9553 11.9548L10.8904 14.368L9.82531 11.9548L7.41211 10.8898L9.82531 9.8247L10.8904 7.4115Z" fill="#D80027"/>
</svg>
