<svg width="40" height="40" viewBox="0 0 40 40" fill="none" xmlns="http://www.w3.org/2000/svg">
<g clip-path="url(#clip0_6052_13936)">
<path d="M39.311 25.2173C39.7594 23.5537 40 21.8051 40 19.9998C40 18.1946 39.7594 16.446 39.311 14.7824L18.2609 0.0759277C14.353 0.412646 10.7668 1.8728 7.82609 4.13226L0.688984 14.7824C0.240625 16.446 0 18.1946 0 19.9998C0 21.7945 0.237734 23.5335 0.681094 25.1883L7.82602 35.8674C10.7667 38.1269 14.3529 39.5871 18.2608 39.9237L39.311 25.2173Z" fill="#FFDA2C"/>
<path d="M0.689453 25.2175C1.84664 29.5112 4.39703 33.2326 7.82656 35.8677V25.2175H0.689453Z" fill="#1A47B8"/>
<path d="M18.2617 39.924C18.835 39.9734 19.4148 40.0001 20.0009 40.0001C29.2414 40.0001 37.0169 33.7328 39.3119 25.2175H18.2617V39.924Z" fill="#1A47B8"/>
<path d="M39.3119 14.7827C37.0169 6.26739 29.2414 0.00012207 20.0009 0.00012207C19.4148 0.00012207 18.835 0.0268408 18.2617 0.0762158V14.7827H39.3119Z" fill="#1A47B8"/>
<path d="M7.82656 4.13245C4.39703 6.7676 1.84664 10.4889 0.689453 14.7826H7.82656V4.13245Z" fill="#1A47B8"/>
<path d="M39.8307 17.3913H15.6523H15.6522V0.475342C13.8039 0.885186 12.0516 1.54948 10.4348 2.43175V17.3912H0.169297C0.0579688 18.2452 0 19.1158 0 20C0 20.8841 0.0579688 21.7547 0.169297 22.6086H10.4347H10.4348V37.5681C12.0516 38.4503 13.8039 39.1147 15.6522 39.5245V22.6089V22.6087H39.8307C39.9419 21.7547 40 20.8841 40 20C40 19.1158 39.9419 18.2452 39.8307 17.3913Z" fill="#F93939"/>
</g>
<defs>
<clipPath id="clip0_6052_13936">
<rect width="40" height="40" fill="white"/>
</clipPath>
</defs>
</svg>
