<svg width="40" height="40" viewBox="0 0 40 40" fill="none" xmlns="http://www.w3.org/2000/svg">
<g clip-path="url(#clip0_6041_12182)">
<path d="M42.6667 0H-2.66667C-5.61219 0 -8 2.38781 -8 5.33333V34.6667C-8 37.6122 -5.61219 40 -2.66667 40H42.6667C45.6122 40 48 37.6122 48 34.6667V5.33333C48 2.38781 45.6122 0 42.6667 0Z" fill="#F93939"/>
<path fill-rule="evenodd" clip-rule="evenodd" d="M-8 26.6666H48V40H-8V26.6666Z" fill="#249F58"/>
<path fill-rule="evenodd" clip-rule="evenodd" d="M-8 0H48V13.3333H-8V0Z" fill="#3ECBF8"/>
<path fill-rule="evenodd" clip-rule="evenodd" d="M24 18.6666H26.6667V21.3333H24V18.6666Z" fill="white"/>
<path fill-rule="evenodd" clip-rule="evenodd" d="M25.334 24C24.118 25.6187 22.182 26.6667 20.0007 26.6667C16.3207 26.6667 13.334 23.68 13.334 20C13.334 16.32 16.3207 13.3334 20.0007 13.3334C22.182 13.3334 24.118 14.3814 25.334 16H21.334C19.126 16 17.334 17.792 17.334 20C17.334 22.208 19.126 24 21.334 24H25.334Z" fill="white"/>
</g>
<defs>
<clipPath id="clip0_6041_12182">
<path d="M0 20C0 8.95431 8.95431 0 20 0C31.0457 0 40 8.95431 40 20C40 31.0457 31.0457 40 20 40C8.95431 40 0 31.0457 0 20Z" fill="white"/>
</clipPath>
</defs>
</svg>
