<svg width="40" height="40" viewBox="0 0 40 40" fill="none" xmlns="http://www.w3.org/2000/svg">
<g clip-path="url(#clip0_6041_12275)">
<path d="M20 40C31.0457 40 40 31.0457 40 20C40 8.9543 31.0457 0 20 0C8.9543 0 0 8.9543 0 20C0 31.0457 8.9543 40 20 40Z" fill="white"/>
<path d="M20.0005 0C12.9091 0 6.68016 3.69086 3.12891 9.25617L30.2507 37.1757C36.09 33.6834 40.0005 27.2987 40.0005 20C40.0005 8.95438 31.0461 0 20.0005 0Z" fill="#FFDA2C"/>
<path d="M40.0006 20C40.0006 14.8108 38.0242 10.0836 34.7832 6.52905V33.471C38.0242 29.9164 40.0006 25.1892 40.0006 20Z" fill="#1A47B8"/>
<path d="M24.9835 37.6463L27.0784 37.6449L27.7247 35.6521L28.3733 37.6442L29.4241 37.6435C30.0684 37.2986 30.6916 36.9196 31.2913 36.5085L3.49133 8.70862C3.0332 9.37706 2.61539 10.075 2.23969 10.7985L2.48672 11.5572L4.58164 11.5559L2.88758 12.7883L3.53617 14.7804L1.84055 13.5501L0.829219 14.2857C0.290078 16.0964 0 18.0142 0 19.9999C0 31.0456 8.95437 39.9999 20 39.9999C22.3353 39.9999 24.5768 39.599 26.6602 38.8631L24.9835 37.6463ZM4.46086 19.1304L5.10695 17.1376L3.41148 15.9071L5.50641 15.9058L6.15258 13.9129L6.80117 15.905L8.89609 15.9037L7.20195 17.1361L7.85055 19.1282L6.15492 17.8979L4.46086 19.1304ZM8.77531 23.4782L9.42141 21.4854L7.72594 20.2549L9.82086 20.2536L10.467 18.2607L11.1156 20.2528L13.2105 20.2515L11.5165 21.4839L12.1651 23.476L10.4695 22.2457L8.77531 23.4782ZM13.0897 27.826L13.7358 25.8332L12.0403 24.6028L14.1352 24.6014L14.7814 22.6085L15.43 24.6006L17.5249 24.5993L15.8309 25.8317L16.4795 27.8239L14.7838 26.5934L13.0897 27.826ZM19.0982 30.9414L17.4041 32.1739L18.0502 30.181L16.3547 28.9506L18.4496 28.9492L19.0959 26.9564L19.7445 28.9485L21.8394 28.9471L20.1453 30.1796L20.7939 32.1717L19.0982 30.9414ZM21.7185 36.5217L22.3646 34.5289L20.6691 33.2984L22.7641 33.2971L23.4102 31.3042L24.0588 33.2963L26.1538 33.2949L24.4597 34.5274L25.1083 36.5195L23.4127 35.289L21.7185 36.5217Z" fill="#1A47B8"/>
</g>
<defs>
<clipPath id="clip0_6041_12275">
<rect width="40" height="40" fill="white"/>
</clipPath>
</defs>
</svg>
