<svg width="40" height="40" viewBox="0 0 40 40" fill="none" xmlns="http://www.w3.org/2000/svg">
<path d="M28.6958 1.98453C26.0664 0.713125 23.1166 0 20.0002 0C16.8838 0 13.9339 0.713125 11.3046 1.98453L9.56543 20L11.3046 38.0155C13.9339 39.2869 16.8838 40 20.0002 40C23.1166 40 26.0664 39.2869 28.6958 38.0155L30.435 20L28.6958 1.98453Z" fill="#FFDA44"/>
<path d="M11.3044 1.98523C4.61453 5.22007 0 12.0708 0 20C0 27.9292 4.61453 34.7799 11.3044 38.0148V1.98523Z" fill="#0052B4"/>
<path d="M28.6953 1.98523V38.0148C35.3852 34.7799 39.9997 27.9291 39.9997 20C39.9997 12.0709 35.3852 5.22007 28.6953 1.98523Z" fill="#0052B4"/>
<path d="M26.0866 12.174L27.2533 12.7572L26.0866 12.174L24.9199 11.5907C24.8496 11.7314 23.3262 14.8308 23.0774 19.5653H21.3041V12.174L19.9997 10.4348L18.6953 12.174V19.5653H16.922C16.673 14.8308 15.1498 11.7314 15.0794 11.5907L12.7461 12.7573C12.7622 12.7893 14.3476 16.0163 14.3476 20.8697V22.174H18.6954V29.5654H21.3041V22.174H25.6519V20.8696C25.6519 18.3604 26.086 16.2913 26.4503 14.9974C26.8474 13.5865 27.2508 12.7625 27.2548 12.7543L26.0866 12.174Z" fill="black"/>
</svg>
