<svg width="40" height="40" viewBox="0 0 40 40" fill="none" xmlns="http://www.w3.org/2000/svg">
<g clip-path="url(#clip0_6041_12389)">
<path d="M0 20C0 8.95431 8.95431 0 20 0C31.0457 0 40 8.95431 40 20C40 31.0457 31.0457 40 20 40C8.95431 40 0 31.0457 0 20Z" fill="#F93939"/>
<path d="M42.6667 0H-2.66667C-5.61219 0 -8 2.38781 -8 5.33333V34.6667C-8 37.6122 -5.61219 40 -2.66667 40H42.6667C45.6122 40 48 37.6122 48 34.6667V5.33333C48 2.38781 45.6122 0 42.6667 0Z" fill="#F93939"/>
<path fill-rule="evenodd" clip-rule="evenodd" d="M-8 21.3334H48V40H-8V21.3334Z" fill="#249F58"/>
<path fill-rule="evenodd" clip-rule="evenodd" d="M20.0001 24.6666L14.5148 27.552L15.5628 21.4453L11.1201 17.112L17.2535 16.2213L20.0001 10.6666L22.7468 16.224L28.8801 17.1146L24.4374 21.4426L25.4855 27.5546" fill="#FFDA2C"/>
</g>
<defs>
<clipPath id="clip0_6041_12389">
<path d="M0 20C0 8.95431 8.95431 0 20 0C31.0457 0 40 8.95431 40 20C40 31.0457 31.0457 40 20 40C8.95431 40 0 31.0457 0 20Z" fill="white"/>
</clipPath>
</defs>
</svg>
