<svg width="40" height="40" viewBox="0 0 40 40" fill="none" xmlns="http://www.w3.org/2000/svg">
<path d="M20 40C31.0457 40 40 31.0457 40 20C40 8.9543 31.0457 0 20 0C8.9543 0 0 8.9543 0 20C0 31.0457 8.9543 40 20 40Z" fill="white"/>
<path d="M32.1779 4.133C25.0176 -1.37684 14.9826 -1.37684 7.82227 4.13293L20.0001 16.3107L32.1779 4.133Z" fill="#F93939"/>
<path d="M19.9999 23.6894L7.82227 35.867C14.9826 41.3769 25.0176 41.3769 32.1779 35.867L20.0001 23.6892L19.9999 23.6894Z" fill="#F93939"/>
<path d="M16.3101 20L4.13238 7.82214C-1.37746 14.9825 -1.37746 25.0175 4.13238 32.1778L16.3101 20Z" fill="#00B731"/>
<path d="M23.6885 20L35.8661 32.1778C41.376 25.0175 41.376 14.9825 35.8661 7.82214L23.6885 20Z" fill="#00B731"/>
<path d="M20.0003 28.6956C24.8028 28.6956 28.6959 24.8024 28.6959 19.9999C28.6959 15.1975 24.8028 11.3043 20.0003 11.3043C15.1979 11.3043 11.3047 15.1975 11.3047 19.9999C11.3047 24.8024 15.1979 28.6956 20.0003 28.6956Z" fill="white"/>
<path d="M20.0004 13.9131L20.7534 15.2175H22.2596L21.5064 16.5218L22.2596 17.8261H20.7534L20.0004 19.1305L19.2473 17.8261H17.7412L18.4943 16.5218L17.7412 15.2175H19.2473L20.0004 13.9131Z" fill="#F93939"/>
<path d="M16.1723 20L16.9254 21.3044H18.4314L17.6784 22.6087L18.4314 23.913H16.9254L16.1723 25.2174L15.4192 23.913H13.9131L14.6661 22.6087L13.9131 21.3044H15.4192L16.1723 20Z" fill="#F93939"/>
<path d="M23.8276 20L24.5806 21.3044H26.0867L25.3337 22.6087L26.0867 23.913H24.5806L23.8276 25.2174L23.0745 23.913H21.5684L22.3214 22.6087L21.5684 21.3044H23.0745L23.8276 20Z" fill="#F93939"/>
<circle cx="20" cy="20" r="19.5" stroke="#CCCCCC"/>
</svg>
