<svg width="40" height="40" viewBox="0 0 40 40" fill="none" xmlns="http://www.w3.org/2000/svg">
<g clip-path="url(#clip0_6041_12237)">
<path d="M0 20C0 8.95431 8.95431 0 20 0C31.0457 0 40 8.95431 40 20C40 31.0457 31.0457 40 20 40C8.95431 40 0 31.0457 0 20Z" fill="#FFDA2C"/>
<path d="M47.0007 0H1.66732C-1.2782 0 -3.66602 2.38781 -3.66602 5.33333V34.6667C-3.66602 37.6122 -1.2782 40 1.66732 40H47.0007C49.9462 40 52.334 37.6122 52.334 34.6667V5.33333C52.334 2.38781 49.9462 0 47.0007 0Z" fill="#FFDA2C"/>
<path fill-rule="evenodd" clip-rule="evenodd" d="M17.668 21.3334H52.3346V40H17.668V21.3334Z" fill="#F93939"/>
<path fill-rule="evenodd" clip-rule="evenodd" d="M-3.66602 0H17.6673V40H-3.66602V0Z" fill="#249F58"/>
</g>
<defs>
<clipPath id="clip0_6041_12237">
<path d="M0 20C0 8.95431 8.95431 0 20 0C31.0457 0 40 8.95431 40 20C40 31.0457 31.0457 40 20 40C8.95431 40 0 31.0457 0 20Z" fill="white"/>
</clipPath>
</defs>
</svg>
