<svg width="40" height="40" viewBox="0 0 40 40" fill="none" xmlns="http://www.w3.org/2000/svg">
<path d="M40 20C40 31.0456 31.0456 40 20 40C8.95437 40 0 31.0456 0 20C0 20.0048 20 0.0021875 20 0C31.0456 0 40 8.95437 40 20Z" fill="#D80027"/>
<path d="M20.0014 9.56519V16.3107L13.0449 9.56519H20.0014Z" fill="#0052B4"/>
<path d="M10.4359 19.9999H16.3118L10.4359 12.1738L9.56641 18.2608L10.4359 19.9999Z" fill="#0052B4"/>
<path d="M19.9473 20H20.0008C20.0008 19.9821 20.0008 19.9646 20.0008 19.9465C19.983 19.9644 19.9652 19.9822 19.9473 20Z" fill="white"/>
<path d="M20 10.4348C20 6.91563 20 4.60977 20 0H19.9966C8.95242 0.001875 0 8.95539 0 20H10.4348V14.1241L16.3106 20H19.9466C19.9644 19.9822 19.9822 19.9644 20.0001 19.9465C20.0001 18.5991 20.0001 17.3968 20.0001 16.3108L14.1241 10.4348H20Z" fill="white"/>
<path d="M10.1191 2.60864C6.99102 4.38981 4.39047 6.99028 2.60938 10.1183V20.8695H7.8268V7.82622V7.82607H20.8702C20.8702 6.18052 20.8702 4.61286 20.8702 2.60864H10.1191Z" fill="#D80027"/>
<path d="M20.7959 18.3354L12.8949 10.4347H10.4355V10.4348L20.7956 20.7949H20.7958C20.7959 20.795 20.7959 19.0991 20.7959 18.3354Z" fill="#D80027"/>
<path d="M22.6094 10.4348V20C22.6094 24.6593 34.7833 24.6593 34.7833 20V10.4348H22.6094Z" fill="white"/>
<path d="M22.6094 20V19.9999C22.6094 24.6593 28.6963 26.0869 28.6963 26.0869C28.6963 26.0869 34.7833 24.6593 34.7833 19.9999V20H22.6094Z" fill="#6DA544"/>
<path d="M28.6952 16.174L25.8691 17.3914V20L28.6952 21.7392L31.5213 20V17.3914L28.6952 16.174Z" fill="#D80027"/>
<path d="M25.8691 14.7826H31.5213V17.3913H25.8691V14.7826Z" fill="#338AF3"/>
<circle cx="20" cy="20" r="19.5" stroke="#CCCCCC"/>
</svg>
