<svg width="40" height="40" viewBox="0 0 40 40" fill="none" xmlns="http://www.w3.org/2000/svg">
<path d="M20 39.9972C31.0441 39.9972 39.9971 31.0442 39.9971 20.0001C39.9971 8.95605 31.0441 0.00305176 20 0.00305176C8.95592 0.00305176 0.00292969 8.95605 0.00292969 20.0001C0.00292969 31.0442 8.95592 39.9972 20 39.9972Z" fill="white"/>
<path d="M2.68168 10.0015C1.77909 11.5646 1.11329 13.1989 0.669922 14.8635L34.1127 34.1718C35.3326 32.9555 36.4151 31.5616 37.3175 29.9985L2.68168 10.0015Z" fill="black"/>
<path d="M29.9984 2.68201C21.997 -1.93755 12.1311 -0.397903 5.88672 5.82817L39.3295 25.1363C41.5993 16.6157 37.9997 7.30164 29.9984 2.68201Z" fill="#FFDA2C"/>
<path d="M10.0015 37.318C18.0027 41.9375 27.8688 40.3979 34.1131 34.1719L0.670265 14.8635C-1.59939 23.3844 2.00006 32.6984 10.0015 37.318Z" fill="#FFDA2C"/>
<path d="M25.6518 17.8264C25.6518 20.9475 23.1216 23.4778 20.0005 23.4778C16.8793 23.4778 14.3491 20.9476 14.3491 17.8264C14.3491 16.8533 14.5951 15.9375 15.0284 15.1381C13.802 16.3922 13.0449 18.1073 13.0449 20C13.0449 23.8414 16.159 26.9555 20.0005 26.9555C23.8419 26.9555 26.956 23.8415 26.956 20C26.956 18.1073 26.199 16.3922 24.9725 15.1381C25.4058 15.9377 25.6518 16.8533 25.6518 17.8264Z" fill="#F93939"/>
<path d="M18.6963 11.3057H21.3046V24.3473H18.6963V11.3057Z" fill="#F93939"/>
<path d="M24.3476 13.9139H15.6533C15.6533 14.5142 16.1762 15.0008 16.7764 15.0008H16.7401C16.7401 15.601 17.2268 16.0876 17.827 16.0876C17.827 16.6878 18.3136 17.1744 18.9138 17.1744H21.0873C21.6876 17.1744 22.1742 16.6878 22.1742 16.0876C22.7744 16.0876 23.261 15.601 23.261 15.0008H23.2248C23.8248 15.0007 24.3476 14.5143 24.3476 13.9139Z" fill="#F93939"/>
<path d="M13.915 25.2167H26.0872V27.825H13.915V25.2167Z" fill="#F93939"/>
<path d="M22.6094 26.0862H27.826V28.6945H22.6094V26.0862Z" fill="#F93939"/>
<path d="M12.1758 26.0862H17.3924V28.6945H12.1758V26.0862Z" fill="#F93939"/>
<circle cx="20" cy="20" r="19.5" stroke="#CCCCCC"/>
</svg>
