<svg width="40" height="40" viewBox="0 0 40 40" fill="none" xmlns="http://www.w3.org/2000/svg">
<g clip-path="url(#clip0_6041_12264)">
<path d="M42.6667 0H-2.66667C-5.61219 0 -8 2.38781 -8 5.33333V34.6667C-8 37.6122 -5.61219 40 -2.66667 40H42.6667C45.6122 40 48 37.6122 48 34.6667V5.33333C48 2.38781 45.6122 0 42.6667 0Z" fill="#FFDA2C"/>
<path fill-rule="evenodd" clip-rule="evenodd" d="M16 18.6666H18.6667V21.3333H16V18.6666ZM21.3333 18.6666H24V21.3333H21.3333V18.6666Z" fill="#03BCDB"/>
<path fill-rule="evenodd" clip-rule="evenodd" d="M24.0007 18.6667H26.6673V24H24.0007V18.6667ZM21.334 16H24.0007V18.6667H21.334V16ZM16.0007 16H18.6673V18.6667H16.0007V16ZM13.334 18.6667H16.0007V24H13.334V18.6667Z" fill="#AF010D"/>
<path fill-rule="evenodd" clip-rule="evenodd" d="M18.666 21.3334H21.3327V24H18.666V21.3334Z" fill="#249F58"/>
<path fill-rule="evenodd" clip-rule="evenodd" d="M18.666 16H21.3327V18.6667H18.666V16Z" fill="#151515"/>
<path fill-rule="evenodd" clip-rule="evenodd" d="M21.3333 21.3334H24V24H21.3333V21.3334ZM16 21.3334H18.6667V24H16V21.3334Z" fill="#D4AF2C"/>
<path fill-rule="evenodd" clip-rule="evenodd" d="M18.666 18.6666H21.3327V21.3333H18.666V18.6666Z" fill="#249F58"/>
<path fill-rule="evenodd" clip-rule="evenodd" d="M-8 26.6666H48V40H-8V26.6666Z" fill="#249F58"/>
<path fill-rule="evenodd" clip-rule="evenodd" d="M-8 0H48V13.3333H-8V0Z" fill="#F93939"/>
</g>
<defs>
<clipPath id="clip0_6041_12264">
<path d="M0 20C0 8.95431 8.95431 0 20 0C31.0457 0 40 8.95431 40 20C40 31.0457 31.0457 40 20 40C8.95431 40 0 31.0457 0 20Z" fill="white"/>
</clipPath>
</defs>
</svg>
