<svg width="40" height="40" viewBox="0 0 40 40" fill="none" xmlns="http://www.w3.org/2000/svg">
<path d="M20 40C31.0457 40 40 31.0457 40 20C40 8.9543 31.0457 0 20 0C8.9543 0 0 8.9543 0 20C0 31.0457 8.9543 40 20 40Z" fill="#249F58"/>
<path d="M20.0002 7.82605L36.522 20L20.0002 32.1739L3.47852 20L20.0002 7.82605Z" fill="#FFDA2C"/>
<path d="M19.9995 26.9564C23.8414 26.9564 26.9559 23.8419 26.9559 19.9999C26.9559 16.158 23.8414 13.0435 19.9995 13.0435C16.1575 13.0435 13.043 16.158 13.043 19.9999C13.043 23.8419 16.1575 26.9564 19.9995 26.9564Z" fill="white"/>
<path d="M16.5209 19.5652C15.3112 19.5652 14.1438 19.7492 13.0449 20.0906C13.0936 23.8906 16.1877 26.9565 19.9992 26.9565C22.3561 26.9565 24.4377 25.7833 25.696 23.9903C23.5431 21.2952 20.2305 19.5652 16.5209 19.5652Z" fill="#1A47B8"/>
<path d="M26.8276 21.3328C26.9113 20.9012 26.9566 20.456 26.9566 19.9999C26.9566 16.1579 23.842 13.0435 20.0001 13.0435C17.1334 13.0435 14.6724 14.7779 13.6074 17.2543C14.5488 17.0592 15.5235 16.9565 16.5219 16.9565C20.5623 16.9564 24.2174 18.636 26.8276 21.3328Z" fill="#1A47B8"/>
</svg>
