<svg width="40" height="40" viewBox="0 0 40 40" fill="none" xmlns="http://www.w3.org/2000/svg">
<g clip-path="url(#clip0_6041_12259)">
<path d="M0 20C0 8.95431 8.95431 0 20 0C31.0457 0 40 8.95431 40 20C40 31.0457 31.0457 40 20 40C8.95431 40 0 31.0457 0 20Z" fill="#FF6C2D"/>
<path d="M42.6667 0H-2.66667C-5.61219 0 -8 2.38781 -8 5.33333V34.6667C-8 37.6122 -5.61219 40 -2.66667 40H42.6667C45.6122 40 48 37.6122 48 34.6667V5.33333C48 2.38781 45.6122 0 42.6667 0Z" fill="#FF6C2D"/>
<path fill-rule="evenodd" clip-rule="evenodd" d="M-8 40L48 0H-8V40Z" fill="#FFDA2C"/>
<path fill-rule="evenodd" clip-rule="evenodd" d="M6.29688 24.894L7.27568 27.8304L11.1909 28.8092L12.1697 26.8516L20.0001 27.8304L18.0425 22.9364H21.9577L27.8305 24.894L29.7881 22.9364L23.9153 20.9788L25.8729 19.0212H31.7457L32.7246 17.0636H27.8305V15.106H31.7457L33.7034 13.1484L25.8729 11.1908L21.9577 15.106L20.0001 17.0636L21.9577 19.0212L16.0849 18.0424L12.1697 24.894L10.2121 26.8516L6.29688 24.894Z" fill="white"/>
</g>
<defs>
<clipPath id="clip0_6041_12259">
<path d="M0 20C0 8.95431 8.95431 0 20 0C31.0457 0 40 8.95431 40 20C40 31.0457 31.0457 40 20 40C8.95431 40 0 31.0457 0 20Z" fill="white"/>
</clipPath>
</defs>
</svg>
