<svg width="40" height="40" viewBox="0 0 40 40" fill="none" xmlns="http://www.w3.org/2000/svg">
<path d="M20 40C31.0457 40 40 31.0457 40 20C40 8.9543 31.0457 0 20 0C8.9543 0 0 8.9543 0 20C0 31.0457 8.9543 40 20 40Z" fill="#FCFCFC"/>
<path d="M8.26082 18.5507L6.08691 14.6067L8.26082 10.7246L10.4347 14.6067L8.26082 18.5507Z" fill="#F93939"/>
<path d="M3.91316 18.5507L1.73926 14.6067L3.91316 10.7246L6.08707 14.6067L3.91316 18.5507Z" fill="#F93939"/>
<path d="M8.26082 29.2753L6.08691 25.3313L8.26082 21.4492L10.4347 25.3313L8.26082 29.2753Z" fill="#F93939"/>
<path d="M3.91316 29.2753L1.73926 25.3313L3.91316 21.4492L6.08707 25.3313L3.91316 29.2753Z" fill="#F93939"/>
<path d="M10.4353 3.88214L9.81984 2.78308C8.71594 3.43714 7.68055 4.19441 6.72656 5.0416L8.26141 7.82605L10.4353 3.88214Z" fill="#F93939"/>
<path d="M8.26105 32.1738L6.70996 34.9438C7.66309 35.7921 8.69777 36.5505 9.80121 37.2059L10.435 36.056L8.26105 32.1738Z" fill="#F93939"/>
<path d="M12.1738 25.2174V38.4098C14.5777 39.433 17.2224 40 19.9999 40C28.5992 40 35.9301 34.5725 38.7559 26.9565L12.1738 25.2174Z" fill="#249F58"/>
<path d="M38.7559 26.9565C39.5599 24.7898 39.9999 22.4464 39.9999 20C39.9999 8.95437 31.0455 0 19.9999 0C17.2227 0 14.5777 0.566641 12.1738 1.58969V26.9566H38.7559V26.9565Z" fill="#F93939"/>
<circle cx="20" cy="20" r="19.5" stroke="#CCCCCC"/>
</svg>
