<svg width="40" height="40" viewBox="0 0 40 40" fill="none" xmlns="http://www.w3.org/2000/svg">
<g clip-path="url(#clip0_6041_12225)">
<path d="M0 20C0 8.95431 8.95431 0 20 0C31.0457 0 40 8.95431 40 20C40 31.0457 31.0457 40 20 40C8.95431 40 0 31.0457 0 20Z" fill="#1A47B8"/>
<path d="M20 30.0527C25.552 30.0527 30.0528 25.5519 30.0528 19.9999C30.0528 14.4479 25.552 9.94714 20 9.94714C14.448 9.94714 9.94727 14.4479 9.94727 19.9999C9.94727 25.5519 14.448 30.0527 20 30.0527Z" fill="white"/>
<path fill-rule="evenodd" clip-rule="evenodd" d="M15.5312 21.1168H24.4671V23.3508H15.5312V21.1168Z" fill="#CBCBCB"/>
<path fill-rule="evenodd" clip-rule="evenodd" d="M14.416 14.415H16.65V16.6489H14.416V14.415ZM18.8839 12.181H21.1179V14.415H18.8839V12.181ZM23.3518 14.415H25.5858V16.6489H23.3518V14.415ZM25.5858 18.8829H27.8197V21.1168H25.5858V18.8829ZM23.3518 23.3508H25.5858V25.5847H23.3518V23.3508Z" fill="#249F58"/>
<path fill-rule="evenodd" clip-rule="evenodd" d="M21.1172 16.6489H23.3511V18.8829H21.1172V16.6489Z" fill="#151515"/>
<path fill-rule="evenodd" clip-rule="evenodd" d="M21.1172 18.8829H23.3511V21.1169H21.1172V18.8829Z" fill="#AE6A3E"/>
<path fill-rule="evenodd" clip-rule="evenodd" d="M16.6484 16.6489H18.8824V18.8829H16.6484V16.6489Z" fill="#AE6A3E"/>
<path fill-rule="evenodd" clip-rule="evenodd" d="M16.6484 18.8829H18.8824V21.1169H16.6484V18.8829Z" fill="#FFDA2C"/>
<path fill-rule="evenodd" clip-rule="evenodd" d="M18.8835 25.5848H21.1174V27.8187H18.8835V25.5848ZM14.4156 23.3508H16.6495V25.5848H14.4156V23.3508ZM12.1816 18.8829H14.4156V21.1169H12.1816V18.8829Z" fill="#249F58"/>
<path fill-rule="evenodd" clip-rule="evenodd" d="M0 32H56V40H0V32ZM0 0H56V8H0V0Z" fill="#F93939"/>
</g>
<defs>
<clipPath id="clip0_6041_12225">
<path d="M0 20C0 8.95431 8.95431 0 20 0C31.0457 0 40 8.95431 40 20C40 31.0457 31.0457 40 20 40C8.95431 40 0 31.0457 0 20Z" fill="white"/>
</clipPath>
</defs>
</svg>
