<svg width="40" height="40" viewBox="0 0 40 40" fill="none" xmlns="http://www.w3.org/2000/svg">
<g clip-path="url(#clip0_6041_12421)">
<mask id="mask0_6041_12421" style="mask-type:alpha" maskUnits="userSpaceOnUse" x="0" y="0" width="40" height="40">
<path d="M20 40C31.0457 40 40 31.0457 40 20C40 8.9543 31.0457 0 20 0C8.9543 0 0 8.9543 0 20C0 31.0457 8.9543 40 20 40Z" fill="white"/>
</mask>
<g mask="url(#mask0_6041_12421)">
<path d="M20 40C31.0457 40 40 31.0457 40 20C40 8.9543 31.0457 0 20 0C8.9543 0 0 8.9543 0 20C0 31.0457 8.9543 40 20 40Z" fill="white"/>
<path d="M43.9997 20C43.9997 12.0707 39.3852 5.2195 32.6953 1.9845V38.0154C39.3852 34.7804 43.9997 27.9292 43.9997 20Z" fill="#F93939"/>
<path d="M-4 20C-4 27.9292 0.614453 34.7804 7.30437 38.0154V1.9845C0.614453 5.2195 -4 12.0707 -4 20Z" fill="#F93939"/>
<path d="M20.8824 30.3137H19.7843L20.0588 25.9216C20.0433 25.6903 19.9323 25.6295 19.5098 25.6471L15.1176 26.1961C15.1176 26.1961 15.9412 25.098 15.9412 24.549C15.9412 24 11 20.4314 11 20.4314C11 20.4314 12.098 20.1569 12.3725 19.8824C12.6471 19.6078 11.2745 16.5882 11.2745 16.5882C11.2745 16.5882 14.0641 17.6863 14.2941 17.4118C14.5241 17.1373 14.8431 16.0392 14.8431 16.0392C14.8431 16.0392 17.0392 18.5098 17.5882 18.5098C18.1373 18.5098 16.4902 12.4706 16.4902 12.4706C16.4902 12.4706 17.8627 13.5686 18.4118 13.5686C18.9608 13.5686 20.3333 10 20.3333 10C20.3333 10 21.7059 13.5686 21.9804 13.5686C22.2549 13.5686 24.1765 12.4706 24.1765 12.4706C24.1765 12.4706 22.8039 18.2353 23.0784 18.5098C23.3529 18.7843 25.8235 16.0392 25.8235 16.0392C25.8235 16.0392 26.098 17.1373 26.3725 17.4118C26.6471 17.6863 29.3922 16.5882 29.3922 16.5882C29.3922 16.5882 28.0196 19.6078 28.2941 19.8824C28.5686 20.1569 29.6667 20.4314 29.6667 20.4314C29.6667 20.4314 24.7255 24 24.7255 24.549C24.7255 25.098 25.2745 26.1961 25.2745 26.1961L21.1569 25.6471C20.8259 25.5522 20.7112 25.6242 20.6078 25.9216L20.8824 30.3137Z" fill="#F93939"/>
<circle cx="20" cy="20" r="19.5" stroke="#CCCCCC"/>
</g>
</g>
<defs>
<clipPath id="clip0_6041_12421">
<rect width="40" height="40" fill="white"/>
</clipPath>
</defs>
</svg>
