<svg width="40" height="40" viewBox="0 0 40 40" fill="none" xmlns="http://www.w3.org/2000/svg">
<path d="M20 40C31.0457 40 40 31.0457 40 20C40 8.9543 31.0457 0 20 0C8.9543 0 0 8.9543 0 20C0 31.0457 8.9543 40 20 40Z" fill="#6DA544"/>
<path d="M30.7005 28.6956L31.2493 29.8431L32.4887 29.5567L31.9337 30.7013L32.9303 31.4917L31.6894 31.7713L31.6929 33.0434L30.7005 32.2476L29.7081 33.0434L29.7116 31.7713L28.4707 31.4917L29.4673 30.7013L28.9123 29.5567L30.1516 29.8431L30.7005 28.6956Z" fill="#FFDA2C"/>
<path d="M25.595 16.5217L26.1439 17.6693L27.3833 17.3828L26.8282 18.5275L27.8248 19.3178L26.584 19.5975L26.5874 20.8695L25.595 20.0738L24.6027 20.8695L24.606 19.5975L23.3652 19.3178L24.3619 18.5275L23.8068 17.3828L25.0462 17.6693L25.595 16.5217Z" fill="#FFDA2C"/>
<path d="M30.7004 9.56519L31.2492 10.7128L32.4886 10.4262L31.9337 11.5709L32.9302 12.3613L31.6893 12.6409L31.6927 13.913L30.7004 13.1171L29.708 13.913L29.7115 12.6409L28.4707 12.3613L29.4673 11.5709L28.9123 10.4262L30.1516 10.7128L30.7004 9.56519Z" fill="#FFDA2C"/>
<path d="M35.1595 14.7826L35.7083 15.9302L36.9477 15.6437L36.3927 16.7884L37.3893 17.5787L36.1484 17.8584L36.1519 19.1305L35.1595 18.3346L34.1671 19.1305L34.1705 17.8584L32.9297 17.5787L33.9263 16.7884L33.3713 15.6437L34.6106 15.9302L35.1595 14.7826Z" fill="#FFDA2C"/>
<path d="M31.9712 20.8695L32.403 22.1982H33.7999L32.6697 23.0193L33.1015 24.3478L31.9712 23.5268L30.8411 24.3478L31.2727 23.0193L30.1426 22.1982H31.5395L31.9712 20.8695Z" fill="#FFDA2C"/>
<path d="M22.1734 25.6522C19.0518 25.6522 16.5212 23.1216 16.5212 20C16.5212 16.8785 19.0517 14.3478 22.1734 14.3478C23.1467 14.3478 24.0626 14.594 24.8621 15.0272C23.6078 13.8005 21.8926 13.0435 19.9994 13.0435C16.1575 13.0435 13.043 16.158 13.043 19.9999C13.043 23.8419 16.1575 26.9564 19.9994 26.9564C21.8925 26.9564 23.6078 26.1994 24.862 24.9727C24.0626 25.406 23.1467 25.6522 22.1734 25.6522Z" fill="#FFDA2C"/>
<path d="M12.5763 7.82605C11.9748 6.78668 10.8517 6.08691 9.56453 6.08691C8.27734 6.08691 7.1543 6.78668 6.55273 7.82605H12.5763Z" fill="#FFDA2C"/>
<path d="M12.5875 7.84619L9.56414 10.8696L6.54078 7.84619C6.2518 8.3533 6.08594 8.93979 6.08594 9.56525C6.08594 11.4863 7.6432 13.0435 9.56422 13.0435C11.4852 13.0435 13.0425 11.4863 13.0425 9.56525C13.0424 8.93979 12.8765 8.3533 12.5875 7.84619Z" fill="#FFDA2C"/>
<path d="M8.69531 10V12.9339C8.9732 13.0054 9.26461 13.0434 9.56484 13.0434C9.86508 13.0434 10.1565 13.0053 10.4344 12.9339V10H8.69531Z" fill="#A2001D"/>
</svg>
