<svg width="40" height="40" viewBox="0 0 40 40" fill="none" xmlns="http://www.w3.org/2000/svg">
<g clip-path="url(#clip0_6041_12585)">
<path d="M0 20C0 8.95431 8.95431 0 20 0C31.0457 0 40 8.95431 40 20C40 31.0457 31.0457 40 20 40C8.95431 40 0 31.0457 0 20Z" fill="#3A99FF"/>
<path fill-rule="evenodd" clip-rule="evenodd" d="M11.9956 13.9466L8.07563 16.008L8.8223 11.6426L5.6543 8.5493L10.0356 7.9173L11.9956 3.94397L13.953 7.9173L18.3343 8.5493L15.161 11.6426L15.913 16.0053" fill="#FFDA2C"/>
<path fill-rule="evenodd" clip-rule="evenodd" d="M0 37.3334L56 8.00004V-2.66663L0 26.6667V37.3334Z" fill="#FFDA2C"/>
<path fill-rule="evenodd" clip-rule="evenodd" d="M0 42.6666L56 13.3333V2.66663L0 32V42.6666Z" fill="#FFDA2C"/>
<path fill-rule="evenodd" clip-rule="evenodd" d="M0 40L56 10.6667V0L0 29.3333V40Z" fill="#F93939"/>
</g>
<defs>
<clipPath id="clip0_6041_12585">
<path d="M0 20C0 8.95431 8.95431 0 20 0C31.0457 0 40 8.95431 40 20C40 31.0457 31.0457 40 20 40C8.95431 40 0 31.0457 0 20Z" fill="white"/>
</clipPath>
</defs>
</svg>
