<svg width="40" height="40" viewBox="0 0 40 40" fill="none" xmlns="http://www.w3.org/2000/svg">
<path d="M40 20C40 31.0456 31.0456 40 20 40C8.95437 40 0 31.0456 0 20C0 20.0048 20 0.0021875 20 0C31.0456 0 40 8.95437 40 20Z" fill="#0052B4"/>
<path d="M19.9463 20H19.9998C19.9998 19.9821 19.9998 19.9646 19.9998 19.9465C19.982 19.9644 19.9642 19.9822 19.9463 20Z" fill="white"/>
<path d="M20 10.4348C20 6.91563 20 4.60977 20 0H19.9966C8.95242 0.001875 0 8.95539 0 20H10.4348V14.1241L16.3106 20H19.9466C19.9644 19.9822 19.9822 19.9644 20.0001 19.9465C20.0001 18.5991 20.0001 17.3968 20.0001 16.3108L14.1241 10.4348H20Z" fill="white"/>
<path d="M10.1191 2.60864C6.99102 4.38981 4.39047 6.99028 2.60938 10.1183V20H7.8268V7.82622V7.82607H20.0007C20.0007 6.18052 20.0007 4.61286 20.0007 2.60864H10.1191Z" fill="#D80027"/>
<path d="M20.0008 17.5405L12.8949 10.4348H10.4355V10.435L20.0006 20H20.0008C20.0008 20 20.0008 18.3041 20.0008 17.5405Z" fill="#D80027"/>
<path d="M26.9569 20L27.3271 21.1387H28.5243L27.5557 21.8425L27.9257 22.9813L26.9569 22.2775L25.9882 22.9813L26.3582 21.8425L25.3896 21.1387H26.5869L26.9569 20Z" fill="white"/>
<path d="M22.0375 22.0376L23.1043 22.5811L23.951 21.7345L23.7637 22.9172L24.8305 23.4607L23.6479 23.6479L23.4606 24.8307L22.917 23.7638L21.7344 23.9511L22.5812 23.1045L22.0375 22.0376Z" fill="white"/>
<path d="M20 26.9565L21.1387 26.5865L21.1389 25.3893L21.8425 26.3578L22.9813 25.9877L22.2775 26.9565L22.9813 27.9253L21.8425 27.5553L21.1389 28.5239V27.3266L20 26.9565Z" fill="white"/>
<path d="M22.0375 31.8754L22.581 30.8086L21.7344 29.962L22.917 30.1493L23.4606 29.0824L23.6479 30.2651L24.8305 30.4522L23.7637 30.9959L23.951 32.1786L23.1043 31.3318L22.0375 31.8754Z" fill="white"/>
<path d="M26.956 33.9131L26.586 32.7743H25.3887L26.3573 32.0705L25.9873 30.9318L26.956 31.6355L27.9248 30.9318L27.5548 32.0705L28.5234 32.7743H27.3262L26.956 33.9131Z" fill="white"/>
<path d="M31.8751 31.8754L30.8082 31.332L29.9616 32.1786L30.1489 30.9959L29.082 30.4524L30.2647 30.2651L30.452 29.0824L30.9955 30.1493L32.1782 29.962L31.3314 30.8086L31.8751 31.8754Z" fill="white"/>
<path d="M33.913 26.9565L32.7741 27.3266V28.5239L32.0704 27.5552L30.9316 27.9253L31.6355 26.9565L30.9316 25.9877L32.0704 26.3578L32.7741 25.3893V26.5865L33.913 26.9565Z" fill="white"/>
<path d="M31.8751 22.0376L31.3316 23.1044L32.1782 23.9511L30.9955 23.7637L30.452 24.8307L30.2647 23.6479L29.082 23.4606L30.1489 22.9171L29.9616 21.7345L30.8083 22.5811L31.8751 22.0376Z" fill="white"/>
<circle cx="20" cy="20" r="19.5" stroke="#CCCCCC"/>
</svg>
