<svg width="40" height="40" viewBox="0 0 40 40" fill="none" xmlns="http://www.w3.org/2000/svg">
<g clip-path="url(#clip0_6041_12415)">
<path d="M42.6667 0H-2.66667C-5.61219 0 -8 2.38781 -8 5.33333V34.6667C-8 37.6122 -5.61219 40 -2.66667 40H42.6667C45.6122 40 48 37.6122 48 34.6667V5.33333C48 2.38781 45.6122 0 42.6667 0Z" fill="#F93939"/>
<path fill-rule="evenodd" clip-rule="evenodd" d="M20.0005 23.3334L16.0805 25.3947L16.8272 21.0294L13.6592 17.936L18.0405 17.304L20.0005 13.3334L21.9605 17.3067L26.3418 17.9387L23.1685 21.032L23.9152 25.3947" fill="#FFDA2C"/>
<path fill-rule="evenodd" clip-rule="evenodd" d="M-8 0H10.6667V40H-8V0Z" fill="#249F58"/>
<path fill-rule="evenodd" clip-rule="evenodd" d="M29.333 0H47.9997V40H29.333V0Z" fill="#FFDA2C"/>
</g>
<defs>
<clipPath id="clip0_6041_12415">
<path d="M0 20C0 8.95431 8.95431 0 20 0C31.0457 0 40 8.95431 40 20C40 31.0457 31.0457 40 20 40C8.95431 40 0 31.0457 0 20Z" fill="white"/>
</clipPath>
</defs>
</svg>
