<svg width="40" height="40" viewBox="0 0 40 40" fill="none" xmlns="http://www.w3.org/2000/svg">
<g clip-path="url(#clip0_6041_12561)">
<path d="M0 20C0 8.95431 8.95431 0 20 0C31.0457 0 40 8.95431 40 20C40 31.0457 31.0457 40 20 40C8.95431 40 0 31.0457 0 20Z" fill="white"/>
<path fill-rule="evenodd" clip-rule="evenodd" d="M0 16H56V24H0V16ZM0 32H56V40H0V32Z" fill="#1A47B8"/>
<rect width="56" height="8" fill="#1A47B8"/>
<path fill-rule="evenodd" clip-rule="evenodd" d="M0 0L32 20L0 40V0Z" fill="#F93939"/>
<path fill-rule="evenodd" clip-rule="evenodd" d="M11.6743 23.3334L7.75434 25.3947L8.50101 21.0294L5.33301 17.936L9.71434 17.304L11.6743 13.3334L13.6343 17.3067L18.0157 17.9387L14.8423 21.032L15.589 25.3947" fill="white"/>
<circle cx="20" cy="20" r="19.5" stroke="#CCCCCC"/>
</g>
<defs>
<clipPath id="clip0_6041_12561">
<path d="M0 20C0 8.95431 8.95431 0 20 0C31.0457 0 40 8.95431 40 20C40 31.0457 31.0457 40 20 40C8.95431 40 0 31.0457 0 20Z" fill="white"/>
</clipPath>
</defs>
</svg>
