<svg width="40" height="40" viewBox="0 0 40 40" fill="none" xmlns="http://www.w3.org/2000/svg">
<path d="M20 40C31.0457 40 40 31.0457 40 20C40 8.9543 31.0457 0 20 0C8.9543 0 0 8.9543 0 20C0 31.0457 8.9543 40 20 40Z" fill="white"/>
<path d="M20.0009 39.9999C26.0627 39.9999 31.4941 37.3028 35.1619 33.0435H4.83984C8.50758 37.3028 13.9391 39.9999 20.0009 39.9999Z" fill="#1A47B8"/>
<path d="M40 20C40 8.95437 31.0456 0 20 0C8.95437 0 0 8.95437 0 20C0 21.8052 0.240625 23.5538 0.688984 25.2174H39.3111C39.7594 23.5538 40 21.8052 40 20Z" fill="#1A47B8"/>
<path d="M1.58984 27.826C1.97539 28.732 2.42609 29.6032 2.9357 30.4347H37.0648C37.5742 29.6032 38.0249 28.7319 38.4106 27.826H1.58984Z" fill="#F93939"/>
<path fill-rule="evenodd" clip-rule="evenodd" d="M9.14286 23.7428H11.2857V25.8857H9.14286V23.7428ZM13.4286 21.6H15.5714V23.7428H13.4286V21.6ZM17.7143 23.7428H19.8571V25.8857H17.7143V23.7428ZM19.8571 28.0285H22V30.1714H19.8571V28.0285ZM7 28.0285H9.14286V30.1714H7V28.0285ZM17.7143 32.3143H19.8571V34.4571H17.7143V32.3143ZM13.4286 34.4571H15.5714V36.6H13.4286V34.4571ZM9.14286 32.3143H11.2857V34.4571H9.14286V32.3143Z" fill="#FFDA2C"/>
<circle cx="20" cy="20" r="19.5" stroke="#CCCCCC"/>
</svg>
