<svg width="40" height="40" viewBox="0 0 40 40" fill="none" xmlns="http://www.w3.org/2000/svg">
<path d="M20 40C31.0457 40 40 31.0457 40 20C40 8.9543 31.0457 0 20 0C8.9543 0 0 8.9543 0 20C0 31.0457 8.9543 40 20 40Z" fill="#FFDA2C"/>
<path d="M20.0003 40C26.5628 40 32.387 36.8393 36.0338 31.9572H3.9668C7.61367 36.8393 13.4378 40 20.0003 40Z" fill="#1A47B8"/>
<path d="M40 20C40 8.95437 31.0456 0 20 0C8.95437 0 0 8.95437 0 20C0 22.3651 0.411641 24.6338 1.16531 26.7398H38.8346C39.5884 24.6338 40 22.3651 40 20Z" fill="#1A47B8"/>
<path d="M13.6896 12.8267L14.7688 16.1479H18.2613L15.4359 18.2009L16.515 21.5223L13.6896 19.4695L10.8643 21.5223L11.9436 18.2009L9.11816 16.1479H12.6105L13.6896 12.8267Z" fill="white"/>
<path d="M7.69203 9.34839L8.33953 11.3412H10.4351L8.73984 12.5729L9.38734 14.5658L7.69203 13.3341L5.9968 14.5658L6.64437 12.5729L4.94922 11.3412H7.04469L7.69203 9.34839Z" fill="white"/>
</svg>
