<svg width="40" height="40" viewBox="0 0 40 40" fill="none" xmlns="http://www.w3.org/2000/svg">
<mask id="mask0_6041_12145" style="mask-type:alpha" maskUnits="userSpaceOnUse" x="0" y="0" width="40" height="40">
<circle cx="20" cy="20" r="20" fill="#D9D9D9"/>
</mask>
<g mask="url(#mask0_6041_12145)">
<path d="M40 20C40 31.0456 31.0456 40 20 40C8.95437 40 0 31.0456 0 20C0 20.0047 20 0.00226562 20 0C31.0456 0 40 8.95437 40 20Z" fill="#0052B4"/>
<circle cx="20" cy="20" r="20" fill="#D9D9D9"/>
<path d="M34.1421 34.1421C32.285 35.9993 30.0802 37.4725 27.6537 38.4776C25.2272 39.4827 22.6264 40 20 40C17.3736 40 14.7728 39.4827 12.3463 38.4776C9.91982 37.4725 7.71503 35.9993 5.85786 34.1421C4.00069 32.285 2.5275 30.0802 1.52241 27.6537C0.517315 25.2272 -3.47021e-07 22.6264 0 20C3.47022e-07 17.3736 0.517316 14.7728 1.52241 12.3463C2.5275 9.91982 4.00069 7.71503 5.85787 5.85786L20 20L34.1421 34.1421Z" fill="#0226A6"/>
<path d="M12.0668 32.5652L12.3905 33.5617H13.4383L12.5906 34.1775L12.9145 35.1739L12.0668 34.5581L11.2191 35.1739L11.5429 34.1775L10.6953 33.5617H11.743L12.0668 32.5652Z" fill="white"/>
<path d="M9.39125 23L9.93102 24.6608H11.6771L10.2644 25.6871L10.804 27.3479L9.39125 26.3214L7.97859 27.3479L8.51828 25.6871L7.10547 24.6608H8.85172L9.39125 23Z" fill="white"/>
<path d="M9.39125 35.174L9.93086 36.8347H11.6771L10.2642 37.861L10.804 39.5218L9.39125 38.4953L7.97859 39.5218L8.51813 37.861L7.10547 36.8347H8.85148L9.39125 35.174Z" fill="white"/>
<path d="M14.4966 27.3479L15.0364 29.0087H16.7825L15.3698 30.0349L15.9094 31.6957L14.4966 30.6692L13.084 31.6957L13.6237 30.0349L12.2109 29.0087H13.9571L14.4966 27.3479Z" fill="white"/>
<path d="M4.28578 27.3479L4.82555 29.0087H6.57156L5.15891 30.0349L5.69844 31.6957L4.28578 30.6692L2.87305 31.6957L3.41281 30.0349L2 29.0087H3.74617L4.28578 27.3479Z" fill="white"/>
<path d="M5.85786 5.85786C7.71504 4.00069 9.91982 2.5275 12.3463 1.52241C14.7728 0.517315 17.3736 0 20 0C22.6264 0 25.2272 0.517315 27.6537 1.52241C30.0802 2.5275 32.285 4.00069 34.1421 5.85786C35.9993 7.71504 37.4725 9.91982 38.4776 12.3463C39.4827 14.7728 40 17.3736 40 20C40 22.6264 39.4827 25.2272 38.4776 27.6537C37.4725 30.0802 35.9993 32.285 34.1421 34.1421L20 20L5.85786 5.85786Z" fill="#42874A"/>
<circle cx="20" cy="20" r="6" fill="#F6C757"/>
<path d="M22.8221 16.3719C22.8222 16.2893 22.8419 16.2406 22.8881 16.2082C22.9815 16.1428 23.0605 16.1749 23.1088 16.2979C23.1539 16.413 23.2518 16.4736 23.3924 16.4736C23.5181 16.4736 23.6911 16.4089 23.7371 16.3447C23.7874 16.2744 23.8944 16.247 23.9338 16.2944C23.9507 16.3148 23.97 16.4818 23.9766 16.6654C23.9832 16.849 24.0129 17.0823 24.0425 17.1839C24.1099 17.4149 24.111 17.742 24.0452 17.9707C23.9568 18.278 23.9552 18.3175 24.0288 18.3814C24.0659 18.4136 24.1823 18.4713 24.2874 18.5096C24.4909 18.5838 24.5114 18.6144 24.4229 18.712C24.3922 18.7458 24.3525 18.8251 24.3346 18.8883C24.308 18.9826 24.2708 19.0196 24.1276 19.0944C23.5952 19.3724 23.253 19.6456 23.0562 19.9499C22.9801 20.0675 22.9179 20.1743 22.9179 20.1871C22.9179 20.2 22.86 20.2871 22.7894 20.3806C22.7022 20.4962 22.6383 20.5508 22.5904 20.5509C22.5515 20.551 22.4774 20.5768 22.4257 20.6082C22.3444 20.6575 22.3264 20.6954 22.2929 20.8867C22.2603 21.0733 22.2622 21.1471 22.3051 21.3563C22.3478 21.5647 22.3498 21.6412 22.3179 21.8341C22.2229 22.4081 22.1852 22.5366 22.0308 22.8123L21.915 23.0193L21.8988 23.615C21.8898 23.9469 21.8685 24.2247 21.8508 24.2422C21.8301 24.2627 21.6912 24.2632 21.4526 24.2438C21.0963 24.2149 21.0023 24.2005 20.6131 24.1154L20.4266 24.0745L20.4483 23.9451C20.4602 23.8739 20.483 23.7439 20.499 23.6563C20.6114 23.0378 20.6223 21.8337 20.5172 21.6379C20.3688 21.3612 20.1373 21.2506 19.5734 21.187C19.209 21.1459 19.0738 21.1044 18.9522 20.9963C18.9172 20.9651 18.8057 20.9214 18.7044 20.8991C18.5316 20.8612 18.5146 20.8629 18.427 20.9277C18.2057 21.0913 17.8969 20.9802 17.6672 20.6543L17.5942 20.5507L16.9195 20.5476C16.5484 20.5458 16.209 20.5338 16.1652 20.5208C16.0653 20.4911 15.9382 20.5513 15.8652 20.6627C15.7878 20.7808 15.7186 20.8663 15.6006 20.9897C15.4831 21.1124 15.4119 21.1085 15.2653 20.9712C15.1997 20.9098 15.1777 20.859 15.1777 20.7689C15.1777 20.6062 15.3049 20.4663 15.624 20.2778C15.762 20.1964 15.8981 20.104 15.9265 20.0727C15.9555 20.0407 15.9855 19.9345 15.9954 19.8294C16.0215 19.5485 16.0964 19.3132 16.1756 19.2624C16.2137 19.238 16.3046 19.2024 16.3778 19.1831C16.5 19.1509 16.5152 19.1349 16.5646 18.9861C16.6003 18.8786 16.6134 18.7637 16.6036 18.6449C16.5888 18.4673 16.5863 18.4635 16.3287 18.2257C16.0167 17.9379 15.9736 17.8375 16.061 17.6029C16.092 17.5198 16.1579 17.4216 16.2075 17.3847C16.2973 17.3179 16.2976 17.3179 16.3434 17.3814C16.3687 17.4165 16.4073 17.4666 16.4293 17.4929C16.4513 17.5192 16.5403 17.641 16.6271 17.7637C16.8064 18.017 17.2561 18.4785 17.3755 18.5318C17.4193 18.5514 17.4936 18.5855 17.5405 18.6077C17.5905 18.6312 17.663 18.6388 17.7157 18.6259C17.9333 18.5726 17.9979 18.5698 18.153 18.607C18.3381 18.6515 18.3885 18.683 18.4646 18.8022C18.5099 18.873 18.5483 18.8883 18.727 18.9066C18.9388 18.9283 19.3611 18.8914 19.653 18.8257C20.5021 18.6344 21.3128 18.149 21.8392 17.5166C21.9939 17.3306 21.9941 17.33 21.9941 17.0938C21.9941 16.8805 22.0015 16.8525 22.0693 16.8081C22.1651 16.7453 22.2328 16.7718 22.2824 16.8916C22.3434 17.0389 22.4291 16.9996 22.6379 16.7285C22.7854 16.5369 22.822 16.4663 22.8221 16.3719Z" fill="#42874A"/>
<path d="M33.8352 5.77625C33.3676 5.36454 33.009 5.07174 32.9342 5.04046C32.8228 4.99393 32.7685 4.98881 32.7013 5.01854C32.6306 5.04986 32.5802 5.14447 32.5829 5.24067C32.5842 5.28673 32.913 5.96647 32.9843 6.07047C32.9922 6.08202 33.0112 6.12926 33.0265 6.17545C33.0417 6.22164 33.0662 6.28777 33.0809 6.32242C33.1376 6.45668 33.1528 6.51645 33.1664 6.65834C33.1809 6.80887 33.1999 6.86432 33.256 6.92033C33.3542 7.01842 33.5953 7.44403 33.5953 7.51945C33.5953 7.5763 33.8088 7.95877 33.9584 8.16998C34.0402 8.28545 34.213 8.48524 34.3424 8.61396C34.5766 8.84688 34.5779 8.84873 34.6114 8.99603C34.6542 9.18417 34.6536 9.21362 34.6003 9.61864C34.576 9.80339 34.5501 10.0417 34.5428 10.1482C34.5248 10.4105 34.4885 10.4451 34.2461 10.4301C34.1917 10.4267 34.1453 10.4006 34.0677 10.3294C33.6861 9.98015 33.0778 9.61236 32.5455 9.40908C32.2931 9.3127 32.1943 9.28028 31.9367 9.20938C31.8847 9.19506 31.8186 9.17577 31.7897 9.16649C31.7608 9.15721 31.6664 9.13424 31.5797 9.11543C31.4931 9.09662 31.3892 9.07249 31.3488 9.06181C31.3084 9.05114 31.1667 9.01805 31.0339 8.9883C30.9011 8.95855 30.757 8.92523 30.7137 8.91425L30.5562 8.87457C30.5129 8.86372 30.4285 8.8401 30.3686 8.82208C30.3072 8.80363 30.1825 8.78933 30.0827 8.78933C29.9355 8.78933 29.8965 8.79664 29.8505 8.83285C29.7663 8.89907 29.7765 8.97946 29.8844 9.09947C30.0713 9.30736 30.4585 9.68431 30.7415 9.93398C31.1259 10.2729 31.7734 10.7138 32.2836 10.9837C32.3873 11.0385 32.524 11.1119 32.5875 11.1469C32.7205 11.22 33.1581 11.5047 33.1998 11.5453C33.2539 11.5979 33.7115 11.9722 33.7947 12.0319C33.922 12.1232 34.0919 12.3109 34.1401 12.4135C34.1913 12.5224 34.196 12.6816 34.1541 12.8939C34.1133 13.101 34.0706 13.2162 33.9324 13.4922C33.8659 13.625 33.7944 13.7856 33.7735 13.8491C33.6966 14.0827 33.5237 14.3294 33.3904 14.3957C33.3587 14.4115 33.3045 14.4447 33.2698 14.4695C33.1766 14.5362 32.2732 15.1088 32.2611 15.1088C32.2554 15.1088 32.2108 15.1342 32.1619 15.1651C31.9219 15.3174 31.0344 15.7597 30.9691 15.7597C30.9582 15.7597 30.9329 15.7685 30.9129 15.7794C30.8441 15.8165 30.3745 15.978 30.2361 16.0121L30.0681 16.0534C29.8048 16.1181 29.5372 16.168 29.1758 16.2197C29.0554 16.353 28.9583 16.6196 29.5327 16.6196C29.602 16.6065 29.7012 16.588 29.7532 16.5785C29.9692 16.5391 30.3445 16.439 30.593 16.3547C30.734 16.3068 30.9756 16.2206 31.0234 16.201C31.2297 16.1167 31.4679 16.0019 31.5902 15.928C31.7931 15.8054 31.967 15.7434 32.3253 15.6657C32.6901 15.5866 32.8533 15.5185 33.1883 15.3054C33.2474 15.2679 33.3419 15.2114 33.3983 15.18C33.4942 15.1266 33.5309 15.106 33.7055 15.0073C34.0955 14.7869 34.3029 14.676 34.5715 14.544C35.0512 14.3085 35.3727 14.1861 36.0097 13.9967C36.0963 13.9709 36.1861 13.9427 36.2092 13.934C36.2323 13.9253 36.4023 13.8682 36.5871 13.8071C36.9315 13.6932 37.1885 13.5858 37.2913 13.5126C37.3232 13.4898 37.3769 13.4712 37.4107 13.4712C37.5367 13.4712 37.8703 13.4017 37.9757 13.3535C38.0952 13.2989 38.2051 13.1826 38.2256 13.0892C38.2386 13.0297 38.3241 12.9673 38.3924 12.9673C38.4568 12.9673 38.5905 12.8828 38.657 12.8002C38.6974 12.7499 38.7542 12.7075 38.7998 12.6936C39.0433 12.6193 39.0608 12.5309 38.8681 12.3483C38.762 12.2478 38.3964 12.0193 38.2877 11.9854C38.0277 11.9046 37.8297 11.8974 37.6534 11.9624C37.5865 11.987 37.5224 12.014 37.5108 12.0223C37.4422 12.0719 37.343 12.0843 37.1987 12.0614C37.1163 12.0483 37.04 12.0295 37.029 12.0196C37.0181 12.0097 36.9865 12.0016 36.9589 12.0016C36.8622 12.0016 36.7215 11.8701 36.6236 11.6882C36.5994 11.6431 36.528 11.4388 36.4727 11.2562C36.4183 11.0763 36.3216 10.4738 36.2722 10.007C36.2545 9.83961 36.2309 9.62703 36.2198 9.53466C36.2086 9.44228 36.1888 9.27222 36.1757 9.15675C36.154 8.9654 36.0954 8.59072 36.0542 8.37993C36.0451 8.33374 36.0156 8.24399 35.9885 8.18048C35.9412 8.06973 35.7302 7.73276 35.6281 7.60498C35.5573 7.51632 35.3517 7.269 35.3386 7.25669C35.3324 7.25092 35.2906 7.20368 35.2457 7.15172C35.0035 6.8715 34.2999 6.1854 33.8352 5.77625Z" fill="#F6C757"/>
</g>
</svg>
