<svg width="40" height="40" viewBox="0 0 40 40" fill="none" xmlns="http://www.w3.org/2000/svg">
<path d="M39.5 20C39.5 30.7696 30.7696 39.5 20 39.5C9.23045 39.5 0.5 30.7696 0.5 20C0.5 9.23045 9.23045 0.5 20 0.5C30.7696 0.5 39.5 9.23045 39.5 20Z" fill="white" stroke="#CCCCCC"/>
<path d="M29 27C28.5154 27 27.9154 27 26.9231 27C26.9231 30.0794 23.8234 32.5756 20 32.5756C16.1764 32.5756 13.0769 30.0794 13.0769 27C12.4076 27 11.6691 27 11 27C11 30.317 13.7664 33.1135 17.5425 33.9748C17.1285 34.6082 17.1916 35.4056 17.783 36C18.5598 35.4986 19.3639 34.9796 20.0462 34.5394C20.7284 34.9796 21.5326 35.4987 22.3093 36C22.9065 35.3997 22.9653 34.5922 22.5376 33.9557C26.2724 33.0733 29 30.2934 29 27Z" fill="#0A6A30"/>
<path d="M6 17.3774C6 17.3774 6 24.7898 13.4124 24.7898L14.8948 26.2722H17.8598C17.8598 26.2722 19.3422 21.8248 22.3072 21.8248C22.3072 21.8248 22.3072 18.8598 25.2722 18.8598C28.2372 18.8598 29.7196 18.8598 29.7196 18.8598C29.7196 18.8598 28.2372 12.9298 35.6495 8.48242L32.6846 7C32.6846 7 22.3072 14.4124 14.8948 12.93V15.8949H11.9298L10.4474 14.4125L6 17.3774Z" fill="#FF6C2D"/>
</svg>
