<svg width="40" height="40" viewBox="0 0 40 40" fill="none" xmlns="http://www.w3.org/2000/svg">
<g clip-path="url(#clip0_6041_12594)">
<path d="M0 20C0 8.95431 8.95431 0 20 0C31.0457 0 40 8.95431 40 20C40 31.0457 31.0457 40 20 40C8.95431 40 0 31.0457 0 20Z" fill="#249F58"/>
<path fill-rule="evenodd" clip-rule="evenodd" d="M0 0H56V21.3333H0V0Z" fill="#3ECBF8"/>
<path fill-rule="evenodd" clip-rule="evenodd" d="M0 0L32 20L0 40V0Z" fill="white"/>
<path fill-rule="evenodd" clip-rule="evenodd" d="M11.9995 23.3334L8.07954 25.3947L8.8262 21.0294L5.6582 17.936L10.0395 17.304L11.9995 13.3334L13.9595 17.3067L18.3409 17.9387L15.1675 21.032L15.9142 25.3947" fill="#F93939"/>
<path d="M39.5 20C39.5 30.7696 30.7696 39.5 20 39.5C9.23045 39.5 0.5 30.7696 0.5 20C0.5 9.23045 9.23045 0.5 20 0.5C30.7696 0.5 39.5 9.23045 39.5 20Z" stroke="#CCCCCC"/>
</g>
<defs>
<clipPath id="clip0_6041_12594">
<path d="M0 20C0 8.95431 8.95431 0 20 0C31.0457 0 40 8.95431 40 20C40 31.0457 31.0457 40 20 40C8.95431 40 0 31.0457 0 20Z" fill="white"/>
</clipPath>
</defs>
</svg>
