<svg width="40" height="40" viewBox="0 0 40 40" fill="none" xmlns="http://www.w3.org/2000/svg">
<g clip-path="url(#clip0_6041_12599)">
<path d="M20 40C31.0457 40 40 31.0457 40 20C40 8.9543 31.0457 0 20 0C8.9543 0 0 8.9543 0 20C0 31.0457 8.9543 40 20 40Z" fill="white"/>
<path d="M23.9121 39.6161C31.8186 38.0477 38.0468 31.8194 39.6152 23.913H23.9121V39.6161Z" fill="#249F58"/>
<path d="M0.382812 23.913C1.95117 31.8194 8.17945 38.0477 16.0859 39.6161V23.913H0.382812Z" fill="#249F58"/>
<path d="M39.6152 16.0869C38.0468 8.18051 31.8186 1.95223 23.9121 0.383789V16.0869H39.6152Z" fill="#249F58"/>
<path d="M16.0859 0.383789C8.17945 1.95223 1.95117 8.18051 0.382812 16.0869H16.0859V0.383789Z" fill="#249F58"/>
<path d="M18.6946 23.913H16.0859V39.6161C16.9373 39.7849 17.8081 39.8993 18.6946 39.9564V23.913Z" fill="#FFDA2C"/>
<path d="M18.6946 16.0869V0.043457C17.8081 0.100488 16.9372 0.214941 16.0859 0.38377V16.0869H18.6946Z" fill="#FFDA2C"/>
<path d="M21.3041 0.0435156C20.8727 0.015625 20.438 0 19.9997 0C19.5613 0 19.1267 0.015625 18.6953 0.0435156V16.087H21.304V0.0435156H21.3041Z" fill="black"/>
<path d="M18.6953 39.9565C19.1267 39.9844 19.5613 40 19.9997 40C20.438 40 20.8727 39.9844 21.3041 39.9565V23.9131H18.6954V39.9565H18.6953Z" fill="black"/>
<path d="M16.0864 18.6956V16.0869H0.383281C0.214375 16.9383 0.1 17.8091 0.0429688 18.6956H16.0864Z" fill="#FFDA2C"/>
<path d="M23.9121 18.6956H39.9556C39.8986 17.8091 39.7841 16.9383 39.6153 16.0869H23.9122V18.6956H23.9121Z" fill="#FFDA2C"/>
<path d="M23.9141 21.3044H39.9576C39.9854 20.8731 40.001 20.4384 40.001 20.0001C40.001 19.5617 39.9854 19.127 39.9575 18.6957H23.9141V21.3044Z" fill="black"/>
<path d="M0.0435156 18.6957C0.0157031 19.127 0 19.5617 0 20.0001C0 20.4384 0.0157031 20.8731 0.0435156 21.3044H16.087V18.6958H0.0435156V18.6957Z" fill="black"/>
<path d="M19.9988 29.5653C25.2816 29.5653 29.5641 25.2828 29.5641 20C29.5641 14.7173 25.2816 10.4348 19.9988 10.4348C14.7161 10.4348 10.4336 14.7173 10.4336 20C10.4336 25.2828 14.7161 29.5653 19.9988 29.5653Z" fill="#F93939"/>
<path d="M22.1798 21.0672C21.4684 19.6443 20.5436 18.2021 20.5436 18.2021C20.5436 18.2021 20.5666 17.5455 20.5666 17.1542C20.5666 16.5648 20.0887 16.087 19.4994 16.087C18.941 16.087 18.4835 16.516 18.4369 17.0622C17.9978 17.0909 17.6504 17.4551 17.6504 17.9013C17.6504 18.2258 17.8342 18.507 18.1033 18.6475C18.237 18.3347 18.4989 18.0905 18.8228 17.9791C18.8756 18.0223 18.9323 18.0609 18.9929 18.0937L19.1296 18.1591C19.1296 18.1591 18.6227 19.5881 18.6227 20.3558C18.6227 22.5139 20.0456 23.1795 20.0456 23.1795V23.2017L19.3341 23.9131H20.757V22.4902L21.4685 23.2016C21.4748 23.1883 22.8162 22.3399 22.1798 21.0672Z" fill="#249F58"/>
<path d="M20.0003 12.174L20.3241 13.1704H21.3717L20.5241 13.7862L20.848 14.7826L20.0003 14.1668L19.1527 14.7826L19.4765 13.7862L18.6289 13.1704H19.6766L20.0003 12.174Z" fill="#249F58"/>
<path d="M15.3989 13.6687L16.2464 14.2845L17.0941 13.6686L16.7703 14.6651L17.618 15.2808L16.5702 15.2809L16.2465 16.2773L15.9227 15.2809L14.875 15.2808L15.7226 14.665L15.3989 13.6687Z" fill="#249F58"/>
<path d="M12.5566 17.5817H13.6042L13.928 16.5853L14.2518 17.5817L15.2995 17.5817L14.452 18.1976L14.7758 19.194L13.928 18.5781L13.0805 19.1939L13.4041 18.1975L12.5566 17.5817Z" fill="#249F58"/>
<path d="M12.5566 22.4185L13.4041 21.8028L13.0804 20.8063L13.928 21.4221L14.7757 20.8063L14.452 21.8027L15.2996 22.4185L14.2518 22.4186L13.928 23.4149L13.6042 22.4185H12.5566Z" fill="#249F58"/>
<path d="M15.399 26.3315L15.7227 25.3352L14.875 24.7194H15.9227L16.2466 23.7229L16.5703 24.7193H17.618L16.7704 25.3352L17.0941 26.3316L16.2465 25.7157L15.399 26.3315Z" fill="#249F58"/>
<path d="M20.0003 27.8261L19.6766 26.8298H18.6289L19.4765 26.2139L19.1527 25.2175L20.0003 25.8332L20.8479 25.2174L20.5241 26.2139L21.3717 26.8298L20.3241 26.8298L20.0003 27.8261Z" fill="#249F58"/>
<path d="M24.5999 26.3315L23.7524 25.7157L22.9048 26.3317L23.2285 25.3352L22.3809 24.7194L23.4286 24.7193L23.7523 23.7229L24.0762 24.7194H25.1238L24.2762 25.3352L24.5999 26.3315Z" fill="#249F58"/>
<path d="M27.4422 22.4184H26.3946L26.0708 23.4149L25.747 22.4185H24.6992L25.5469 21.8026L25.223 20.8063L26.0708 21.4221L26.9183 20.8063L26.5947 21.8027L27.4422 22.4184Z" fill="#249F58"/>
<path d="M27.4422 17.5817L26.5947 18.1974L26.9184 19.1938L26.0708 18.5781L25.2231 19.194L25.5469 18.1975L24.6992 17.5817L25.747 17.5816L26.0707 16.5853L26.3946 17.5817H27.4422Z" fill="#249F58"/>
<path d="M24.5999 13.6686L24.2762 14.6649L25.1238 15.2808H24.0762L23.7524 16.2773L23.4286 15.2808L22.3809 15.2809L23.2285 14.6649L22.9048 13.6687L23.7524 14.2844L24.5999 13.6686Z" fill="#249F58"/>
<circle cx="20" cy="20" r="19.5" stroke="#CCCCCC"/>
</g>
<defs>
<clipPath id="clip0_6041_12599">
<rect width="40" height="40" fill="white"/>
</clipPath>
</defs>
</svg>
