<svg width="40" height="40" viewBox="0 0 40 40" fill="none" xmlns="http://www.w3.org/2000/svg">
<path d="M20 40C31.0457 40 40 31.0457 40 20C40 8.9543 31.0457 0 20 0C8.9543 0 0 8.9543 0 20C0 31.0457 8.9543 40 20 40Z" fill="white"/>
<path d="M0.689453 25.2174C2.53617 32.0692 7.93125 37.4644 14.7831 39.3111V25.2174H0.689453Z" fill="#F93939"/>
<path d="M14.783 0.688965C7.93125 2.53561 2.53609 7.93076 0.689453 14.7826H14.7831V0.688965H14.783Z" fill="#1A47B8"/>
<path d="M39.3104 14.7826C37.4638 7.93076 32.0686 2.53561 25.2168 0.688965V14.7826H39.3104V14.7826Z" fill="#F93939"/>
<path d="M25.2168 39.311C32.0686 37.4642 37.4638 32.0692 39.3105 25.2173H25.2168V39.311Z" fill="#1A47B8"/>
<path d="M25.218 20C25.218 22.8816 22.8822 25.2174 20.0006 25.2174C17.1191 25.2174 14.7832 22.8816 14.7832 20C14.7832 17.1185 20.0006 14.7826 20.0006 14.7826C20.0006 14.7826 25.218 17.1185 25.218 20Z" fill="#249F58"/>
<path d="M14.7832 20C14.7832 17.1185 17.1191 14.7826 20.0006 14.7826C22.8822 14.7826 25.218 17.1185 25.218 20" fill="#1A47B8"/>
<path d="M17.0664 17.3914V20.6522C17.0664 22.2731 18.3803 23.587 20.0012 23.587C21.622 23.587 22.9359 22.2731 22.9359 20.6522V17.3914H17.0664Z" fill="#F93939"/>
<circle cx="20" cy="20" r="19.5" stroke="#CCCCCC"/>
</svg>
