<svg width="40" height="40" viewBox="0 0 40 40" fill="none" xmlns="http://www.w3.org/2000/svg">
<g clip-path="url(#clip0_6041_12044)">
<path d="M0 20C0 8.95431 8.95431 0 20 0C31.0457 0 40 8.95431 40 20C40 31.0457 31.0457 40 20 40C8.95431 40 0 31.0457 0 20Z" fill="white"/>
<path d="M42.6667 0H-2.66667C-5.61219 0 -8 2.38781 -8 5.33333V34.6667C-8 37.6122 -5.61219 40 -2.66667 40H42.6667C45.6122 40 48 37.6122 48 34.6667V5.33333C48 2.38781 45.6122 0 42.6667 0Z" fill="white"/>
<path fill-rule="evenodd" clip-rule="evenodd" d="M-8 0H18.6667V40H-8V0Z" fill="#249F58"/>
<path fill-rule="evenodd" clip-rule="evenodd" d="M26.805 27.368C24.613 30.1867 21.1837 32 17.333 32C10.7063 32 5.33301 26.6267 5.33301 20C5.33301 13.3733 10.7063 8 17.333 8C21.1837 8 24.613 9.81333 26.805 12.632C25.1117 11.4 22.981 10.6667 20.6663 10.6667C15.1463 10.6667 10.6663 14.8453 10.6663 20C10.6663 25.1547 15.1463 29.3333 20.6663 29.3333C22.981 29.3333 25.1117 28.6 26.805 27.368Z" fill="#F93939"/>
<path fill-rule="evenodd" clip-rule="evenodd" d="M26.667 20L29.3337 18.6667L30.667 16L32.0003 18.6667L34.667 20L32.0003 21.3333L30.667 24L29.3337 21.3333L26.667 20Z" fill="#F93939"/>
</g>
<path d="M20 39C9.50659 39 1 30.4934 1 20H-1C-1 31.598 8.40202 41 20 41V39ZM39 20C39 30.4934 30.4934 39 20 39V41C31.598 41 41 31.598 41 20H39ZM20 1C30.4934 1 39 9.50659 39 20H41C41 8.40202 31.598 -1 20 -1V1ZM20 -1C8.40202 -1 -1 8.40202 -1 20H1C1 9.50659 9.50659 1 20 1V-1Z" fill="#CCCCCC"/>
<defs>
<clipPath id="clip0_6041_12044">
<path d="M0 20C0 8.95431 8.95431 0 20 0C31.0457 0 40 8.95431 40 20C40 31.0457 31.0457 40 20 40C8.95431 40 0 31.0457 0 20Z" fill="white"/>
</clipPath>
</defs>
</svg>
