<svg width="40" height="40" viewBox="0 0 40 40" fill="none" xmlns="http://www.w3.org/2000/svg">
<g clip-path="url(#clip0_6041_12646)">
<path d="M42.6667 0H-2.66667C-5.61219 0 -8 2.38781 -8 5.33333V34.6667C-8 37.6122 -5.61219 40 -2.66667 40H42.6667C45.6122 40 48 37.6122 48 34.6667V5.33333C48 2.38781 45.6122 0 42.6667 0Z" fill="#1A47B8"/>
<path fill-rule="evenodd" clip-rule="evenodd" d="M-8 29.3334H48V40H-8V29.3334Z" fill="#F93939"/>
<path fill-rule="evenodd" clip-rule="evenodd" d="M-8 0H48V21.3333H-8V0Z" fill="#FFDA2C"/>
<path fill-rule="evenodd" clip-rule="evenodd" d="M8 10.6666H16L20 13.3333L24 10.6666H32L24 13.3333L21.3333 16H18.6667L16 13.3333L8 10.6666Z" fill="#151515"/>
<path d="M20 26.6667C22.2091 26.6667 24 24.2789 24 21.3333C24 18.3878 22.2091 16 20 16C17.7909 16 16 18.3878 16 21.3333C16 24.2789 17.7909 26.6667 20 26.6667Z" fill="#3ECBF8"/>
<path fill-rule="evenodd" clip-rule="evenodd" d="M13.3327 18.6666V24L18.666 26.6666H21.3327L26.666 24V18.6666L29.3327 24L26.666 26.6666L21.3327 29.3333H18.666L13.3327 26.6666L10.666 24L13.3327 18.6666Z" fill="#FFDA2C"/>
</g>
<defs>
<clipPath id="clip0_6041_12646">
<path d="M0 20C0 8.95431 8.95431 0 20 0C31.0457 0 40 8.95431 40 20C40 31.0457 31.0457 40 20 40C8.95431 40 0 31.0457 0 20Z" fill="white"/>
</clipPath>
</defs>
</svg>
