<svg width="40" height="40" viewBox="0 0 40 40" fill="none" xmlns="http://www.w3.org/2000/svg">
<g clip-path="url(#clip0_6041_12654)">
<path d="M20 40C31.0457 40 40 31.0457 40 20C40 8.9543 31.0457 0 20 0C8.9543 0 0 8.9543 0 20C0 31.0457 8.9543 40 20 40Z" fill="white"/>
<path d="M20.0002 0C11.4009 0 4.07 5.4275 1.24414 13.0435H38.7562C35.9303 5.4275 28.5995 0 20.0002 0Z" fill="#F93939"/>
<path d="M20.0002 40.0001C28.5995 40.0001 35.9303 34.5726 38.7562 26.9565H1.24414C4.07 34.5726 11.4009 40.0001 20.0002 40.0001Z" fill="black"/>
<path d="M26.9561 17.8261H21.7387C21.7387 16.8656 20.96 16.0869 19.9995 16.0869C19.0391 16.0869 18.2604 16.8656 18.2604 17.8261H13.043C13.043 18.7866 13.8796 19.5652 14.8401 19.5652H14.7821C14.7821 20.5257 15.5607 21.3043 16.5213 21.3043C16.5213 22.2649 17.2998 23.0435 18.2604 23.0435H21.7387C22.6992 23.0435 23.4778 22.2649 23.4778 21.3043C24.4384 21.3043 25.217 20.5257 25.217 19.5652H25.1591C26.1195 19.5652 26.9561 18.7866 26.9561 17.8261Z" fill="#D4AF2C"/>
<circle cx="20" cy="20" r="19.5" stroke="#CCCCCC"/>
</g>
<defs>
<clipPath id="clip0_6041_12654">
<rect width="40" height="40" fill="white"/>
</clipPath>
</defs>
</svg>
