<svg width="40" height="40" viewBox="0 0 40 40" fill="none" xmlns="http://www.w3.org/2000/svg">
<g clip-path="url(#clip0_6041_12675)">
<path d="M0 20C0 8.95431 8.95431 0 20 0C31.0457 0 40 8.95431 40 20C40 31.0457 31.0457 40 20 40C8.95431 40 0 31.0457 0 20Z" fill="#3A99FF"/>
<path d="M50.6667 0H5.33333C2.38781 0 0 2.38781 0 5.33333V34.6667C0 37.6122 2.38781 40 5.33333 40H50.6667C53.6122 40 56 37.6122 56 34.6667V5.33333C56 2.38781 53.6122 0 50.6667 0Z" fill="#3A99FF"/>
<path fill-rule="evenodd" clip-rule="evenodd" d="M0 0H56V21.3333H0V0Z" fill="#249F58"/>
<path fill-rule="evenodd" clip-rule="evenodd" d="M0 0L56 20L0 40V0Z" fill="#F93939"/>
<path fill-rule="evenodd" clip-rule="evenodd" d="M24 20C24 16.32 21.0133 13.3333 17.3333 12C13.6533 13.3333 10.6667 16.32 10.6667 20C10.6667 23.2266 12.96 25.9146 16 26.5333V17.328C16 16.5946 16.6187 16 17.3333 16C18.0693 16 18.6667 16.5733 18.6667 17.328V26.5333C21.7067 25.9146 24 23.2266 24 20ZM26.6667 20C26.6667 14.8453 22.488 10.6666 17.3333 12C12.1787 10.6666 8 14.8453 8 20C8 25.1546 12.1787 29.3333 17.3333 29.3333C22.488 29.3333 26.6667 25.1546 26.6667 20Z" fill="#FFDA2C"/>
</g>
<defs>
<clipPath id="clip0_6041_12675">
<path d="M0 20C0 8.95431 8.95431 0 20 0C31.0457 0 40 8.95431 40 20C40 31.0457 31.0457 40 20 40C8.95431 40 0 31.0457 0 20Z" fill="white"/>
</clipPath>
</defs>
</svg>
