<svg width="40" height="40" viewBox="0 0 40 40" fill="none" xmlns="http://www.w3.org/2000/svg">
<g clip-path="url(#clip0_6041_12686)">
<path d="M42.6667 0H-2.66667C-5.61219 0 -8 2.38781 -8 5.33333V34.6667C-8 37.6122 -5.61219 40 -2.66667 40H42.6667C45.6122 40 48 37.6122 48 34.6667V5.33333C48 2.38781 45.6122 0 42.6667 0Z" fill="#FFDA2C"/>
<path fill-rule="evenodd" clip-rule="evenodd" d="M-8 26.6666H48V40H-8V26.6666Z" fill="#F93939"/>
<path fill-rule="evenodd" clip-rule="evenodd" d="M-8 0H48V13.3333H-8V0Z" fill="#249F58"/>
<path d="M20 32C26.6274 32 32 26.6274 32 20C32 13.3726 26.6274 8 20 8C13.3726 8 8 13.3726 8 20C8 26.6274 13.3726 32 20 32Z" fill="#1A47B8"/>
<path fill-rule="evenodd" clip-rule="evenodd" d="M19.9947 23.3334L16.0747 25.3947L16.8213 21.0294L13.6533 17.936L18.0347 17.304L19.9947 13.3307L21.952 17.304L26.3333 17.936L23.16 21.0294L23.912 25.392" fill="#FFDA2C"/>
</g>
<defs>
<clipPath id="clip0_6041_12686">
<path d="M0 20C0 8.95431 8.95431 0 20 0C31.0457 0 40 8.95431 40 20C40 31.0457 31.0457 40 20 40C8.95431 40 0 31.0457 0 20Z" fill="white"/>
</clipPath>
</defs>
</svg>
