<svg width="40" height="40" viewBox="0 0 40 40" fill="none" xmlns="http://www.w3.org/2000/svg">
<path d="M40 20C40 31.0456 31.0456 40 20 40C8.95437 40 0 31.0456 0 20C0 20.0048 20 0.0021875 20 0C31.0456 0 40 8.95437 40 20Z" fill="#3ECBF8"/>
<path d="M19.9995 9.56519V16.3107L13.043 9.56519H19.9995Z" fill="#0052B4"/>
<path d="M10.434 19.9999H16.3099L10.434 12.1738L9.56445 18.2608L10.434 19.9999Z" fill="#0052B4"/>
<path d="M19.9473 20H20.0008C20.0008 19.9821 20.0008 19.9646 20.0008 19.9465C19.983 19.9644 19.9652 19.9822 19.9473 20Z" fill="#F0F0F0"/>
<path d="M20 10.4348C20 6.91563 20 4.60977 20 0H19.9966C8.9525 0.001875 0 8.95539 0 20H10.4348V14.1241L16.3107 20H19.9466C19.9645 19.9822 19.9823 19.9644 20.0002 19.9465C20.0002 18.5991 20.0002 17.3968 20.0002 16.3108L14.1241 10.4348H20Z" fill="white"/>
<path d="M10.1191 2.60864C6.99102 4.38981 4.39055 6.99028 2.60938 10.1183V20H7.8268V7.82622V7.82607H20.0007C20.0007 6.18052 20.0007 4.61286 20.0007 2.60864H10.1191Z" fill="#D80027"/>
<path d="M20.0007 17.5405L12.895 10.4348H10.4355V10.435L20.0005 20H20.0007C20.0007 20 20.0007 18.3041 20.0007 17.5405Z" fill="#D80027"/>
<path d="M22.6094 13.0435V19.9999C22.6094 24.6592 28.6963 26.0869 28.6963 26.0869C28.6963 26.0869 34.7833 24.6592 34.7833 19.9999V13.0435L28.6963 11.3043L22.6094 13.0435Z" fill="white"/>
<path d="M34.7833 13.0435V10.4348H22.6094V13.0435H27.8266V18.261H22.6094V20V20.0001L27.8266 20.0002V25.8203C28.3515 26.0059 28.6963 26.087 28.6963 26.087C28.6963 26.087 29.041 26.0061 29.5658 25.8203V20.0001H34.7833V20V18.2609H29.5658V13.0434H34.7833V13.0435Z" fill="#F93939"/>
<circle cx="20" cy="20" r="19.5" stroke="#CCCCCC"/>
</svg>
