<svg width="40" height="40" viewBox="0 0 40 40" fill="none" xmlns="http://www.w3.org/2000/svg">
<path d="M40 20C40 31.0456 31.0456 40 20 40C8.95437 40 0 31.0456 0 20C0 20.0048 20 0.0021875 20 0C31.0456 0 40 8.95437 40 20Z" fill="#0052B4"/>
<path d="M19.9463 20H19.9998C19.9998 19.9821 19.9998 19.9646 19.9998 19.9465C19.982 19.9644 19.9642 19.9822 19.9463 20Z" fill="white"/>
<path d="M20 10.4348C20 6.91563 20 4.60977 20 0H19.9966C8.9525 0.001875 0 8.95539 0 20H10.4348V14.1241L16.3107 20H19.9466L20.0001 19.9465C20.0001 18.5991 20.0001 17.3968 20.0001 16.3108L14.1241 10.4348H20Z" fill="white"/>
<path d="M10.1181 2.60864C6.99004 4.38981 4.38957 6.99028 2.6084 10.1183V20H7.82582V7.82622V7.82607H19.9997C19.9997 6.18052 19.9997 4.61286 19.9997 2.60864H10.1181Z" fill="#D80027"/>
<path d="M19.9997 17.5405L12.894 10.4348H10.4346V10.435L19.9996 20H19.9997C19.9997 20 19.9997 18.3041 19.9997 17.5405Z" fill="#D80027"/>
<path d="M32.1736 23.4783V24.3478H25.2171V23.4783H22.6084V26.9565H24.3475V27.8261H33.0432V26.9565H34.7823V23.4783H32.1736Z" fill="#FFDA2C"/>
<path d="M22.6084 10.4348V20C22.6084 24.6593 28.6954 26.087 28.6954 26.087C28.6954 26.087 34.7823 24.6593 34.7823 20V10.4348H22.6084Z" fill="#338AF3"/>
<path d="M28.695 17.5695C27.1733 17.5695 27.1733 18.9608 25.6517 18.9608C24.13 18.9608 24.13 17.5695 22.6084 17.5695V20.0042C24.13 20.0042 24.13 21.3956 25.6517 21.3956C27.1733 21.3956 27.1733 20.0042 28.695 20.0042C30.2168 20.0042 30.2168 21.3956 31.7386 21.3956C33.2605 21.3956 33.2604 20.0042 34.7823 20.0042V17.5695C33.2605 17.5695 33.2605 18.9608 31.7386 18.9608C30.2168 18.9608 30.2168 17.5695 28.695 17.5695Z" fill="white"/>
<path d="M28.695 12.6957C27.1733 12.6957 27.1733 14.087 25.6517 14.087C24.13 14.087 24.13 12.6957 22.6084 12.6957V15.1304C24.13 15.1304 24.13 16.5218 25.6517 16.5218C27.1733 16.5218 27.1733 15.1304 28.695 15.1304C30.2168 15.1304 30.2168 16.5218 31.7386 16.5218C33.2605 16.5218 33.2604 15.1304 34.7823 15.1304V12.6957C33.2605 12.6957 33.2605 14.087 31.7386 14.087C30.2168 14.087 30.2168 12.6957 28.695 12.6957Z" fill="white"/>
<circle cx="20" cy="20" r="19.5" stroke="#CCCCCC"/>
</svg>
