<svg width="40" height="40" viewBox="0 0 40 40" fill="none" xmlns="http://www.w3.org/2000/svg">
<path d="M20 40C31.0457 40 40 31.0457 40 20C40 8.9543 31.0457 0 20 0C8.9543 0 0 8.9543 0 20C0 31.0457 8.9543 40 20 40Z" fill="#3A99FF"/>
<path d="M20 8.69556L20.8633 11.3527H23.6574L21.3971 12.995L22.2604 15.6521L20 14.0099L17.7396 15.6521L18.6032 12.995L16.3428 11.3527H19.1368L20 8.69556Z" fill="white"/>
<path d="M8.69531 20L11.3525 19.1366V16.3425L12.9948 18.603L15.6519 17.7396L14.0097 20L15.6519 22.2602L12.9948 21.3967L11.3525 23.6571V20.8632L8.69531 20Z" fill="white"/>
<path d="M20.0002 31.3043L19.1368 28.6472H16.3428L18.6032 27.0049L17.7399 24.3478L20.0002 25.99L22.2604 24.3478L21.397 27.0049L23.6574 28.6472H20.8635L20.0002 31.3043Z" fill="white"/>
<path d="M31.3042 19.9998L28.647 20.8632V23.6571L27.0048 21.3967L24.3477 22.2601L25.9898 19.9998L24.3477 17.7396L27.0048 18.603L28.647 16.3425V19.1365L31.3042 19.9998Z" fill="white"/>
</svg>
