<svg width="40" height="40" viewBox="0 0 40 40" fill="none" xmlns="http://www.w3.org/2000/svg">
<path d="M20 40C31.0457 40 40 31.0457 40 20C40 8.9543 31.0457 0 20 0C8.9543 0 0 8.9543 0 20C0 31.0457 8.9543 40 20 40Z" fill="white"/>
<path d="M39.1308 20L39.8307 17.3913C39.7145 16.5021 39.5401 15.6312 39.3114 14.7826H18.2612V0.0760498C17.3737 0.152456 16.503 0.287534 15.6525 0.476128L12.1742 2.60863L10.4351 2.43308C9.51984 2.93246 8.64789 3.50121 7.82641 4.13238V14.7825H0.689297C0.460625 15.6311 0.28625 16.5021 0.17 17.3912L0.869844 20L0.169922 22.6086C0.286172 23.4978 0.460547 24.3687 0.689219 25.2173H7.82633V35.8675C8.64781 36.4987 9.51984 37.0674 10.435 37.5668L13.0437 37.3912L15.6523 39.5237C16.5029 39.7122 17.3736 39.8473 18.261 39.9238V25.2174H39.3112C39.5398 24.3688 39.7142 23.4978 39.8305 22.6087L39.1308 20Z" fill="#0052B4"/>
<path d="M39.8307 17.3913H15.6523H15.6522V0.475342C13.8039 0.885186 12.0516 1.54948 10.4348 2.43175V17.3912H0.169297C0.058125 18.2452 0 19.1158 0 20C0 20.8841 0.058125 21.7547 0.169297 22.6086H10.4347H10.4348V37.5681C12.0516 38.4503 13.8039 39.1147 15.6522 39.5245V22.6089V22.6087H39.8307C39.9419 21.7547 40 20.8841 40 20C40 19.1158 39.9419 18.2452 39.8307 17.3913Z" fill="#F93939"/>
<path d="M39.5 20C39.5 30.7696 30.7696 39.5 20 39.5C9.23045 39.5 0.5 30.7696 0.5 20C0.5 9.23045 9.23045 0.5 20 0.5C30.7696 0.5 39.5 9.23045 39.5 20Z" stroke="#CCCCCC"/>
</svg>
