<svg width="40" height="40" viewBox="0 0 40 40" fill="none" xmlns="http://www.w3.org/2000/svg">
<path d="M0 20C0 8.95431 8.95431 0 20 0C31.0457 0 40 8.95431 40 20C40 31.0457 31.0457 40 20 40C8.95431 40 0 31.0457 0 20Z" fill="#F93939"/>
<path fill-rule="evenodd" clip-rule="evenodd" d="M0 8H40V32H0V8Z" fill="#FFDA2C"/>
<path fill-rule="evenodd" clip-rule="evenodd" d="M0 8L20 20L0 32V8Z" fill="#249F58"/>
<path fill-rule="evenodd" clip-rule="evenodd" d="M2.66602 18.6666H5.33268V21.3333H2.66602V18.6666Z" fill="#FFDA2C"/>
<path fill-rule="evenodd" clip-rule="evenodd" d="M40 8L20 20L40 32V8Z" fill="#249F58"/>
<path fill-rule="evenodd" clip-rule="evenodd" d="M10.666 2.66663H13.3327V5.33329H10.666V2.66663ZM18.666 2.66663H21.3327V5.33329H18.666V2.66663ZM26.666 2.66663H29.3327V5.33329H26.666V2.66663ZM10.666 34.6666H13.3327V37.3333H10.666V34.6666ZM18.666 34.6666H21.3327V37.3333H18.666V34.6666ZM26.666 34.6666H29.3327V37.3333H26.666V34.6666Z" fill="#FFDA2C"/>
<path d="M20.0007 26.6667C23.6825 26.6667 26.6673 23.6819 26.6673 20C26.6673 16.3181 23.6825 13.3334 20.0007 13.3334C16.3188 13.3334 13.334 16.3181 13.334 20C13.334 23.6819 16.3188 26.6667 20.0007 26.6667Z" fill="#F93939"/>
<path fill-rule="evenodd" clip-rule="evenodd" d="M19.9995 23.3334L16.0795 25.3947L16.8262 21.0294L13.6582 17.936L18.0395 17.304L19.9995 13.3334L21.9595 17.3067L26.3409 17.9387L23.1675 21.032L23.9142 25.3947" fill="#FFDA2C"/>
</svg>
