<svg width="40" height="40" viewBox="0 0 40 40" fill="none" xmlns="http://www.w3.org/2000/svg">
<g clip-path="url(#clip0_6041_12758)">
<path d="M0 20C0 8.95431 8.95431 0 20 0C31.0457 0 40 8.95431 40 20C40 31.0457 31.0457 40 20 40C8.95431 40 0 31.0457 0 20Z" fill="white"/>
<path fill-rule="evenodd" clip-rule="evenodd" d="M16 24H-8V16H16V0H24V16H48V24H24V40H16V24Z" fill="#F93939"/>
<path fill-rule="evenodd" clip-rule="evenodd" d="M31.9993 29.3334H29.3327V32H31.9993V34.6667H34.666V32H37.3327V29.3334H34.666V26.6667H31.9993V29.3334ZM31.9993 8.00004H29.3327V10.6667H31.9993V13.3334H34.666V10.6667H37.3327V8.00004H34.666V5.33337H31.9993V8.00004ZM5.33268 8.00004H2.66602V10.6667H5.33268V13.3334H7.99935V10.6667H10.666V8.00004H7.99935V5.33337H5.33268V8.00004ZM5.33268 29.3334H2.66602V32H5.33268V34.6667H7.99935V32H10.666V29.3334H7.99935V26.6667H5.33268V29.3334Z" fill="#F93939"/>
<circle cx="20" cy="20" r="19.5" stroke="#CCCCCC"/>
</g>
<defs>
<clipPath id="clip0_6041_12758">
<path d="M0 20C0 8.95431 8.95431 0 20 0C31.0457 0 40 8.95431 40 20C40 31.0457 31.0457 40 20 40C8.95431 40 0 31.0457 0 20Z" fill="white"/>
</clipPath>
</defs>
</svg>
