<svg width="40" height="40" viewBox="0 0 40 40" fill="none" xmlns="http://www.w3.org/2000/svg">
<path d="M39.5 20C39.5 30.7696 30.7696 39.5 20 39.5C9.23045 39.5 0.5 30.7696 0.5 20C0.5 9.23045 9.23045 0.5 20 0.5C30.7696 0.5 39.5 9.23045 39.5 20Z" fill="white" stroke="#CCCCCC"/>
<path d="M39.8307 17.3913H22.6088H22.6087V0.169297C21.7548 0.058125 20.8841 0 20 0C19.1159 0 18.2452 0.058125 17.3913 0.169297V17.3913H0.169297C0.058125 18.2452 0 19.1159 0 20C0 20.8841 0.058125 21.7548 0.169297 22.6087H17.3912H17.3913V39.8307C18.2452 39.9419 19.1159 40 20 40C20.8841 40 21.7548 39.942 22.6087 39.8307V22.6089V22.6087H39.8307C39.9419 21.7548 40 20.8841 40 20C40 19.1159 39.9419 18.2452 39.8307 17.3913Z" fill="#F93939"/>
<path d="M25.6516 20.8695L26.9559 21.7391V18.2608L25.6516 19.1304H20.869V14.3478L21.7386 13.0435H18.2603L19.1299 14.3478V19.1304H14.3473L13.043 18.2608V21.7391L14.3473 20.8695H19.1299V25.6521L18.2603 26.9564H21.7386L20.869 25.6521V20.8695H25.6516Z" fill="#FFDA2C"/>
<path d="M39.5 20C39.5 30.7696 30.7696 39.5 20 39.5C9.23045 39.5 0.5 30.7696 0.5 20C0.5 9.23045 9.23045 0.5 20 0.5C30.7696 0.5 39.5 9.23045 39.5 20Z" stroke="#CCCCCC"/>
</svg>
