<svg width="40" height="40" viewBox="0 0 40 40" fill="none" xmlns="http://www.w3.org/2000/svg">
<path d="M20 40C31.0457 40 40 31.0457 40 20C40 8.9543 31.0457 0 20 0C8.9543 0 0 8.9543 0 20C0 31.0457 8.9543 40 20 40Z" fill="white"/>
<path d="M20.0002 39.9999C28.5995 39.9999 35.9304 34.5724 38.7562 26.9564H1.24414C4.07008 34.5724 11.4009 39.9999 20.0002 39.9999Z" fill="#F93939"/>
<path d="M27.8259 16.5217V13.913H28.6954V12.1738H26.9563V13.0435H25.2172V12.1738H23.4781V13.913H24.3476V16.5217H22.6085V10.4349H23.4781V8.6958H21.7389V9.56518H20.8693V8.6958H19.1303V9.56518H18.2607V8.6958H16.5215V10.4349H17.3911V16.5217H15.652V13.913H16.5215V12.1738H14.7824V13.0435H13.0433V12.1738H11.3042V13.913H12.1737V16.5217H10.4346V23.4782H29.565V16.5217H27.8259Z" fill="#F93939"/>
<path d="M19.9997 22.6086C18.559 22.6086 17.391 23.7766 17.391 25.2173C17.391 26.3529 18.1171 27.3189 19.1302 27.677V31.3043H16.5215V34.7826H20.8693V27.6771C21.8823 27.319 22.6084 26.3531 22.6084 25.2174C22.6084 23.7767 21.4404 22.6086 19.9997 22.6086ZM19.9997 26.0869C19.5195 26.0869 19.1302 25.6975 19.1302 25.2174C19.1302 24.7372 19.5195 24.3479 19.9997 24.3479C20.4799 24.3479 20.8692 24.7372 20.8692 25.2174C20.8692 25.6975 20.4799 26.0869 19.9997 26.0869Z" fill="#FFDA2C"/>
<path d="M39.5 20C39.5 30.7696 30.7696 39.5 20 39.5C9.23045 39.5 0.5 30.7696 0.5 20C0.5 9.23045 9.23045 0.5 20 0.5C30.7696 0.5 39.5 9.23045 39.5 20Z" stroke="#CCCCCC"/>
</svg>
