<svg width="40" height="40" viewBox="0 0 40 40" fill="none" xmlns="http://www.w3.org/2000/svg">
<path d="M0 20C0 8.95437 8.95437 0 20 0C31.0456 0 40 8.95437 40 20C39.1305 20 20 22.6087 20 22.6087L0 20Z" fill="white"/>
<path d="M40 20C40 31.0456 31.0456 40 20 40C8.95437 40 0 31.0456 0 20" fill="#F93939"/>
<path d="M13.9129 29.5653C19.1956 29.5653 23.4781 25.2828 23.4781 20C23.4781 14.7173 19.1956 10.4348 13.9129 10.4348C8.63016 10.4348 4.34766 14.7173 4.34766 20C4.34766 25.2828 8.63016 29.5653 13.9129 29.5653Z" fill="white"/>
<path d="M4.34766 20C4.34766 14.7175 8.63016 10.4348 13.9129 10.4348C19.1957 10.4348 23.4781 14.7174 23.4781 20" fill="#F93939"/>
<circle cx="20" cy="20" r="19.5" stroke="#CCCCCC"/>
</svg>
