<svg width="40" height="40" viewBox="0 0 40 40" fill="none" xmlns="http://www.w3.org/2000/svg">
<g clip-path="url(#clip0_6041_12666)">
<path d="M20 40C31.0457 40 40 31.0457 40 20C40 8.9543 31.0457 0 20 0C8.9543 0 0 8.9543 0 20C0 31.0457 8.9543 40 20 40Z" fill="white"/>
<path d="M12.1738 13.0435H38.7558C35.93 5.4275 28.5991 0 19.9999 0C14.4769 0 9.47746 2.23898 5.8584 5.85852L12.1738 13.0435Z" fill="#00B731"/>
<path d="M12.1738 26.9565H38.7558C35.93 34.5726 28.5991 40.0001 19.9999 40.0001C14.4769 40.0001 9.47746 37.7611 5.8584 34.1415L12.1738 26.9565Z" fill="#F93939"/>
<path d="M5.85785 5.85779C-1.95262 13.6683 -1.95262 26.3316 5.85785 34.1422C9.08543 30.9146 12.1896 27.8104 20 20L5.85785 5.85779Z" fill="#3A99FF"/>
<path d="M23.4785 16.5217V20.8695C23.4785 23.532 26.9568 24.3479 26.9568 24.3479C26.9568 24.3479 30.4351 23.532 30.4351 20.8695V16.5217H23.4785Z" fill="#CBCBCB"/>
<path d="M26.0869 20.0869H27.8261V22.6086H26.0869V20.0869Z" fill="#AE6A3E"/>
<path d="M28.6955 19.1305C28.6955 18.17 27.9169 17.3914 26.9563 17.3914C25.9958 17.3914 25.2172 18.17 25.2172 19.1305C24.737 19.1305 24.3477 19.5198 24.3477 20C24.3477 20.4803 24.737 20.8696 25.2172 20.8696H28.6955C29.1757 20.8696 29.565 20.4803 29.565 20C29.565 19.5198 29.1758 19.1305 28.6955 19.1305Z" fill="#00B731"/>
<circle cx="20" cy="20" r="19.5" stroke="#CCCCCC"/>
</g>
<defs>
<clipPath id="clip0_6041_12666">
<rect width="40" height="40" fill="white"/>
</clipPath>
</defs>
</svg>
