<svg width="40" height="40" viewBox="0 0 40 40" fill="none" xmlns="http://www.w3.org/2000/svg">
<g clip-path="url(#clip0_6041_12779)">
<path d="M0 20C0 8.95431 8.95431 0 20 0C31.0457 0 40 8.95431 40 20C40 31.0457 31.0457 40 20 40C8.95431 40 0 31.0457 0 20Z" fill="white"/>
<path fill-rule="evenodd" clip-rule="evenodd" d="M0 0H10.6667V10.6667H0V0ZM16 0H26.6667V10.6667H16V0ZM0 16H10.6667V26.6667H0V16ZM16 16H26.6667V26.6667H16V16ZM26.6667 0H56V5.33333H26.6667V0ZM26.6667 10.6667H56V16H26.6667V10.6667Z" fill="#1A47B8"/>
<path fill-rule="evenodd" clip-rule="evenodd" d="M0 21.3334H56V26.6667H0V21.3334ZM10.6667 21.3334H16V26.6667H10.6667V21.3334ZM0 32H56V37.3334H0V32Z" fill="#1A47B8"/>
<circle cx="20" cy="20" r="19.5" stroke="#CCCCCC"/>
</g>
<defs>
<clipPath id="clip0_6041_12779">
<path d="M0 20C0 8.95431 8.95431 0 20 0C31.0457 0 40 8.95431 40 20C40 31.0457 31.0457 40 20 40C8.95431 40 0 31.0457 0 20Z" fill="white"/>
</clipPath>
</defs>
</svg>
