<svg width="40" height="40" viewBox="0 0 40 40" fill="none" xmlns="http://www.w3.org/2000/svg">
<g clip-path="url(#clip0_6041_12811)">
<path d="M0 20C0 8.95431 8.95431 0 20 0C31.0457 0 40 8.95431 40 20C40 31.0457 31.0457 40 20 40C8.95431 40 0 31.0457 0 20Z" fill="white"/>
<rect x="32" width="16" height="40" fill="#3ECBF8"/>
<rect x="-8" width="16" height="40" fill="#3ECBF8"/>
<path d="M20.0003 21.3333C20.7367 21.3333 21.3337 20.1394 21.3337 18.6667C21.3337 17.1939 20.7367 16 20.0003 16C19.2639 16 18.667 17.1939 18.667 18.6667C18.667 20.1394 19.2639 21.3333 20.0003 21.3333Z" fill="#FFDA2C"/>
<path fill-rule="evenodd" clip-rule="evenodd" d="M26.6663 20C26.6663 16.32 23.6797 13.3334 19.9997 13.3334C16.3197 13.3334 13.333 16.32 13.333 20C13.333 23.68 16.3197 26.6667 19.9997 26.6667C23.6797 26.6667 26.6663 23.68 26.6663 20ZM19.9997 24C22.2077 24 23.9997 21.6134 23.9997 18.6667C23.9997 15.72 22.2077 13.3334 19.9997 13.3334C17.7917 13.3334 15.9997 15.72 15.9997 18.6667C15.9997 21.6134 17.7917 24 19.9997 24Z" fill="#249F58"/>
<path d="M39.5 20C39.5 30.7696 30.7696 39.5 20 39.5C9.23045 39.5 0.5 30.7696 0.5 20C0.5 9.23045 9.23045 0.5 20 0.5C30.7696 0.5 39.5 9.23045 39.5 20Z" stroke="#CCCCCC"/>
</g>
<defs>
<clipPath id="clip0_6041_12811">
<path d="M0 20C0 8.95431 8.95431 0 20 0C31.0457 0 40 8.95431 40 20C40 31.0457 31.0457 40 20 40C8.95431 40 0 31.0457 0 20Z" fill="white"/>
</clipPath>
</defs>
</svg>
