<svg width="40" height="40" viewBox="0 0 40 40" fill="none" xmlns="http://www.w3.org/2000/svg">
<path d="M8.72754 36.5217C11.9372 38.7159 15.8185 40 20 40C24.1814 40 28.0626 38.7159 31.2724 36.5217L20 34.7826L8.72754 36.5217Z" fill="#F93939"/>
<path d="M31.2724 3.47828C28.0626 1.28414 24.1814 0 20 0C15.8185 0 11.9372 1.28414 8.72754 3.47828L20 5.21742L31.2724 3.47828Z" fill="#F93939"/>
<path d="M40 20C40 13.382 36.0378 6.73593 31.2724 3.47827H8.72758C3.45859 7.08015 0 13.1359 0 20C0 26.8643 3.45859 32.9198 8.72758 36.5217H31.2724C36.5415 32.9198 40 26.8643 40 20Z" fill="#1A47B8"/>
<path d="M18.8681 32.6247C18.5948 32.3903 12.1738 26.8085 12.1738 20C12.1738 13.1914 18.5948 7.60948 18.8681 7.37519L19.9999 6.40503L21.1317 7.37511C21.405 7.60948 27.826 13.1914 27.826 20C27.826 26.8085 21.4051 32.3905 21.1317 32.6247L19.9999 33.5949L18.8681 32.6247Z" fill="#F93939"/>
<path d="M26.087 20.0001C26.087 13.9131 20 8.69568 20 8.69568C20 8.69568 13.9131 13.9133 13.9131 20.0001C13.9131 21.8622 14.4832 23.6426 15.2739 25.2175H24.7261C25.5169 23.6426 26.087 21.8622 26.087 20.0001Z" fill="#338AF3"/>
<path d="M26.087 20C26.087 21.8621 25.5169 23.6425 24.7261 25.2174L20 26.087L15.2739 25.2174C14.4832 23.6426 13.9131 21.8621 13.9131 20H26.087Z" fill="#1A47B8"/>
<path d="M19.9995 31.3044C19.9995 31.3044 22.9314 28.7905 24.7256 25.2174H15.2734C17.0677 28.7905 19.9995 31.3044 19.9995 31.3044Z" fill="#FFDA2C"/>
<path d="M16.0869 16.5217H23.913L20 20.4348L16.0869 16.5217Z" fill="#00B731"/>
<path d="M18.6953 19.1305H21.304V26.9566H18.6953V19.1305Z" fill="#AE6A3E"/>
</svg>
