<svg width="40" height="40" viewBox="0 0 40 40" fill="none" xmlns="http://www.w3.org/2000/svg">
<g clip-path="url(#clip0_6041_12833)">
<path d="M0 20C0 8.95431 8.95431 0 20 0C31.0457 0 40 8.95431 40 20C40 31.0457 31.0457 40 20 40C8.95431 40 0 31.0457 0 20Z" fill="#249F58"/>
<path fill-rule="evenodd" clip-rule="evenodd" d="M0 40V0H8L56 16V24L8 40H0Z" fill="white"/>
<path fill-rule="evenodd" clip-rule="evenodd" d="M0 0L56 20L0 40V0Z" fill="#FFDA2C"/>
<path fill-rule="evenodd" clip-rule="evenodd" d="M0 40V0H2.66667L29.3333 20L2.66667 40H0Z" fill="#151515"/>
<path fill-rule="evenodd" clip-rule="evenodd" d="M0 0L26.6667 20L0 40V0Z" fill="#F93939"/>
<circle cx="20" cy="20" r="19.5" stroke="#CCCCCC"/>
</g>
<defs>
<clipPath id="clip0_6041_12833">
<path d="M0 20C0 8.95431 8.95431 0 20 0C31.0457 0 40 8.95431 40 20C40 31.0457 31.0457 40 20 40C8.95431 40 0 31.0457 0 20Z" fill="white"/>
</clipPath>
</defs>
</svg>
