<svg width="40" height="40" viewBox="0 0 40 40" fill="none" xmlns="http://www.w3.org/2000/svg">
<path d="M0 20C0 8.95431 8.95431 0 20 0C31.0457 0 40 8.95431 40 20C40 31.0457 31.0457 40 20 40C8.95431 40 0 31.0457 0 20Z" fill="#F93939"/>
<path fill-rule="evenodd" clip-rule="evenodd" d="M19.0799 20.0373C11.8479 16.9759 15.0532 7.5466 21.9732 8.01594C20.5706 8.73594 20.3679 10.0799 21.1679 11.3226C22.0639 12.7199 21.0879 14.9626 19.8772 15.5093C17.8879 16.4026 17.4906 18.7893 19.0772 20.0373H19.0799ZM19.6852 19.7119C20.3599 11.8906 30.3252 12.0239 32.0052 18.7466C30.8906 17.6399 29.5519 17.8613 28.6132 19.0079C27.5652 20.2879 25.1306 20.0479 24.2399 19.0693C22.7732 17.4586 20.3732 17.8159 19.6852 19.7146V19.7119ZM19.9306 20.4933C27.6106 18.8533 30.3946 28.4186 24.4559 31.9973C25.1919 30.6026 24.5892 29.3839 23.2186 28.8239C21.6879 28.1946 21.2026 25.7973 21.8799 24.6586C22.9946 22.7839 21.9492 20.5973 19.9332 20.4906L19.9306 20.4933ZM9.9999 29.2799C11.5466 29.5466 12.5199 28.5946 12.6292 27.1199C12.7546 25.4666 14.8826 24.2666 16.1759 24.5599C18.3039 25.0399 20.0612 23.3706 19.5359 21.4186C23.4719 28.2186 15.2346 33.8186 9.99723 29.2773L9.9999 29.2799ZM8.40789 14.6666C8.71456 16.2079 9.94923 16.7733 11.3679 16.3466C12.9546 15.8719 14.8399 17.4293 15.0292 18.7466C15.3439 20.9013 17.5306 21.9413 19.1626 20.7573C14.2292 26.8639 6.04256 21.1839 8.40789 14.6639V14.6666Z" fill="white"/>
</svg>
