<svg width="40" height="40" viewBox="0 0 40 40" fill="none" xmlns="http://www.w3.org/2000/svg">
<path d="M20 40C31.0457 40 40 31.0457 40 20C40 8.9543 31.0457 0 20 0C8.9543 0 0 8.9543 0 20C0 31.0457 8.9543 40 20 40Z" fill="white"/>
<path d="M19.9998 40.0001C27.929 40.0001 34.7803 35.3856 38.0153 28.6957H1.98438C5.21938 35.3856 12.0706 40.0001 19.9998 40.0001Z" fill="#3ECBF8"/>
<path d="M19.9998 0C12.0706 0 5.21938 4.61445 1.98438 11.3044H38.0152C34.7803 4.61445 27.929 0 19.9998 0Z" fill="#3ECBF8"/>
<path d="M12.3074 13.0435L12.9549 15.0363H15.0503L13.3552 16.2679L14.0027 18.2608L12.3074 17.0292L10.6121 18.2608L11.2597 16.2679L9.56445 15.0363H11.6598L12.3074 13.0435Z" fill="#3ECBF8"/>
<path d="M12.3074 21.7391L12.9549 23.7321H15.0503L13.3552 24.9637L14.0027 26.9565L12.3074 25.7248L10.6121 26.9565L11.2597 24.9637L9.56445 23.7321H11.6598L12.3074 21.7391Z" fill="#3ECBF8"/>
<path d="M27.6922 13.0435L28.3398 15.0363H30.4352L28.7399 16.2679L29.3875 18.2608L27.6922 17.0292L25.9969 18.2608L26.6445 16.2679L24.9492 15.0363H27.0447L27.6922 13.0435Z" fill="#3ECBF8"/>
<path d="M27.6922 21.7391L28.3398 23.7321H30.4352L28.7399 24.9637L29.3875 26.9565L27.6922 25.7248L25.9969 26.9565L26.6445 24.9637L24.9492 23.7321H27.0447L27.6922 21.7391Z" fill="#3ECBF8"/>
<path d="M20.0008 17.3914L20.6484 19.3843H22.7437L21.0485 20.6159L21.6961 22.6087L20.0008 21.3771L18.3055 22.6087L18.953 20.6159L17.2578 19.3843H19.3532L20.0008 17.3914Z" fill="#3ECBF8"/>
<circle cx="20" cy="20" r="19.5" stroke="#CCCCCC"/>
</svg>
