<svg width="40" height="40" viewBox="0 0 40 40" fill="none" xmlns="http://www.w3.org/2000/svg">
<g clip-path="url(#clip0_6041_12551)">
<path d="M0 20C0 8.95431 8.95431 0 20 0C31.0457 0 40 8.95431 40 20C40 31.0457 31.0457 40 20 40C8.95431 40 0 31.0457 0 20Z" fill="white"/>
<path fill-rule="evenodd" clip-rule="evenodd" d="M-8 26.6666H48V40H-8V26.6666Z" fill="#1A47B8"/>
<path fill-rule="evenodd" clip-rule="evenodd" d="M-8 0H48V13.3333H-8V0Z" fill="#F93939"/>
<path fill-rule="evenodd" clip-rule="evenodd" d="M13.333 10.6667H15.9997V13.3333H13.333V10.6667ZM18.6663 8H21.333V13.3333H18.6663V8ZM23.9997 10.6667H26.6663V13.3333H23.9997V10.6667Z" fill="#3A99FF"/>
<path fill-rule="evenodd" clip-rule="evenodd" d="M21.3333 8H24V13.3333H21.3333V8ZM16 8H18.6667V13.3333H16V8Z" fill="#1A47B8"/>
<mask id="mask0_6041_12551" style="mask-type:alpha" maskUnits="userSpaceOnUse" x="13" y="13" width="14" height="17">
<path d="M26.6663 22.6667C26.6663 26.3467 23.6797 29.3334 19.9997 29.3334C16.3197 29.3334 13.333 26.3467 13.333 22.6667V13.3334H26.6663V22.6667Z" fill="white"/>
</mask>
<g mask="url(#mask0_6041_12551)">
<path d="M26.6663 22.6667C26.6663 26.3467 23.6797 29.3334 19.9997 29.3334C16.3197 29.3334 13.333 26.3467 13.333 22.6667V13.3334H26.6663V22.6667Z" fill="#F93939"/>
<path fill-rule="evenodd" clip-rule="evenodd" d="M15.9997 26.6667H18.6663V29.3334H15.9997V26.6667ZM21.333 26.6667H23.9997V29.3334H21.333V26.6667ZM18.6663 24H21.333V26.6667H18.6663V24ZM15.9997 21.3334H18.6663V24H15.9997V21.3334ZM21.333 21.3334H23.9997V24H21.333V21.3334ZM18.6663 18.6667H21.333V21.3334H18.6663V18.6667ZM15.9997 16H18.6663V18.6667H15.9997V16ZM21.333 16H23.9997V18.6667H21.333V16ZM18.6663 13.3334H21.333V16H18.6663V13.3334ZM23.9997 13.3334H26.6663V16H23.9997V13.3334ZM23.9997 18.6667H26.6663V21.3334H23.9997V18.6667ZM23.9997 24H26.6663V26.6667H23.9997V24ZM13.333 24H15.9997V26.6667H13.333V24ZM13.333 18.6667H15.9997V21.3334H13.333V18.6667ZM13.333 13.3334H15.9997V16H13.333V13.3334Z" fill="white"/>
</g>
<circle cx="20" cy="20" r="19.5" stroke="#CCCCCC"/>
</g>
<defs>
<clipPath id="clip0_6041_12551">
<path d="M0 20C0 8.95431 8.95431 0 20 0C31.0457 0 40 8.95431 40 20C40 31.0457 31.0457 40 20 40C8.95431 40 0 31.0457 0 20Z" fill="white"/>
</clipPath>
</defs>
</svg>
