<svg width="40" height="40" viewBox="0 0 40 40" fill="none" xmlns="http://www.w3.org/2000/svg">
<g clip-path="url(#clip0_6041_12839)">
<path d="M0 20C0 8.95431 8.95431 0 20 0C31.0457 0 40 8.95431 40 20C40 31.0457 31.0457 40 20 40C8.95431 40 0 31.0457 0 20Z" fill="#F93939"/>
<path fill-rule="evenodd" clip-rule="evenodd" d="M-8 0H48V21.3333H-8V0Z" fill="#1A47B8"/>
<path fill-rule="evenodd" clip-rule="evenodd" d="M8 13.3334H30.2222V26.6667H8V13.3334Z" fill="white"/>
<path fill-rule="evenodd" clip-rule="evenodd" d="M16.8887 17.7777H21.3331V26.6666H16.8887V17.7777Z" fill="#FFDA2C"/>
<path fill-rule="evenodd" clip-rule="evenodd" d="M12.4434 20C12.4434 16.32 15.4034 13.3334 19.11 13.3334C22.79 13.3334 25.7767 16.2934 25.7767 20V26.6667H12.4434V20ZM16.8878 20.0223C16.8878 18.7778 17.9189 17.7778 19.11 17.7778C20.3367 17.7778 21.3322 18.7289 21.3322 20.0223V26.6667H16.8878V20.0223Z" fill="#249F58"/>
</g>
<defs>
<clipPath id="clip0_6041_12839">
<path d="M0 20C0 8.95431 8.95431 0 20 0C31.0457 0 40 8.95431 40 20C40 31.0457 31.0457 40 20 40C8.95431 40 0 31.0457 0 20Z" fill="white"/>
</clipPath>
</defs>
</svg>
