<svg width="40" height="40" viewBox="0 0 40 40" fill="none" xmlns="http://www.w3.org/2000/svg">
<g clip-path="url(#clip0_6041_12904)">
<path d="M0 20C0 8.95431 8.95431 0 20 0C31.0457 0 40 8.95431 40 20C40 31.0457 31.0457 40 20 40C8.95431 40 0 31.0457 0 20Z" fill="white"/>
<path fill-rule="evenodd" clip-rule="evenodd" d="M-8 29.3334H48V34.6667H-8V29.3334ZM-8 5.33337H48V10.6667H-8V5.33337ZM18.3333 24H13.3333L15.8347 20L13.3333 16H18.3333L20 13.3334L21.6667 16H26.6667L24.1653 20L26.6667 24H21.6667L20 26.6667L18.3333 24ZM17.3333 20L20 17.3334L22.6667 20L20 22.6667L17.3333 20Z" fill="#1A47B8"/>
<circle cx="20" cy="20" r="19.5" stroke="#CCCCCC"/>
</g>
<defs>
<clipPath id="clip0_6041_12904">
<path d="M0 20C0 8.95431 8.95431 0 20 0C31.0457 0 40 8.95431 40 20C40 31.0457 31.0457 40 20 40C8.95431 40 0 31.0457 0 20Z" fill="white"/>
</clipPath>
</defs>
</svg>
