<svg width="40" height="40" viewBox="0 0 40 40" fill="none" xmlns="http://www.w3.org/2000/svg">
<path d="M20 40C31.0457 40 40 31.0457 40 20C40 8.9543 31.0457 0 20 0C8.9543 0 0 8.9543 0 20C0 31.0457 8.9543 40 20 40Z" fill="#AF010D"/>
<path d="M27.4048 13.4072L25.9912 18.4518L21.7498 17.6686L19.0197 12.0409L11.6441 14.6582L11.0625 13.0191L9.13281 12.7814L10.5868 16.8789L15.6625 15.5809L17.1049 19.6457L13.5962 24.8239L19.5506 29.9025L18.422 31.2257L19.1809 33.0159L22.0027 29.7078L18.3406 25.9611L21.1396 22.6796L27.3785 23.1292L28.7995 15.4331L30.5098 15.7489L31.6808 14.1966L27.4048 13.4072Z" fill="white"/>
</svg>
