<svg width="40" height="40" viewBox="0 0 40 40" fill="none" xmlns="http://www.w3.org/2000/svg">
<g clip-path="url(#clip0_6041_12868)">
<path d="M0 20C0 8.95431 8.95431 0 20 0C31.0457 0 40 8.95431 40 20C40 31.0457 31.0457 40 20 40C8.95431 40 0 31.0457 0 20Z" fill="white"/>
<path fill-rule="evenodd" clip-rule="evenodd" d="M20.0007 26.6667C23.6807 26.6667 26.6673 23.68 26.6673 20C26.6673 16.32 23.6807 13.3334 20.0007 13.3334C16.3207 13.3334 13.334 16.32 13.334 20C13.334 23.68 16.3207 26.6667 20.0007 26.6667ZM20.0007 24C22.2087 24 24.0007 22.208 24.0007 20C24.0007 17.792 22.2087 16 20.0007 16C17.7927 16 16.0007 17.792 16.0007 20C16.0007 22.208 17.7927 24 20.0007 24Z" fill="#1A47B8"/>
<path d="M19.9993 21.3333C20.7357 21.3333 21.3327 20.7363 21.3327 20C21.3327 19.2636 20.7357 18.6666 19.9993 18.6666C19.263 18.6666 18.666 19.2636 18.666 20C18.666 20.7363 19.263 21.3333 19.9993 21.3333Z" fill="#1A47B8"/>
<path fill-rule="evenodd" clip-rule="evenodd" d="M-8 26.6666H48V40H-8V26.6666Z" fill="#249F58"/>
<path fill-rule="evenodd" clip-rule="evenodd" d="M-8 0H48V13.3333H-8V0Z" fill="#FF6C2D"/>
<circle cx="20" cy="20" r="19.5" stroke="#CCCCCC"/>
</g>
<defs>
<clipPath id="clip0_6041_12868">
<path d="M0 20C0 8.95431 8.95431 0 20 0C31.0457 0 40 8.95431 40 20C40 31.0457 31.0457 40 20 40C8.95431 40 0 31.0457 0 20Z" fill="white"/>
</clipPath>
</defs>
</svg>
