<svg width="40" height="40" viewBox="0 0 40 40" fill="none" xmlns="http://www.w3.org/2000/svg">
<path d="M20 40C31.0457 40 40 31.0457 40 20C40 8.9543 31.0457 0 20 0C8.9543 0 0 8.9543 0 20C0 31.0457 8.9543 40 20 40Z" fill="white"/>
<path d="M36.6658 22.3935C34.9991 22.3935 34.9991 20.8696 33.3324 20.8696C31.6658 20.8696 31.6658 22.3935 29.9992 22.3935C28.3327 22.3935 28.3326 20.8696 26.666 20.8696C24.9994 20.8696 24.9994 22.3935 23.3327 22.3935C21.6659 22.3935 21.6659 20.8696 19.9991 20.8696C18.3324 20.8696 18.3324 22.3935 16.6659 22.3935C14.9995 22.3935 14.9995 20.8696 13.3328 20.8696C11.666 20.8696 11.666 22.3935 9.99922 22.3935C8.33242 22.3935 8.33242 20.8696 6.66563 20.8696C4.99922 20.8696 4.99922 22.3935 3.33258 22.3935C1.67492 22.3935 1.66531 20.8864 0.0253906 20.8703C0.0715625 21.7851 0.180781 22.6833 0.345937 23.5617C1.67437 23.7567 1.7907 25.0601 3.33273 25.0601C4.99937 25.0601 4.99938 23.5363 6.66578 23.5363C8.33258 23.5363 8.33258 25.0601 9.99938 25.0601C11.6662 25.0601 11.6662 23.5363 13.333 23.5363C14.9996 23.5363 14.9996 25.0601 16.666 25.0601C18.3327 25.0601 18.3327 23.5363 19.9992 23.5363C21.666 23.5363 21.666 25.0601 23.3328 25.0601C24.9996 25.0601 24.9996 23.5363 26.6662 23.5363C28.3328 23.5363 28.3328 25.0601 29.9994 25.0601C31.666 25.0601 31.666 23.5363 33.3326 23.5363C34.9994 23.5363 34.9994 25.0601 36.6659 25.0601C38.208 25.0601 38.3244 23.7568 39.6529 23.5617C39.8181 22.6832 39.9272 21.7852 39.9736 20.8703C38.3333 20.8865 38.3235 22.3935 36.6658 22.3935Z" fill="#0052B4"/>
<path d="M33.3328 26.0869C31.6662 26.0869 31.6662 27.6108 29.9996 27.6108C28.333 27.6108 28.333 26.0869 26.6664 26.0869C24.9998 26.0869 24.9998 27.6108 23.333 27.6108C21.6663 27.6108 21.6663 26.0869 19.9995 26.0869C18.3328 26.0869 18.3328 27.6108 16.6663 27.6108C14.9998 27.6108 14.9998 26.0869 13.3332 26.0869C11.6664 26.0869 11.6664 27.6108 9.99961 27.6108C8.33281 27.6108 8.33281 26.0869 6.66602 26.0869C4.99961 26.0869 4.99961 27.6108 3.33297 27.6108C2.10523 27.6108 1.78109 26.7844 1.0293 26.3491C1.48461 27.71 2.08266 29.0052 2.80492 30.218C2.96133 30.2557 3.13523 30.2775 3.33289 30.2775C4.99953 30.2775 4.99953 28.7537 6.66594 28.7537C8.33274 28.7537 8.33274 30.2775 9.99953 30.2775C11.6663 30.2775 11.6663 28.7537 13.3331 28.7537C14.9998 28.7537 14.9998 30.2775 16.6662 30.2775C18.3328 30.2775 18.3328 28.7537 19.9994 28.7537C21.6662 28.7537 21.6662 30.2775 23.333 30.2775C24.9998 30.2775 24.9998 28.7537 26.6663 28.7537C28.333 28.7537 28.333 30.2775 29.9995 30.2775C31.6661 30.2775 31.6662 28.7537 33.3327 28.7537C34.9995 28.7537 34.9995 30.2775 36.6661 30.2775C36.8639 30.2775 37.038 30.2557 37.1945 30.2179C37.9168 29.0052 38.5148 27.71 38.97 26.3492C38.2182 26.7845 37.894 27.6109 36.6661 27.6109C34.9996 27.6108 34.9996 26.0869 33.3328 26.0869Z" fill="#0052B4"/>
<path d="M39.5343 15.6985C38.316 15.9514 38.1607 17.1761 36.666 17.1761C34.9993 17.1761 34.9993 15.6522 33.3326 15.6522C31.666 15.6522 31.666 17.1761 29.9994 17.1761C28.3329 17.1761 28.3328 15.6522 26.6662 15.6522C24.9996 15.6522 24.9996 17.1761 23.3329 17.1761C21.6661 17.1761 21.6661 15.6522 19.9993 15.6522C19.0987 15.6522 18.6846 16.0971 18.2314 16.5061V19.1728C18.6846 18.7638 19.0986 18.319 19.9993 18.319C21.6661 18.319 21.6661 19.8428 23.3329 19.8428C24.9996 19.8428 24.9996 18.319 26.6662 18.319C28.3329 18.319 28.3329 19.8428 29.9994 19.8428C31.666 19.8428 31.6661 18.319 33.3326 18.319C34.9994 18.319 34.9994 19.8428 36.666 19.8428C38.2081 19.8428 38.3244 18.5395 39.6529 18.3443C39.7381 18.3443 39.8332 18.3435 39.9307 18.3423C39.8568 17.4428 39.7232 16.5603 39.5343 15.6985Z" fill="#0052B4"/>
<path d="M38.0732 11.4277C37.7278 11.7178 37.3286 11.9587 36.666 11.9587C34.9993 11.9587 34.9993 10.4348 33.3326 10.4348C31.666 10.4348 31.666 11.9587 29.9994 11.9587C28.3329 11.9587 28.3328 10.4348 26.6662 10.4348C24.9996 10.4348 24.9996 11.9587 23.3329 11.9587C21.6661 11.9587 21.6661 10.4348 19.9993 10.4348C19.0987 10.4348 18.6846 10.8797 18.2314 11.2887V13.9554C18.6846 13.5464 19.0986 13.1016 19.9993 13.1016C21.6661 13.1016 21.6661 14.6254 23.3329 14.6254C24.9995 14.6254 24.9995 13.1016 26.6661 13.1016C28.3328 13.1016 28.3328 14.6254 29.9993 14.6254C31.6659 14.6254 31.6659 13.1016 33.3325 13.1016C34.9993 13.1016 34.9993 14.6254 36.6659 14.6254C37.8485 14.6254 38.1929 13.8593 38.8882 13.4139C38.6513 12.7344 38.3792 12.0715 38.0732 11.4277Z" fill="#0052B4"/>
<path d="M33.475 5.22147C33.4288 5.21897 33.3817 5.21741 33.3327 5.21741C31.6661 5.21741 31.6661 6.74131 29.9995 6.74131C28.3329 6.74131 28.3329 5.21741 26.6663 5.21741C24.9996 5.21741 24.9996 6.74131 23.3329 6.74131C21.6661 6.74131 21.6661 5.21741 19.9993 5.21741C19.0987 5.21741 18.6846 5.66225 18.2314 6.07131V8.73795C18.6846 8.32897 19.0986 7.8842 19.9993 7.8842C21.6661 7.8842 21.6661 9.40795 23.3329 9.40795C24.9996 9.40795 24.9996 7.8842 26.6662 7.8842C28.3329 7.8842 28.3329 9.40795 29.9994 9.40795C31.666 9.40795 31.6661 7.8842 33.3326 7.8842C34.9994 7.8842 34.9994 9.40795 36.666 9.40795C36.7686 9.40795 36.8645 9.40186 36.9553 9.391C35.9872 7.84694 34.815 6.44405 33.475 5.22147Z" fill="#0052B4"/>
<path d="M25.1111 0.660435C24.6536 1.072 24.2402 1.52403 23.3324 1.52403C21.6656 1.52403 21.6656 0.00027832 19.9989 0.00012207H19.9986C19.1367 0.000200195 18.7206 0.407778 18.2891 0.80145V3.46817C18.7205 3.0745 19.1368 2.66684 19.9989 2.66684C21.6657 2.66684 21.6657 4.19059 23.3325 4.19059C24.9992 4.19059 24.9992 2.66684 26.6659 2.66684C28.3325 2.66684 28.3325 4.19059 29.9991 4.19059C30.6984 4.19059 31.104 3.92215 31.4627 3.61075C29.5615 2.27833 27.4179 1.26848 25.1111 0.660435Z" fill="#0052B4"/>
<path d="M23.3322 38.0456C21.6654 38.0456 21.6654 36.5217 19.9986 36.5217C18.332 36.5217 18.332 38.0456 16.6654 38.0456C14.999 38.0456 14.999 36.5217 13.3323 36.5217C12.0557 36.5217 11.7562 37.415 10.9375 37.8336C13.1953 38.9831 15.7005 39.7158 18.3521 39.932C18.7622 39.5573 19.1787 39.1884 19.9986 39.1884C20.8187 39.1884 21.2352 39.5573 21.6454 39.9321C24.297 39.716 26.8024 38.9832 29.0603 37.8336C28.2414 37.4151 27.942 36.5216 26.6655 36.5216C24.999 36.5217 24.999 38.0456 23.3322 38.0456Z" fill="#0052B4"/>
<path d="M29.9991 32.8282C28.3325 32.8282 28.3325 31.3043 26.6659 31.3043C24.9993 31.3043 24.9993 32.8282 23.3326 32.8282C21.6658 32.8282 21.6658 31.3043 19.999 31.3043C18.3323 31.3043 18.3323 32.8282 16.6658 32.8282C14.9994 32.8282 14.9994 31.3043 13.3327 31.3043C11.6659 31.3043 11.6659 32.8282 9.99914 32.8282C8.33234 32.8282 8.33234 31.3043 6.66555 31.3043C5.46703 31.3043 5.13047 32.0926 4.41602 32.5352C4.86383 33.0913 5.33992 33.6236 5.84375 34.1283C6.06945 34.0319 6.3343 33.971 6.66547 33.971C8.33227 33.971 8.33227 35.4948 9.99906 35.4948C11.6659 35.4948 11.6659 33.971 13.3327 33.971C14.9993 33.971 14.9993 35.4948 16.6657 35.4948C18.3323 35.4948 18.3323 33.971 19.9989 33.971C21.6657 33.971 21.6657 35.4948 23.3325 35.4948C24.9993 35.4948 24.9993 33.971 26.6659 33.971C28.3324 33.971 28.3325 35.4948 29.9991 35.4948C31.6656 35.4948 31.6657 33.971 33.3323 33.971C33.6638 33.971 33.9287 34.0319 34.1545 34.1285C34.6584 33.6237 35.1345 33.0914 35.5823 32.5353C34.8678 32.0928 34.5312 31.3044 33.3323 31.3044C31.6657 31.3043 31.6657 32.8282 29.9991 32.8282Z" fill="#0052B4"/>
<path d="M19.9463 20H19.9998C19.9998 19.9821 19.9998 19.9646 19.9998 19.9465C19.982 19.9644 19.9642 19.9822 19.9463 20Z" fill="white"/>
<path d="M20.0004 10.4347V16.3107L13.0439 9.56519L20.0004 10.4347Z" fill="#0052B4"/>
<path d="M10.435 19.9999H16.3108L10.435 12.1738L9.56543 18.2608L10.435 19.9999Z" fill="#0052B4"/>
<path d="M20 10.4348C20 6.91563 20 4.60977 20 0H19.9966C8.9525 0.001875 0 8.95539 0 20H10.4348V14.1241L16.3106 20H19.9466C19.9644 19.9822 19.9822 19.9644 20.0001 19.9465C20.0001 18.5991 20.0001 17.3968 20.0001 16.3108L14.1241 10.4348H20Z" fill="white"/>
<path d="M10.1191 2.60864C6.99102 4.38981 4.39055 6.99028 2.60938 10.1183V20H7.8268V7.82622V7.82607H20.0007C20.0007 6.18052 20.0007 4.61286 20.0007 2.60864H10.1191Z" fill="#D80027"/>
<path d="M20.0008 17.5405L12.8949 10.4348H10.4355V10.435L20.0006 20H20.0008C20.0008 20 20.0008 18.3041 20.0008 17.5405Z" fill="#D80027"/>
<path d="M26.0869 10.4348H33.913L30 14.3479L26.0869 10.4348Z" fill="#249F58"/>
<path d="M29.1309 13.4783H30.87V18.2608H29.1309V13.4783Z" fill="#D80027"/>
<path d="M29.1309 26.0869H30.87V30.8695H29.1309V26.0869Z" fill="#D80027"/>
<path d="M35.218 23.4783C35.218 22.0376 34.05 20.8696 32.6093 20.8696C31.941 20.8696 31.3318 21.1212 30.8702 21.5344V20H31.7397V18.2609H30.8702V17.3914H29.131V18.2609H28.2615V20H29.131V21.5344C28.6694 21.1212 28.0602 20.8696 27.3919 20.8696C25.9512 20.8696 24.7832 22.0376 24.7832 23.4783C24.7832 24.2507 25.1192 24.9445 25.6527 25.4222V26.9566H34.3484V25.4222C34.882 24.9445 35.218 24.2507 35.218 23.4783Z" fill="#FFDA2C"/>
<path d="M32.6084 22.6086C32.3341 22.6086 32.142 22.7291 32.0291 22.83L30.8692 23.8684H29.1302L27.9702 22.83C27.8573 22.7291 27.6653 22.6086 27.391 22.6086C26.9116 22.6086 26.5215 22.9987 26.5215 23.4782C26.5215 23.8159 26.7036 24.0293 26.8121 24.1265L27.3911 24.645V25.2173H32.6085V24.645L33.1875 24.1265C33.296 24.0293 33.4781 23.8159 33.4781 23.4782C33.478 22.9987 33.0879 22.6086 32.6084 22.6086Z" fill="#D80027"/>
<circle cx="20" cy="20" r="19.5" stroke="#CCCCCC"/>
</svg>
