<svg width="40" height="40" viewBox="0 0 40 40" fill="none" xmlns="http://www.w3.org/2000/svg">
<g clip-path="url(#clip0_6041_12876)">
<path d="M0 20C0 8.95431 8.95431 0 20 0C31.0457 0 40 8.95431 40 20C40 31.0457 31.0457 40 20 40C8.95431 40 0 31.0457 0 20Z" fill="white"/>
<path fill-rule="evenodd" clip-rule="evenodd" d="M-8 26.6666H48V40H-8V26.6666Z" fill="#151515"/>
<path fill-rule="evenodd" clip-rule="evenodd" d="M18.6667 21.3333H21.3333V22.6533C21.3333 23.4267 21.9307 24 22.6667 24C23.3813 24 24 23.3973 24 22.6533V17.32C24 16.592 24.6187 16 25.3333 16C26.0693 16 26.6667 16.576 26.6667 17.32V21.3333H30.64C31.392 21.3333 32 21.952 32 22.6667C32 23.4027 31.408 24 30.64 24H9.36C8.608 24 8 23.3813 8 22.6667C8 22.1013 8.34667 21.6187 8.85333 21.424C8.92 21.2533 9.02133 21.0907 9.16267 20.952L12.9493 17.1653C13.4667 16.648 14.3227 16.6667 14.8293 17.1707C15.352 17.6907 15.368 18.5173 14.84 19.0453L12.552 21.3333H16V20.0133C16 19.2667 16.6187 18.6667 17.3333 18.6667C18.0693 18.6667 18.6667 19.2373 18.6667 20.0133V21.3333Z" fill="#249F58"/>
<path fill-rule="evenodd" clip-rule="evenodd" d="M-8 0H48V13.3333H-8V0Z" fill="#F93939"/>
<circle cx="20" cy="20" r="19.5" stroke="#CCCCCC"/>
</g>
<defs>
<clipPath id="clip0_6041_12876">
<path d="M0 20C0 8.95431 8.95431 0 20 0C31.0457 0 40 8.95431 40 20C40 31.0457 31.0457 40 20 40C8.95431 40 0 31.0457 0 20Z" fill="white"/>
</clipPath>
</defs>
</svg>
