<svg width="40" height="40" viewBox="0 0 40 40" fill="none" xmlns="http://www.w3.org/2000/svg">
<g clip-path="url(#clip0_6041_12881)">
<path d="M0 20C0 8.95431 8.95431 0 20 0C31.0457 0 40 8.95431 40 20C40 31.0457 31.0457 40 20 40C8.95431 40 0 31.0457 0 20Z" fill="white"/>
<path fill-rule="evenodd" clip-rule="evenodd" d="M20.0007 24C23.6807 24 26.6673 22.208 26.6673 20C26.6673 17.792 23.6807 16 20.0007 16C16.3207 16 13.334 17.792 13.334 20C13.334 22.208 16.3207 24 20.0007 24ZM20.0007 22C22.2087 22 24.0007 20.656 24.0007 19C24.0007 17.3467 22.2087 16 20.0007 16C17.7927 16 16.0007 17.344 16.0007 19C16.0007 20.6533 17.7927 22 20.0007 22Z" fill="#F93939"/>
<path d="M19.9993 21.3333C20.7357 21.3333 21.3327 20.1394 21.3327 18.6667C21.3327 17.1939 20.7357 16 19.9993 16C19.263 16 18.666 17.1939 18.666 18.6667C18.666 20.1394 19.263 21.3333 19.9993 21.3333Z" fill="#AF010D"/>
<path fill-rule="evenodd" clip-rule="evenodd" d="M-8 26.6666H48V40H-8V26.6666Z" fill="#F93939"/>
<path fill-rule="evenodd" clip-rule="evenodd" d="M-8 0H48V13.3333H-8V0Z" fill="#00B731"/>
<circle cx="20" cy="20" r="19.5" stroke="#CCCCCC"/>
</g>
<defs>
<clipPath id="clip0_6041_12881">
<path d="M0 20C0 8.95431 8.95431 0 20 0C31.0457 0 40 8.95431 40 20C40 31.0457 31.0457 40 20 40C8.95431 40 0 31.0457 0 20Z" fill="white"/>
</clipPath>
</defs>
</svg>
