<svg width="40" height="40" viewBox="0 0 40 40" fill="none" xmlns="http://www.w3.org/2000/svg">
<path d="M39.5 20C39.5 30.7696 30.7696 39.5 20 39.5C9.23045 39.5 0.5 30.7696 0.5 20C0.5 9.23045 9.23045 0.5 20 0.5C30.7696 0.5 39.5 9.23045 39.5 20Z" fill="white" stroke="#CCCCCC"/>
<path d="M35.8669 32.1777L23.6891 20H23.6891L35.8669 7.82215C35.3416 7.13965 34.7671 6.48301 34.142 5.85778C33.5168 5.23262 32.8602 4.65801 32.1777 4.13293L19.9999 16.3107L19.9998 16.3107L7.82211 4.13293C7.13969 4.65809 6.48297 5.23254 5.85773 5.85778C5.2325 6.48301 4.65797 7.13965 4.13289 7.82215L16.3106 19.9998L16.3107 19.9999L4.13281 32.1778C4.65805 32.8603 5.23258 33.5169 5.85766 34.1422C6.48289 34.7673 7.13945 35.3419 7.82203 35.867L19.9998 23.6893L19.9999 23.6892L32.1777 35.8669C32.8601 35.3418 33.5168 34.7672 34.142 34.1421C34.7673 33.5168 35.3417 32.8602 35.8669 32.1777Z" fill="#F93939"/>
<path d="M16.5215 6.08695L19.9998 6.95648L23.478 6.08695V3.13046L22.0867 3.82609L19.9998 1.73914L17.9128 3.82609L16.5215 3.13046V6.08695Z" fill="#FFDA2C"/>
<path d="M16.5215 6.08691V8.26098C16.5215 10.9235 19.9998 11.7393 19.9998 11.7393C19.9998 11.7393 23.478 10.9234 23.478 8.26098V6.08691H16.5215Z" fill="#F93939"/>
<path d="M39.5 20C39.5 30.7696 30.7696 39.5 20 39.5C9.23045 39.5 0.5 30.7696 0.5 20C0.5 9.23045 9.23045 0.5 20 0.5C30.7696 0.5 39.5 9.23045 39.5 20Z" stroke="#CCCCCC"/>
</svg>
