<svg width="40" height="40" viewBox="0 0 40 40" fill="none" xmlns="http://www.w3.org/2000/svg">
<g clip-path="url(#clip0_6041_12908)">
<path d="M0 20C0 8.95431 8.95431 0 20 0C31.0457 0 40 8.95431 40 20C40 31.0457 31.0457 40 20 40C8.95431 40 0 31.0457 0 20Z" fill="#249F58"/>
<path fill-rule="evenodd" clip-rule="evenodd" d="M-8 0L18.6667 21.3333L-8 40V0ZM48 0L21.3333 21.3333L48 40V0Z" fill="#151515"/>
<path fill-rule="evenodd" clip-rule="evenodd" d="M15.112 20L-8 4V0H-4L20 16.6133L44 0H48V4L24.888 20L48 36V40H44L20 23.3867L-4 40H-8V36L15.112 20Z" fill="#FFDA2C"/>
</g>
<defs>
<clipPath id="clip0_6041_12908">
<path d="M0 20C0 8.95431 8.95431 0 20 0C31.0457 0 40 8.95431 40 20C40 31.0457 31.0457 40 20 40C8.95431 40 0 31.0457 0 20Z" fill="white"/>
</clipPath>
</defs>
</svg>
