<svg width="40" height="40" viewBox="0 0 40 40" fill="none" xmlns="http://www.w3.org/2000/svg">
<g clip-path="url(#clip0_6041_12936)">
<path d="M0 20C0 8.95431 8.95431 0 20 0C31.0457 0 40 8.95431 40 20C40 31.0457 31.0457 40 20 40C8.95431 40 0 31.0457 0 20Z" fill="#151515"/>
<path fill-rule="evenodd" clip-rule="evenodd" d="M-8 26.6666H48V29.3333H-8V26.6666Z" fill="white"/>
<path fill-rule="evenodd" clip-rule="evenodd" d="M-8 29.3334H48V40H-8V29.3334Z" fill="#0A6A30"/>
<path fill-rule="evenodd" clip-rule="evenodd" d="M-8 13.3334H48V26.6667H-8V13.3334Z" fill="#F93939"/>
<path fill-rule="evenodd" clip-rule="evenodd" d="M-8 10.6666H48V13.3333H-8V10.6666Z" fill="white"/>
<path fill-rule="evenodd" clip-rule="evenodd" d="M25.1031 15.7706C25.2951 15.7706 26.4365 13.984 26.4365 11.7706C26.4365 9.56263 25.2951 7.77063 25.1031 7.77063C24.9165 7.77063 23.7698 9.56263 23.7698 11.7706C23.7698 13.984 24.9165 15.7706 25.1031 15.7706ZM17.2658 14.6C17.1325 14.7333 15.0525 14.28 13.4951 12.7146C11.9351 11.152 11.4765 9.0773 11.6125 8.94396C11.7458 8.81063 13.8205 9.26396 15.3831 10.8293C16.9458 12.392 17.4018 14.4666 17.2685 14.6026L17.2658 14.6ZM22.2765 26.688C22.4098 26.5626 24.4898 26.9893 26.0498 28.448C27.6098 29.9146 28.0685 31.8533 27.9351 31.9786C27.8018 32.104 25.7218 31.6773 24.1591 30.2186C22.5991 28.752 22.1405 26.8133 22.2765 26.688ZM17.2658 26.688C17.1325 26.5626 15.0525 26.9893 13.4951 28.448C11.9351 29.9146 11.4765 31.8533 11.6125 31.9786C11.7458 32.104 13.8205 31.6773 15.3831 30.2186C16.9458 28.752 17.4018 26.8133 17.2685 26.688H17.2658Z" fill="white"/>
<path fill-rule="evenodd" clip-rule="evenodd" d="M20.0007 32C20.9527 32 26.6673 26.6267 26.6673 20C26.6673 13.3733 20.9527 8 20.0007 8C19.0487 8 13.334 13.3733 13.334 20C13.334 26.6267 19.0487 32 20.0007 32Z" fill="#F93939"/>
<path fill-rule="evenodd" clip-rule="evenodd" d="M14.6673 24C14.854 24 16.0007 22.208 16.0007 20C16.0007 17.792 14.854 16 14.6673 16C14.4807 16 13.334 17.792 13.334 20C13.334 22.208 14.4807 24 14.6673 24ZM25.334 24C25.5206 24 26.6673 22.208 26.6673 20C26.6673 17.792 25.5206 16 25.334 16C25.1473 16 24.0007 17.792 24.0007 20C24.0007 22.208 25.1473 24 25.334 24Z" fill="#151515"/>
<path d="M21.3327 20C21.3327 17.7909 20.7357 16 19.9993 16C19.263 16 18.666 17.7909 18.666 20C18.666 22.2091 19.263 24 19.9993 24C20.7357 24 21.3327 22.2091 21.3327 20Z" fill="white"/>
<circle cx="20" cy="20" r="19.5" stroke="#CCCCCC"/>
</g>
<defs>
<clipPath id="clip0_6041_12936">
<path d="M0 20C0 8.95431 8.95431 0 20 0C31.0457 0 40 8.95431 40 20C40 31.0457 31.0457 40 20 40C8.95431 40 0 31.0457 0 20Z" fill="white"/>
</clipPath>
</defs>
</svg>
