<svg width="40" height="40" viewBox="0 0 40 40" fill="none" xmlns="http://www.w3.org/2000/svg">
<path d="M0 20C0 8.95431 8.95431 0 20 0C31.0457 0 40 8.95431 40 20C40 31.0457 31.0457 40 20 40C8.95431 40 0 31.0457 0 20Z" fill="#F93939"/>
<path fill-rule="evenodd" clip-rule="evenodd" d="M19.2167 25.2934C19.4753 25.32 19.7367 25.3334 20.0007 25.3334C20.2673 25.3334 20.526 25.32 20.7846 25.2934L20.0007 23.3334L19.2167 25.2934ZM15.6007 23.84C14.206 22.736 13.334 21.1254 13.334 19.3334C13.334 17.2187 14.55 15.36 16.3847 14.2934L18.6673 20L15.6007 23.84ZM23.6167 14.2934C25.4513 15.36 26.6673 17.2187 26.6673 19.3334C26.6673 21.128 25.7926 22.7387 24.4006 23.84L21.334 20L23.6167 14.2934ZM23.35 14.144C22.3633 13.6267 21.222 13.3334 20.0007 13.3334C18.7793 13.3334 17.6353 13.6267 16.6513 14.144L20.0007 18.3307L23.35 14.144Z" fill="#FFDA2C"/>
<path fill-rule="evenodd" clip-rule="evenodd" d="M20 32C26.6267 32 32 26.6267 32 20C32 13.3733 26.6267 8 20 8C13.3733 8 8 13.3733 8 20C8 26.6267 13.3733 32 20 32ZM20 29.3333C25.1547 29.3333 29.3333 25.1547 29.3333 20C29.3333 14.8453 25.1547 10.6667 20 10.6667C14.8453 10.6667 10.6667 14.8453 10.6667 20C10.6667 25.1547 14.8453 29.3333 20 29.3333Z" fill="#FFDA2C"/>
</svg>
