<svg width="40" height="40" viewBox="0 0 40 40" fill="none" xmlns="http://www.w3.org/2000/svg">
<path d="M0 20.0001C0 23.4649 0.881484 26.7238 2.4318 29.5653L20 31.3044L37.5682 29.5653C39.1185 26.7238 40 23.4649 40 20.0001C40 16.5352 39.1185 13.2763 37.5682 10.4348L20 8.69568L2.4318 10.4348C0.881484 13.2763 0 16.5352 0 20.0001H0Z" fill="#F93939"/>
<path d="M2.43164 10.4348H37.568C34.1759 4.21789 27.5807 0 19.9998 0C12.419 0 5.82375 4.21789 2.43164 10.4348Z" fill="#232C80"/>
<path d="M19.9998 40C27.5807 40 34.1759 35.7821 37.568 29.5652H2.43164C5.82375 35.7821 12.419 40 19.9998 40Z" fill="#232C80"/>
<path d="M26.9568 23.913V21.3043H25.2177V17.8261L23.4786 16.0869L21.7395 17.8261V14.3478L20.0003 12.6086L18.2612 14.3478V17.8261L16.522 16.0869L14.7829 17.8261V21.3043H13.0438V23.913H11.3047V26.5217H28.6959V23.913H26.9568Z" fill="white"/>
</svg>
