<svg width="40" height="40" viewBox="0 0 40 40" fill="none" xmlns="http://www.w3.org/2000/svg">
<g clip-path="url(#clip0_6041_12930)">
<path d="M0 20C0 8.95431 8.95431 0 20 0C31.0457 0 40 8.95431 40 20C40 31.0457 31.0457 40 20 40C8.95431 40 0 31.0457 0 20Z" fill="#F93939"/>
<path d="M19.9993 29.3333C25.154 29.3333 29.3327 25.1546 29.3327 20C29.3327 14.8453 25.154 10.6666 19.9993 10.6666C14.8447 10.6666 10.666 14.8453 10.666 20C10.666 25.1546 14.8447 29.3333 19.9993 29.3333Z" fill="#FFDA2C"/>
<path fill-rule="evenodd" clip-rule="evenodd" d="M-8 21.3334H48V40H-8V21.3334Z" fill="#232C80"/>
<path fill-rule="evenodd" clip-rule="evenodd" d="M-8 21.3334H48V24H-8V21.3334ZM-8 26.6667H48V29.3334H-8V26.6667ZM-8 32H48V34.6667H-8V32Z" fill="white"/>
<path fill-rule="evenodd" clip-rule="evenodd" d="M13.334 5.33337L20.0007 8.00004L26.6673 5.33337H13.334Z" fill="#FFDA2C"/>
<circle cx="20" cy="20" r="19.5" stroke="#CCCCCC"/>
</g>
<defs>
<clipPath id="clip0_6041_12930">
<path d="M0 20C0 8.95431 8.95431 0 20 0C31.0457 0 40 8.95431 40 20C40 31.0457 31.0457 40 20 40C8.95431 40 0 31.0457 0 20Z" fill="white"/>
</clipPath>
</defs>
</svg>
