<svg width="40" height="40" viewBox="0 0 40 40" fill="none" xmlns="http://www.w3.org/2000/svg">
<g clip-path="url(#clip0_6041_12513)">
<path d="M0 20C0 8.95431 8.95431 0 20 0C31.0457 0 40 8.95431 40 20C40 31.0457 31.0457 40 20 40C8.95431 40 0 31.0457 0 20Z" fill="white"/>
<path fill-rule="evenodd" clip-rule="evenodd" d="M-2.66602 0H53.334V10.6667H-2.66602V0Z" fill="#FFDA2C"/>
<path fill-rule="evenodd" clip-rule="evenodd" d="M-1 32.5H20V36H-1V32.5Z" fill="#F93939"/>
<path fill-rule="evenodd" clip-rule="evenodd" d="M-2.66602 29.3334H53.334V40H-2.66602V29.3334Z" fill="#232C80"/>
<path fill-rule="evenodd" clip-rule="evenodd" d="M-2.66602 0L29.334 20L-2.66602 40V0Z" fill="#00B731"/>
<path fill-rule="evenodd" clip-rule="evenodd" d="M13.3337 28.9066C12.5603 29.184 11.7337 29.3333 10.8723 29.3333C6.33899 29.3333 2.66699 25.1546 2.66699 20C2.66699 14.8453 6.34166 10.6666 10.8723 10.6666C11.731 10.6666 12.5577 10.816 13.3337 11.0933C10.0057 12.2826 7.58966 15.8213 7.58966 20C7.58966 24.1786 10.0057 27.7173 13.3337 28.9066ZM13.3337 13.3333H16.0003V16H13.3337V13.3333ZM13.3337 18.6666H16.0003V21.3333H13.3337V18.6666ZM13.3337 24H16.0003V26.6666H13.3337V24Z" fill="white"/>
<circle cx="20" cy="20" r="19.5" stroke="#CCCCCC"/>
</g>
<defs>
<clipPath id="clip0_6041_12513">
<path d="M0 20C0 8.95431 8.95431 0 20 0C31.0457 0 40 8.95431 40 20C40 31.0457 31.0457 40 20 40C8.95431 40 0 31.0457 0 20Z" fill="white"/>
</clipPath>
</defs>
</svg>
