<svg width="40" height="40" viewBox="0 0 40 40" fill="none" xmlns="http://www.w3.org/2000/svg">
<g clip-path="url(#clip0_6041_12301)">
<path d="M0 20C0 8.95431 8.95431 0 20 0C31.0457 0 40 8.95431 40 20C40 31.0457 31.0457 40 20 40C8.95431 40 0 31.0457 0 20Z" fill="#AF010D"/>
<path d="M3.50136 31.3046C2.01681 29.138 0.973551 26.7002 0.431144 24.1304C-0.111263 21.5605 -0.142195 18.9091 0.340113 16.3273C0.822422 13.7455 1.80853 11.284 3.24212 9.08334C4.67572 6.88266 6.52873 4.9859 8.69537 3.50136C10.862 2.01681 13.2998 0.973552 15.8696 0.431145C18.4395 -0.111262 21.0909 -0.142194 23.6727 0.340115C26.2545 0.822423 28.716 1.80853 30.9167 3.24212C33.1173 4.67572 35.0141 6.52874 36.4986 8.69537L20 20L3.50136 31.3046Z" fill="#249F58"/>
<path fill-rule="evenodd" clip-rule="evenodd" d="M-7.53711 30.1423L38.3354 -1.97795L46.7935 10.1014L0.920974 42.2217L-7.53711 30.1423Z" fill="#0D0A2C"/>
<path d="M10.484 19.9993L11.7791 23.985L15.9699 23.985L12.5794 26.4483L13.8745 30.4341L10.484 27.9708L7.09352 30.4341L8.38852 26.4483L4.99805 23.985L9.18891 23.985L10.484 19.9993Z" fill="white"/>
<path d="M28.4859 8L29.781 11.9858L33.9719 11.9858L30.5813 14.4491L31.8764 18.4348L28.4859 15.9715L25.0955 18.4348L26.3905 14.4491L23 11.9858L27.1909 11.9858L28.4859 8Z" fill="white"/>
<path fill-rule="evenodd" clip-rule="evenodd" d="M0.814453 41.6409L46.687 9.52059L48.2165 11.705L2.34399 43.8253L0.814453 41.6409Z" fill="#FFDA2C"/>
<path fill-rule="evenodd" clip-rule="evenodd" d="M-8.92578 28.5862L36.9467 -3.5341L38.4763 -1.34969L-7.39624 30.7706L-8.92578 28.5862Z" fill="#FFDA2C"/>
</g>
<defs>
<clipPath id="clip0_6041_12301">
<path d="M0 20C0 8.95431 8.95431 0 20 0C31.0457 0 40 8.95431 40 20C40 31.0457 31.0457 40 20 40C8.95431 40 0 31.0457 0 20Z" fill="white"/>
</clipPath>
</defs>
</svg>
