<svg width="40" height="40" viewBox="0 0 40 40" fill="none" xmlns="http://www.w3.org/2000/svg">
<path d="M0 20C0 8.95431 8.95431 0 20 0C31.0457 0 40 8.95431 40 20C40 31.0457 31.0457 40 20 40C8.95431 40 0 31.0457 0 20Z" fill="white"/>
<path fill-rule="evenodd" clip-rule="evenodd" d="M29.3327 20C29.3327 25.1547 25.154 29.3333 19.9993 29.3333C14.8447 29.3333 10.666 25.1547 10.666 20C10.666 17.0133 16.9327 15.76 22.2073 16.232C22.7673 16.0827 23.37 16 23.9993 16C26.946 16 29.3327 17.792 29.3327 20Z" fill="#232C80"/>
<path fill-rule="evenodd" clip-rule="evenodd" d="M18.666 18.6667C18.666 18.6667 21.0527 16.0001 23.9993 16.0001C26.946 16.0001 29.3327 17.7921 29.3327 20.0001C29.3327 14.8454 25.154 10.6667 19.9993 10.6667C16.274 10.6667 13.058 12.8481 11.562 16.0054C10.666 18.6667 10.666 19.4454 10.666 20.0001C11.9993 21.3334 13.482 21.3334 14.666 21.3334C15.85 21.3334 16.914 20.8187 17.6473 20.0001L18.666 18.6667Z" fill="#F93939"/>
<path fill-rule="evenodd" clip-rule="evenodd" d="M31.9993 13.3333H37.3327L31.9993 8H29.3327L31.9993 13.3333ZM7.99935 13.3333H2.66602L7.99935 8H10.666L7.99935 13.3333ZM31.9993 26.6667H37.3327L31.9993 32H29.3327L31.9993 26.6667ZM7.99935 26.6667H2.66602L7.99935 32H10.666L7.99935 26.6667Z" fill="#151515"/>
<circle cx="20" cy="20" r="19.5" stroke="#CCCCCC"/>
</svg>
