<svg width="40" height="40" viewBox="0 0 40 40" fill="none" xmlns="http://www.w3.org/2000/svg">
<path d="M40 20C40 31.0456 31.0456 40 20 40C8.95437 40 0 31.0456 0 20C0 20.0048 20 0.0021875 20 0C31.0456 0 40 8.95437 40 20Z" fill="#0052B4"/>
<path d="M19.9473 20H20.0008C20.0008 19.9821 20.0008 19.9646 20.0008 19.9465C19.983 19.9644 19.9652 19.9822 19.9473 20Z" fill="white"/>
<path d="M20 10.4348C20 6.91563 20 4.60977 20 0H19.9966C8.95242 0.001875 0 8.95539 0 20H10.4348V14.1241L16.3106 20H19.9466C19.9644 19.9822 19.9822 19.9644 20.0001 19.9465C20.0001 18.5991 20.0001 17.3968 20.0001 16.3108L14.1241 10.4348H20Z" fill="white"/>
<path d="M28.6951 14.7826C30.6161 14.7826 32.1734 13.2253 32.1734 11.3043C32.1734 9.38333 30.6161 7.82605 28.6951 7.82605C26.7741 7.82605 25.2168 9.38333 25.2168 11.3043C25.2168 13.2253 26.7741 14.7826 28.6951 14.7826Z" fill="#6DA544"/>
<path d="M10.1191 2.60864C6.99102 4.38981 4.39047 6.99028 2.60938 10.1183V20H7.8268V7.82622V7.82607H20.0007C20.0007 6.18052 20.0007 4.61286 20.0007 2.60864H10.1191Z" fill="#D80027"/>
<path d="M20.0008 17.5405L12.8949 10.4348H10.4355V10.435L20.0006 20H20.0008C20.0008 20 20.0008 18.3041 20.0008 17.5405Z" fill="#D80027"/>
<path d="M22.6094 10.4347H34.7833V15.6521H22.6094V10.4347Z" fill="#D80027"/>
<path d="M22.6094 23.4783V26.9566H24.4394C25.5366 28.0319 27.0386 28.6957 28.6963 28.6957C30.3541 28.6957 31.856 28.0319 32.9533 26.9566H33.0441H34.7833V23.4783H22.6094Z" fill="#FFDA2C"/>
<path d="M22.6094 14.7826V20C22.6094 24.6593 28.6963 26.087 28.6963 26.087C28.6963 26.087 34.7833 24.6593 34.7833 20V14.7826H22.6094Z" fill="#338AF3"/>
<path d="M28.6959 17.5695C27.1743 17.5695 27.1743 18.9608 25.6527 18.9608C24.131 18.9608 24.131 17.5695 22.6094 17.5695V20.0042C24.131 20.0042 24.131 21.3956 25.6527 21.3956C27.1743 21.3956 27.1743 20.0042 28.6959 20.0042C30.2177 20.0042 30.2177 21.3956 31.7396 21.3956C33.2615 21.3956 33.2614 20.0042 34.7833 20.0042V17.5695C33.2615 17.5695 33.2615 18.9608 31.7396 18.9608C30.2177 18.9608 30.2177 17.5695 28.6959 17.5695Z" fill="white"/>
<path d="M28.6959 12.6957C27.1743 12.6957 27.1743 14.087 25.6527 14.087C24.131 14.087 24.131 12.6957 22.6094 12.6957V15.1304C24.131 15.1304 24.131 16.5218 25.6527 16.5218C27.1743 16.5218 27.1743 15.1304 28.6959 15.1304C30.2177 15.1304 30.2177 16.5218 31.7396 16.5218C33.2615 16.5218 33.2614 15.1304 34.7833 15.1304V12.6957C33.2615 12.6957 33.2615 14.087 31.7396 14.087C30.2177 14.087 30.2177 12.6957 28.6959 12.6957Z" fill="white"/>
<circle cx="20" cy="20" r="19.5" stroke="#CCCCCC"/>
</svg>
