<svg width="40" height="40" viewBox="0 0 40 40" fill="none" xmlns="http://www.w3.org/2000/svg">
<path d="M0 20C0 8.95431 8.95431 0 20 0C31.0457 0 40 8.95431 40 20C40 31.0457 31.0457 40 20 40C8.95431 40 0 31.0457 0 20Z" fill="#03BCDB"/>
<path fill-rule="evenodd" clip-rule="evenodd" d="M2.66602 6.65337C2.66602 5.92537 3.28468 5.33337 3.99935 5.33337C4.73535 5.33337 5.33268 5.90937 5.33268 6.65337V12.0134C5.33268 12.7414 4.71402 13.3334 3.99935 13.3334C3.26335 13.3334 2.66602 12.7574 2.66602 12.0134V6.65337ZM5.33268 11.9867C5.33268 11.2587 5.95135 10.6667 6.66602 10.6667C7.40202 10.6667 7.99935 11.2427 7.99935 11.9867V17.3467C7.99935 18.0747 7.38068 18.6667 6.66602 18.6667C5.93002 18.6667 5.33268 18.0907 5.33268 17.3467V11.9867ZM5.33268 22.6534C5.33268 21.9254 5.95135 21.3334 6.66602 21.3334C7.40202 21.3334 7.99935 21.9094 7.99935 22.6534V28.0134C7.99935 28.7414 7.38068 29.3334 6.66602 29.3334C5.93002 29.3334 5.33268 28.7574 5.33268 28.0134V22.6534ZM2.66602 27.9867C2.66602 27.2587 3.28468 26.6667 3.99935 26.6667C4.73535 26.6667 5.33268 27.2427 5.33268 27.9867V33.3467C5.33268 34.0747 4.71402 34.6667 3.99935 34.6667C3.26335 34.6667 2.66602 34.0907 2.66602 33.3467V27.9867ZM2.66602 17.3334C2.66602 16.5974 3.28468 16 3.99935 16C4.73535 16 5.33268 16.6187 5.33268 17.3334C5.33268 18.0694 4.71402 18.6667 3.99935 18.6667C3.26335 18.6667 2.66602 18.048 2.66602 17.3334ZM5.33268 6.66671C5.33268 5.93071 5.95135 5.33337 6.66602 5.33337C7.40202 5.33337 7.99935 5.95204 7.99935 6.66671C7.99935 7.40271 7.38068 8.00004 6.66602 8.00004C5.93002 8.00004 5.33268 7.38137 5.33268 6.66671ZM2.66602 20C2.66602 19.264 3.28468 18.6667 3.99935 18.6667C4.73535 18.6667 5.33268 19.2854 5.33268 20C5.33268 20.736 4.71402 21.3334 3.99935 21.3334C3.26335 21.3334 2.66602 20.7147 2.66602 20ZM5.33268 33.3334C5.33268 32.5974 5.95135 32 6.66602 32C7.40202 32 7.99935 32.6187 7.99935 33.3334C7.99935 34.0694 7.38068 34.6667 6.66602 34.6667C5.93002 34.6667 5.33268 34.048 5.33268 33.3334ZM2.66602 22.6667C2.66602 21.9307 3.28468 21.3334 3.99935 21.3334C4.73535 21.3334 5.33268 21.952 5.33268 22.6667C5.33268 23.4027 4.71402 24 3.99935 24C3.26335 24 2.66602 23.3814 2.66602 22.6667Z" fill="#FFDA2C"/>
<path d="M27.9987 24C31.6806 24 34.6654 21.0152 34.6654 17.3333C34.6654 13.6514 31.6806 10.6666 27.9987 10.6666C24.3168 10.6666 21.332 13.6514 21.332 17.3333C21.332 21.0152 24.3168 24 27.9987 24Z" fill="#FFDA2C"/>
<path fill-rule="evenodd" clip-rule="evenodd" d="M18.666 18.6666L21.3327 24L27.9993 26.6666L34.666 24L37.3327 18.6666V26.6666L27.9993 29.3333L18.666 26.6666V18.6666Z" fill="#FFDA2C"/>
</svg>
