<svg width="40" height="40" viewBox="0 0 40 40" fill="none" xmlns="http://www.w3.org/2000/svg">
<g clip-path="url(#clip0_6041_12971)">
<path d="M0 20C0 8.95431 8.95431 0 20 0C31.0457 0 40 8.95431 40 20C40 31.0457 31.0457 40 20 40C8.95431 40 0 31.0457 0 20Z" fill="#232C80"/>
<path fill-rule="evenodd" clip-rule="evenodd" d="M20.0007 26.6667C23.6807 26.6667 26.6673 23.68 26.6673 20C26.6673 16.32 23.6807 13.3334 20.0007 13.3334C16.3207 13.3334 13.334 16.32 13.334 20C13.334 23.68 16.3207 26.6667 20.0007 26.6667Z" fill="white"/>
<path fill-rule="evenodd" clip-rule="evenodd" d="M-8 29.3333H48V40H-8V29.3333ZM-8 0H48V10.6667H-8V0Z" fill="#F93939"/>
</g>
<defs>
<clipPath id="clip0_6041_12971">
<path d="M0 20C0 8.95431 8.95431 0 20 0C31.0457 0 40 8.95431 40 20C40 31.0457 31.0457 40 20 40C8.95431 40 0 31.0457 0 20Z" fill="white"/>
</clipPath>
</defs>
</svg>
