<svg width="40" height="40" viewBox="0 0 40 40" fill="none" xmlns="http://www.w3.org/2000/svg">
<g clip-path="url(#clip0_6041_12980)">
<path d="M0 20C0 8.95431 8.95431 0 20 0C31.0457 0 40 8.95431 40 20C40 31.0457 31.0457 40 20 40C8.95431 40 0 31.0457 0 20Z" fill="#F93939"/>
<path fill-rule="evenodd" clip-rule="evenodd" d="M-8 0H48V18.6667H-8V0Z" fill="#1A47B8"/>
<path fill-rule="evenodd" clip-rule="evenodd" d="M8 13.3334H18.6667V16H8V13.3334Z" fill="#D4AF2C"/>
<path fill-rule="evenodd" clip-rule="evenodd" d="M10.693 8.37871C9.87168 8.16537 8.93301 8.00004 7.99967 8.00004C5.33301 8.00004 5.33301 9.33337 5.33301 10.6667C5.33301 12 7.99967 13.3334 7.99967 13.3334H18.6663C18.6663 13.3334 21.333 12 21.333 10.6667C21.333 9.33337 21.333 8.00004 18.6663 8.00004C17.733 8.00004 16.7943 8.16537 15.973 8.37871C15.9917 8.25337 15.9997 8.12804 15.9997 8.00004C15.9997 6.52804 14.805 5.33337 13.333 5.33337C11.861 5.33337 10.6663 6.52804 10.6663 8.00004C10.6663 8.12804 10.6743 8.25337 10.693 8.37871Z" fill="#FFDA2C"/>
</g>
<defs>
<clipPath id="clip0_6041_12980">
<path d="M0 20C0 8.95431 8.95431 0 20 0C31.0457 0 40 8.95431 40 20C40 31.0457 31.0457 40 20 40C8.95431 40 0 31.0457 0 20Z" fill="white"/>
</clipPath>
</defs>
</svg>
