<svg width="40" height="40" viewBox="0 0 40 40" fill="none" xmlns="http://www.w3.org/2000/svg">
<g clip-path="url(#clip0_6041_13554)">
<path d="M0 20C0 8.95431 8.95431 0 20 0C31.0457 0 40 8.95431 40 20C40 31.0457 31.0457 40 20 40C8.95431 40 0 31.0457 0 20Z" fill="#FFDA2C"/>
<rect x="-8" width="56" height="40" fill="#FFDA2C"/>
<rect opacity="0.3" x="-8" width="56" height="40" fill="#FF6C2D"/>
<path fill-rule="evenodd" clip-rule="evenodd" d="M-2.66602 5.33325H5.33398V34.6666H-2.66602V5.33325Z" fill="#0A6A30"/>
<path fill-rule="evenodd" clip-rule="evenodd" d="M5.33398 5.33325H13.334V34.6666H5.33398V5.33325Z" fill="#FF6C2D"/>
<path opacity="0.2" fill-rule="evenodd" clip-rule="evenodd" d="M5.33398 5.33325H13.334V34.6666H5.33398V5.33325Z" fill="#151515"/>
<path fill-rule="evenodd" clip-rule="evenodd" d="M16 5.33325H42.6667V34.6666H16V5.33325ZM25.4267 28.3093L25.5814 28.192L25.6454 28.3093C25.7334 28.4693 25.976 28.464 26.136 28.3093L26.2614 28.184L26.368 28.304C26.5014 28.464 26.752 28.464 26.912 28.304C27.0294 28.192 27.0454 28.1893 27.12 28.2773C27.1627 28.3253 27.2934 28.384 27.408 28.4026C27.616 28.44 27.6214 28.4373 27.7414 28.1946C27.848 27.992 27.8614 27.912 27.8374 27.7146C27.8214 27.5813 27.8027 27.3733 27.7974 27.248C27.792 27.0186 27.792 27.016 28.0427 26.9013C28.176 26.8373 28.336 26.752 28.3974 26.7093C28.496 26.64 28.7707 26.2106 28.7707 26.1226C28.7707 26.1013 28.664 26.0693 28.5307 26.048C28.0107 25.968 27.9227 25.5946 28.264 24.9013C28.816 23.776 29.1494 22.6746 29.152 21.9733C29.152 21.6613 29.1654 21.5546 29.1974 21.6266C29.32 21.9013 29.0987 23.0666 28.7627 23.9066L28.6294 24.2453L28.7574 24.2053C28.8267 24.1786 29.2454 23.9466 29.6827 23.6826C30.8827 22.9626 31.296 22.8186 32.0747 22.8613C32.7254 22.8986 33.0027 23.0666 33.4614 23.7093C33.7067 24.048 33.9414 24.2906 34.368 24.648C35.2854 25.4106 35.3227 25.4746 35.3654 26.3706C35.4107 27.2773 35.392 27.3306 34.872 27.48C34.432 27.608 34.152 27.88 34.08 28.2613C34.0427 28.4666 34.1254 28.4746 34.3467 28.2826L34.5067 28.144L34.5814 28.2826C34.6774 28.4693 34.88 28.4693 35.048 28.2826L35.1734 28.1493L35.3014 28.2826C35.504 28.496 35.7734 28.448 35.848 28.176C35.8614 28.128 35.9014 28.144 35.9814 28.2346C36.128 28.4053 36.504 28.48 36.5467 28.3413C36.5627 28.2933 36.5307 28.168 36.48 28.064C36.2614 27.6266 36.192 27.416 36.1867 27.1786C36.1867 26.848 36.2587 26.688 36.544 26.416C36.8907 26.088 36.9974 25.6693 36.736 25.6693C36.576 25.6693 36.4107 25.4746 36.3094 25.1626C36.096 24.536 36.136 23.8293 36.4534 22.656C36.7734 21.456 36.8107 21.2426 36.8134 20.4426C36.8134 19.7946 36.8054 19.6826 36.6934 19.328C36.6267 19.1146 36.488 18.7893 36.3894 18.6133L36.2107 18.2933L36.4427 18.032C37.1547 17.248 37.0107 15.9626 36.1494 15.472C35.8907 15.3173 35.824 15.304 35.3654 15.312C35.088 15.312 34.672 15.36 34.432 15.4186C34.1867 15.472 33.776 15.52 33.4934 15.52C33.0454 15.52 32.9707 15.5093 32.8 15.3866C32.6187 15.2586 32.5867 15.2 32.552 14.9066C32.5467 14.8426 32.5147 14.784 32.4827 14.7733C32.4214 14.7466 32.136 15.0666 32.0987 15.216C32.0774 15.2853 32.0587 15.28 32 15.1893C31.96 15.1226 31.904 14.976 31.8747 14.864C31.8027 14.576 31.8907 14.3573 32.1414 14.1973L32.3414 14.0746L32.2294 13.9786C31.9894 13.7813 31.5814 13.9146 31.4347 14.2453C31.392 14.3333 31.3467 14.4106 31.3334 14.4106C31.32 14.4106 31.24 14.3226 31.1574 14.216C30.848 13.816 30.9547 13.2186 31.3707 13.0346C31.5894 12.9386 31.784 13.0133 31.824 13.208C31.8854 13.5066 32.08 13.1146 32.0454 12.76C32.0187 12.5253 32.0187 12.5146 32.144 12.5146C32.3147 12.5146 32.6774 12.8133 32.792 13.048C32.9254 13.3146 32.912 13.7413 32.7654 14.056L32.6587 14.304L32.8027 14.2666C33.016 14.208 33.2294 14.0266 33.336 13.8133C33.448 13.584 33.4614 13.1386 33.3627 12.896C33.264 12.664 33.2747 12.6293 33.416 12.7093C33.6614 12.8426 33.7894 12.9866 33.888 13.2426C33.9787 13.4693 33.984 13.5253 33.936 13.7626C33.9094 13.9093 33.8427 14.1013 33.792 14.1893C33.712 14.3306 33.712 14.3546 33.7734 14.3546C33.888 14.3546 34.1334 14.208 34.2187 14.088C34.2614 14.024 34.3254 13.8746 34.36 13.7466L34.4214 13.5226L34.4934 13.6933C34.5947 13.9333 34.7867 14.1546 35.0267 14.2906C35.2854 14.44 35.392 14.4506 35.2587 14.312C35.168 14.2186 35 13.5653 35.0507 13.504C35.0774 13.4666 35.4294 13.824 35.824 14.2986C36.2027 14.752 36.4374 14.896 36.784 14.896C37.2294 14.896 37.4854 14.384 37.2907 13.9013C37.1707 13.6186 36.912 13.5813 36.7627 13.8213C36.6934 13.9333 36.6747 14.0213 36.6934 14.136C36.72 14.28 36.7094 14.296 36.6134 14.296C36.48 14.296 36.2294 14.0826 35.7814 13.5813C35.096 12.8213 34.2614 12.176 33.6614 11.9413C33.2747 11.7866 32.4507 11.728 32.0614 11.824C31.6347 11.9253 31.128 12.2506 30.856 12.5973C30.3707 13.2106 30.3654 14.024 30.8374 14.768L30.9707 14.9813L30.88 15.168C30.7467 15.4453 30.7574 15.816 30.9067 16.088C30.9734 16.208 31.04 16.3066 31.056 16.3066C31.072 16.3066 31.088 16.2266 31.0934 16.1333C31.1067 15.8933 31.184 15.7333 31.3174 15.672C31.4347 15.6133 31.512 15.64 32.0587 15.928C32.632 16.2346 33.5734 16.2533 34.576 15.9813C35.0694 15.8533 35.648 15.8613 35.904 16.0026C36.3707 16.264 36.48 16.9413 36.136 17.456C35.9867 17.6746 35.8427 17.7653 35.3627 17.9413C34.9947 18.0746 34.9094 18.0853 34.0747 18.0746C33.3627 18.064 33.1067 18.0826 32.816 18.1626C32.5014 18.2506 32.3094 18.2586 31.3814 18.2293L30.3094 18.192L30.4294 18.3253C30.4934 18.3946 30.5894 18.4853 30.6347 18.52C30.7147 18.5786 30.7147 18.5866 30.592 18.6453C30.52 18.6826 30.3654 18.7093 30.2454 18.7093H30.024L29.9974 18.96C29.9814 19.0986 29.9814 19.2533 29.9974 19.3146C30.024 19.4026 30.016 19.4133 29.944 19.3813C29.9014 19.3546 29.7734 19.3146 29.6614 19.2826C29.5494 19.2506 29.4 19.1893 29.328 19.1413C29.2054 19.0613 29.1947 19.0613 29.1467 19.168C29.1094 19.264 28.736 19.632 28.68 19.632C28.672 19.632 28.6614 19.56 28.6534 19.472C28.6534 19.3866 28.6 19.16 28.536 18.9706C28.4774 18.784 28.4134 18.576 28.3974 18.512C28.3707 18.416 28.3627 18.4106 28.3307 18.4853C28.312 18.5306 28.2827 18.6586 28.2667 18.7706C28.2534 18.8773 28.1974 19.064 28.144 19.1706L28.048 19.368L27.9867 19.1973C27.9227 19.016 27.8134 18.824 27.7734 18.824C27.76 18.824 27.736 18.8853 27.72 18.9573C27.6934 19.104 27.4347 19.5173 27.3734 19.5173C27.3467 19.5173 27.328 19.4 27.328 19.2586C27.328 19.1146 27.3094 19 27.2827 19C27.2614 19 27.24 19.0346 27.24 19.08C27.24 19.1866 27.0187 19.5146 26.9467 19.5146C26.912 19.5146 26.8614 19.552 26.8294 19.6C26.7494 19.7226 26.6827 19.7066 26.7147 19.5733C26.7334 19.5066 26.7227 19.36 26.6934 19.24L26.6214 18.96C26.6107 18.9173 26.5334 18.928 26.3654 19C26.0934 19.1146 26.0027 19.096 26.1414 18.9466C26.1947 18.8933 26.2747 18.712 26.3147 18.5413C26.3574 18.3706 26.4214 18.2213 26.4587 18.2026C26.5067 18.1866 26.504 18.2106 26.4454 18.3146C26.4054 18.3893 26.3707 18.4906 26.3707 18.5386C26.3707 18.5866 26.336 18.6986 26.2987 18.792C26.2614 18.888 26.2374 18.9706 26.2454 18.9786C26.256 18.992 26.3574 18.9413 26.4747 18.8666L26.688 18.7333V18.8533C26.688 18.92 26.7147 19.0933 26.7414 19.2426L26.8 19.5093L26.944 19.4213C27.0907 19.3306 27.232 19.008 27.232 18.76C27.232 18.632 27.2854 18.6533 27.3067 18.7866L27.3814 19.1066L27.4454 19.3573L27.544 19.1973C27.5974 19.1093 27.6694 18.9386 27.6987 18.816C27.752 18.608 27.8267 18.5173 27.8267 18.6693C27.8267 18.7813 28.056 19.176 28.0987 19.144C28.12 19.128 28.1627 18.9786 28.192 18.8133C28.256 18.4666 28.3574 18.232 28.424 18.28C28.4507 18.3013 28.456 18.3333 28.4427 18.36C28.432 18.3866 28.4827 18.6133 28.56 18.8613C28.64 19.1093 28.72 19.36 28.7334 19.416C28.76 19.5093 28.7867 19.496 28.952 19.3013C29.0587 19.1813 29.1494 19.048 29.16 19.0026C29.176 18.9386 29.2 18.9413 29.2934 19.0186C29.4267 19.1306 29.88 19.312 29.9147 19.264C29.928 19.248 29.9414 19.0906 29.9414 18.9173L29.9494 18.5973L30.0827 18.632C30.1547 18.6533 30.304 18.6506 30.416 18.632L30.6187 18.592L30.44 18.4266C30.3414 18.336 30.24 18.2186 30.216 18.1653C30.1894 18.112 30.0987 18.0586 30.0027 18.0506C29.728 18.0186 29.2454 17.6586 29.2454 17.4906C29.2454 17.456 29.312 17.5093 29.3947 17.6106C29.576 17.8293 29.8267 17.968 30.0454 17.968H30.2107L30.1094 17.792C30.0507 17.6853 29.9974 17.4933 29.984 17.3306C29.9654 17.0773 29.944 17.0373 29.744 16.8506C29.624 16.7386 29.472 16.5706 29.4107 16.4773L29.2987 16.3093L29.24 16.5093C29.208 16.6213 29.168 16.7093 29.1547 16.7093C29.1387 16.7093 29.0747 16.6453 29.0214 16.568C28.96 16.488 28.8987 16.424 28.888 16.424C28.8694 16.424 28.8187 16.5306 28.768 16.664L28.68 16.896L28.6107 16.7626C28.5707 16.6826 28.4827 16.5546 28.4107 16.4693C28.3387 16.3786 28.2987 16.3093 28.3254 16.3093C28.352 16.3093 28.4427 16.4 28.5254 16.5093L28.6774 16.712L28.7387 16.5626C28.7734 16.4773 28.7867 16.3413 28.7707 16.232C28.744 16.072 28.7494 16.0666 28.7974 16.1653C28.824 16.2293 28.912 16.352 28.992 16.432L29.136 16.592L29.2347 16.352C29.3334 16.112 29.336 16.112 29.3787 16.2506C29.44 16.4426 29.872 16.9173 30.24 17.1893C30.2934 17.232 30.272 17.0826 30.168 16.7493C30.1414 16.6613 30.1147 16.5013 30.1147 16.3946C30.1147 16.2346 30.0827 16.1626 29.928 16.008C29.7094 15.784 29.64 15.6266 29.5974 15.2666C29.5814 15.12 29.544 14.9573 29.512 14.9066C29.4667 14.8266 29.4587 14.872 29.472 15.1413C29.4774 15.328 29.4587 15.552 29.4294 15.648L29.376 15.8186L29.3334 15.6746C29.3067 15.5946 29.208 15.4613 29.1067 15.368C29 15.28 28.9334 15.192 28.9467 15.1733C28.96 15.1573 29.0667 15.2373 29.1787 15.3546C29.352 15.5333 29.392 15.552 29.4134 15.4746C29.44 15.3813 29.4134 14.9786 29.36 14.7013C29.3334 14.5573 29.3334 14.5573 29.4667 14.728C29.5627 14.8613 29.6134 15.0106 29.6534 15.2773C29.7067 15.616 29.7334 15.6773 29.968 15.944C30.1094 16.112 30.2347 16.2373 30.24 16.2266C30.2507 16.216 30.2667 15.7893 30.28 15.28C30.3067 14.3066 30.28 14.0746 30.1014 13.7733L30.0107 13.6186L30.152 13.4133C30.3387 13.1466 30.424 12.9333 30.4614 12.64L30.4934 12.4L30.3334 12.6053C30.2 12.7706 30.1387 12.808 29.9867 12.808C29.8347 12.808 29.7734 12.776 29.6747 12.6293C29.552 12.456 29.3334 12.2906 29.1254 12.208C29.0454 12.1813 29.0187 12.192 29.0187 12.2613C29.0187 12.3146 28.9787 12.4586 28.9254 12.5866L28.832 12.8213L28.6347 12.56C28.512 12.4 28.368 12.2773 28.2614 12.24C27.9867 12.144 27.9734 12.152 27.9734 12.4266C27.9734 12.8346 27.84 12.912 27.6 12.64C27.4214 12.4266 27.2694 12.384 26.9254 12.4346L26.6587 12.4746L26.712 12.6346C26.7494 12.768 26.7387 12.8213 26.6534 12.9733C26.5147 13.2186 26.3334 13.3253 26.056 13.3253C25.928 13.3253 25.768 13.36 25.6987 13.4053C25.632 13.4453 25.464 13.496 25.3254 13.512C25.1867 13.5306 25.04 13.5653 24.9974 13.584C24.9334 13.616 24.9254 13.5893 24.944 13.392C24.9787 13.088 24.8214 12.8666 24.5707 12.8666C24.2507 12.8666 24.104 13.248 24.2294 13.752C24.253 13.8372 24.2767 13.9685 24.2929 14.0585L24.2987 14.0906C24.3174 14.184 24.4587 14.432 24.64 14.6693C24.8107 14.8986 24.9707 15.136 24.9974 15.1973C25.024 15.2586 25.112 15.3573 25.192 15.416L25.3387 15.5226L25.32 15.3173C25.2987 15.088 25.336 15.0506 25.4267 15.2106C25.4614 15.272 25.544 15.3653 25.6134 15.424C25.72 15.5093 25.7387 15.512 25.7387 15.4346C25.7387 15.3813 25.76 15.2746 25.7867 15.184L25.84 15.024L25.92 15.2426C25.968 15.3626 26.1227 15.6373 26.2614 15.856C26.5334 16.2693 26.6987 16.736 26.6134 16.8426C26.5787 16.888 26.4854 16.8826 26.2934 16.832C26.1414 16.7946 25.9547 16.7733 25.8774 16.7866C25.7174 16.8133 25.7094 16.7866 25.8054 16.6266C25.9067 16.4586 25.8907 16.432 25.6907 16.432C25.4587 16.432 24.8854 16.2826 24.664 16.1653C24.4507 16.0586 24.3974 16.0853 24.336 16.352L24.2214 16.8453L24.16 17.112L24.392 17.0853C24.52 17.0666 24.6854 17.032 24.7574 17C24.832 16.9733 24.8987 16.9573 24.9067 16.9653C24.9147 16.976 24.88 17.0826 24.8347 17.2L24.744 17.4133L24.8907 17.376C24.9707 17.3546 25.0907 17.3013 25.1574 17.2586C25.2747 17.184 25.2827 17.1893 25.376 17.384C25.488 17.624 25.5787 17.616 25.5974 17.3573C25.6187 17.096 25.6854 17.136 25.8107 17.4853C25.9254 17.8213 26.0507 17.9386 26.072 17.7413C26.08 17.6773 26.1414 17.568 26.2134 17.5013C26.3547 17.368 26.4614 17.4106 26.52 17.6186C26.5867 17.832 26.4454 18.056 26.04 18.3866C25.2134 19.048 24.7387 19.9546 24.6 21.1066C24.4774 22.1466 24.8614 23.224 25.632 23.9973C26 24.3706 26.5867 24.7573 26.5494 24.6106C26.3947 23.976 26.4 22.7706 26.56 22.5653C26.5867 22.5333 26.576 22.6586 26.5414 22.8426C26.4134 23.5306 26.4694 24.0773 26.8 25.36C27.0934 26.5226 27.056 27.0186 26.6347 27.344C26.5014 27.4506 26.4107 27.4666 26.048 27.4613C25.6534 27.456 25.6107 27.4666 25.4827 27.6C25.36 27.7333 25.2027 28.16 25.2027 28.3573C25.2027 28.464 25.2907 28.4506 25.4694 28.3146L25.4267 28.3093ZM22.44 26.176C22.4827 26.104 22.5147 25.9893 22.5147 25.9226C22.5147 25.8213 22.5494 25.7946 22.72 25.7626L22.9254 25.7253L22.792 25.5786C22.6267 25.408 22.6107 25.2746 22.7547 25.2746C22.896 25.2746 23.1387 25.0773 23.176 24.928C23.1947 24.864 23.184 24.7733 23.1547 24.7253C23.0747 24.6053 22.9227 24.624 22.896 24.7573C22.864 24.9013 22.816 24.904 22.7014 24.7573C22.5307 24.544 22.5254 24.096 22.6934 23.8346C22.768 23.712 22.768 23.7013 22.6667 23.5786C22.56 23.44 22.48 23.1706 22.5334 23.1066C22.5494 23.088 22.6347 23.1066 22.72 23.144C22.848 23.1973 22.8987 23.2026 22.9494 23.144C23.1094 22.984 22.936 22.7706 22.6827 22.8186C22.584 22.8373 22.544 22.8186 22.528 22.7493C22.5174 22.696 22.4294 22.624 22.328 22.5893C22.152 22.5306 22.1494 22.536 22.1494 22.696C22.1494 22.8746 22.0694 22.9093 21.928 22.7946C21.808 22.7013 21.6934 22.7733 21.6934 22.9413C21.6934 23.096 21.8134 23.1733 22.024 23.1546C22.184 23.1413 22.192 23.304 22.0374 23.5333L21.9254 23.7013L22.0134 23.8693C22.1467 24.1173 22.1334 24.5306 21.9867 24.736L21.88 24.896L21.8054 24.768C21.704 24.5893 21.5654 24.6026 21.5254 24.7946C21.4987 24.92 21.5254 24.976 21.64 25.1093C21.72 25.1973 21.8347 25.2693 21.896 25.2693C22.0507 25.2693 22.0454 25.4293 21.8854 25.5946L21.76 25.7226L21.9574 25.7626C22.064 25.784 22.1494 25.8266 22.1494 25.856C22.1494 25.9626 22.2827 26.304 22.328 26.304C22.3547 26.304 22.408 26.2506 22.4427 26.1786L22.44 26.176ZM23.1147 20.3893C23.5574 20.1306 23.5947 19.472 23.1787 19.296C23.0054 19.2266 22.896 19.2693 22.832 19.4213C22.7787 19.5413 22.8134 19.7573 22.8854 19.7573C22.9067 19.7573 22.9254 19.7946 22.9254 19.8426C22.9254 20.072 22.2507 20.176 21.976 19.9893C21.88 19.9226 21.8427 19.7546 21.9227 19.7546C21.976 19.7546 22.0214 19.5786 21.992 19.456C21.9494 19.2906 21.8214 19.232 21.64 19.296C21.2267 19.44 21.24 20.0853 21.6587 20.3626C22.0054 20.584 22.7627 20.5973 23.12 20.3893H23.1147ZM22.84 19.8826C22.8667 19.856 22.856 19.8026 22.8134 19.7573C22.72 19.6586 22.7254 19.512 22.8267 19.344C22.9067 19.2186 22.9147 19.032 22.9414 17.1413C22.9867 13.8773 23.168 11.4266 23.408 10.84C23.504 10.6053 23.488 10.6 23.2427 10.8266C22.9227 11.1146 22.6827 11.4933 22.4694 12.0266C22.064 13.04 21.9227 14.4053 21.9227 17.3173C21.9227 18.9706 21.9334 19.184 22.0027 19.344C22.072 19.488 22.0747 19.544 22.0294 19.7013C21.9974 19.8026 21.984 19.9013 21.9974 19.9146C22.088 20.032 22.744 20.0026 22.8427 19.88L22.84 19.8826ZM21.3333 7.99992H18.6667V10.6666H21.3333V7.99992ZM40 7.99992H37.3333V10.6666H40V7.99992ZM21.3333 29.3333H18.6667V31.9999H21.3333V29.3333ZM40 29.3333H37.3333V31.9999H40V29.3333Z" fill="#AF010D"/>
</g>
<defs>
<clipPath id="clip0_6041_13554">
<path d="M0 20C0 8.95431 8.95431 0 20 0C31.0457 0 40 8.95431 40 20C40 31.0457 31.0457 40 20 40C8.95431 40 0 31.0457 0 20Z" fill="white"/>
</clipPath>
</defs>
</svg>
