<svg width="40" height="40" viewBox="0 0 40 40" fill="none" xmlns="http://www.w3.org/2000/svg">
<g clip-path="url(#clip0_6041_12991)">
<path d="M0 20C0 8.95431 8.95431 0 20 0C31.0457 0 40 8.95431 40 20C40 31.0457 31.0457 40 20 40C8.95431 40 0 31.0457 0 20Z" fill="white"/>
<path fill-rule="evenodd" clip-rule="evenodd" d="M10.6667 0H48V2.66667H10.6667V0ZM10.6667 5.33333H48V8H10.6667V5.33333ZM10.6667 10.6667H48V13.3333H10.6667V10.6667ZM10.6667 16H48V18.6667H10.6667V16ZM-8 21.3333H48V24H-8V21.3333ZM-8 26.6667H48V29.3333H-8V26.6667ZM-8 32H48V34.6667H-8V32Z" fill="#F93939"/>
<path d="M48 37.3333H-8V40H48V37.3333Z" fill="#F93939"/>
<path fill-rule="evenodd" clip-rule="evenodd" d="M0 0H18.6667V18.6667H0V0Z" fill="#1A47B8"/>
<path fill-rule="evenodd" clip-rule="evenodd" d="M9.17366 13.0586L5.15233 15.1733L5.92033 10.6933L2.66699 7.52793L7.16299 6.87459L9.17366 2.79993L11.1843 6.87193L15.6803 7.52526L12.427 10.6986L13.195 15.1733" fill="white"/>
<circle cx="20" cy="20" r="19.5" stroke="#CCCCCC"/>
</g>
<defs>
<clipPath id="clip0_6041_12991">
<path d="M0 20C0 8.95431 8.95431 0 20 0C31.0457 0 40 8.95431 40 20C40 31.0457 31.0457 40 20 40C8.95431 40 0 31.0457 0 20Z" fill="white"/>
</clipPath>
</defs>
</svg>
