<svg width="40" height="40" viewBox="0 0 40 40" fill="none" xmlns="http://www.w3.org/2000/svg">
<g clip-path="url(#clip0_6041_12975)">
<path d="M0 20C0 8.95431 8.95431 0 20 0C31.0457 0 40 8.95431 40 20C40 31.0457 31.0457 40 20 40C8.95431 40 0 31.0457 0 20Z" fill="white"/>
<path fill-rule="evenodd" clip-rule="evenodd" d="M18.934 15.4667L16.0007 21.3334H24.0007L21.0673 15.4667C21.2353 15.2427 21.334 14.968 21.334 14.6667C21.334 13.9307 20.7367 13.3334 20.0007 13.3334C19.2647 13.3334 18.6673 13.9307 18.6673 14.6667C18.6673 14.968 18.766 15.2427 18.934 15.4667ZM26.6673 24C26.6673 25.472 23.6807 26.6667 20.0007 26.6667C16.3207 26.6667 13.334 25.472 13.334 24V21.3334H26.6673V24Z" fill="#151515"/>
<path fill-rule="evenodd" clip-rule="evenodd" d="M-8 29.3334H48V40H-8V29.3334Z" fill="#249F58"/>
<path fill-rule="evenodd" clip-rule="evenodd" d="M-8 0H48V10.6667H-8V0Z" fill="#1A47B8"/>
<circle cx="20" cy="20" r="19.5" stroke="#CCCCCC"/>
</g>
<defs>
<clipPath id="clip0_6041_12975">
<path d="M0 20C0 8.95431 8.95431 0 20 0C31.0457 0 40 8.95431 40 20C40 31.0457 31.0457 40 20 40C8.95431 40 0 31.0457 0 20Z" fill="white"/>
</clipPath>
</defs>
</svg>
