<svg width="40" height="40" viewBox="0 0 40 40" fill="none" xmlns="http://www.w3.org/2000/svg">
<g clip-path="url(#clip0_6041_12985)">
<path d="M0 20C0 8.95431 8.95431 0 20 0C31.0457 0 40 8.95431 40 20C40 31.0457 31.0457 40 20 40C8.95431 40 0 31.0457 0 20Z" fill="#151515"/>
<path fill-rule="evenodd" clip-rule="evenodd" d="M-8 29.3334H48V40H-8V29.3334Z" fill="#249F58"/>
<path fill-rule="evenodd" clip-rule="evenodd" d="M-8 0H48V10.6667H-8V0Z" fill="#F93939"/>
<path fill-rule="evenodd" clip-rule="evenodd" d="M24 18.6666H26.6667V21.3333H24V18.6666Z" fill="white"/>
<path fill-rule="evenodd" clip-rule="evenodd" d="M25.333 24C24.117 25.6187 22.181 26.6667 19.9997 26.6667C16.3197 26.6667 13.333 23.68 13.333 20C13.333 16.32 16.3197 13.3334 19.9997 13.3334C22.181 13.3334 24.117 14.3814 25.333 16H21.333C19.125 16 17.333 17.792 17.333 20C17.333 22.208 19.125 24 21.333 24H25.333Z" fill="white"/>
</g>
<defs>
<clipPath id="clip0_6041_12985">
<path d="M0 20C0 8.95431 8.95431 0 20 0C31.0457 0 40 8.95431 40 20C40 31.0457 31.0457 40 20 40C8.95431 40 0 31.0457 0 20Z" fill="white"/>
</clipPath>
</defs>
</svg>
