<svg width="40" height="40" viewBox="0 0 40 40" fill="none" xmlns="http://www.w3.org/2000/svg">
<g clip-path="url(#clip0_6041_13128)">
<path d="M0 20C0 8.95431 8.95431 0 20 0C31.0457 0 40 8.95431 40 20C40 31.0457 31.0457 40 20 40C8.95431 40 0 31.0457 0 20Z" fill="#FFDA2C"/>
<path fill-rule="evenodd" clip-rule="evenodd" d="M-8 0H10.6667V40H-8V0Z" fill="#1A47B8"/>
<path fill-rule="evenodd" clip-rule="evenodd" d="M13.334 13.3334H26.6673V26.6667H13.334V13.3334ZM13.334 26.6667L20.0007 32.0001L26.6673 26.6667H13.334ZM18.6673 10.6667H21.334V13.3334H18.6673V10.6667Z" fill="#AE6A3E"/>
<path fill-rule="evenodd" clip-rule="evenodd" d="M16 16H24V21.3333H16V16Z" fill="#AF010D"/>
<path fill-rule="evenodd" clip-rule="evenodd" d="M16 21.3333H24V25.3333H16V21.3333ZM16 25.3333L20 27.9999L24 25.3333H16Z" fill="#1A47B8"/>
<path fill-rule="evenodd" clip-rule="evenodd" d="M19.9993 18.6667C20.7353 18.6667 21.3327 19.2374 21.3327 20.0134V22.6534C21.3327 23.4001 20.714 24.0001 19.9993 24.0001C19.2633 24.0001 18.666 23.4294 18.666 22.6534V20.0134C18.666 19.2667 19.2847 18.6667 19.9993 18.6667Z" fill="#FFDA2C"/>
<path fill-rule="evenodd" clip-rule="evenodd" d="M29.334 0H48.0007V40H29.334V0Z" fill="#AF010D"/>
</g>
<defs>
<clipPath id="clip0_6041_13128">
<path d="M0 20C0 8.95431 8.95431 0 20 0C31.0457 0 40 8.95431 40 20C40 31.0457 31.0457 40 20 40C8.95431 40 0 31.0457 0 20Z" fill="white"/>
</clipPath>
</defs>
</svg>
