<svg width="40" height="40" viewBox="0 0 40 40" fill="none" xmlns="http://www.w3.org/2000/svg">
<g clip-path="url(#clip0_6041_13109)">
<path d="M0 20C0 8.95431 8.95431 0 20 0C31.0457 0 40 8.95431 40 20C40 31.0457 31.0457 40 20 40C8.95431 40 0 31.0457 0 20Z" fill="#D4AF2C"/>
<rect x="-5.33398" width="50.6667" height="40" fill="#AF010D"/>
<path fill-rule="evenodd" clip-rule="evenodd" d="M19.9993 12.7414L16.8873 10.6667L14.8153 12.7414H16.8873L14.8153 14.8161L10.666 12.7414V23.1147L16.8873 21.0347L14.8153 25.1841H12.7407L14.8153 27.2587L16.8873 25.1841L19.9993 29.3334V12.7414ZM23.1113 10.6667L25.1833 12.7414H23.1113L25.1833 14.8161L29.3327 12.7414V23.1147L23.1113 21.0347L25.1833 25.1841H27.258L25.1833 27.2587L23.1113 25.1841L19.9993 29.3334V12.7414L23.1113 10.6667Z" fill="#D4AF2C"/>
<path fill-rule="evenodd" clip-rule="evenodd" d="M16 17.3466C16 15.1333 17.776 13.3333 20 13.3333C22.208 13.3333 24 15.1279 24 17.3466V16.4319C24 18.6453 22.6453 21.6479 21.0133 23.1039L20 23.9999L18.9867 23.1039C17.3413 21.6373 16 18.6506 16 16.4319V17.3466Z" fill="#1A47B8"/>
<path fill-rule="evenodd" clip-rule="evenodd" d="M16 16H24V18.6667H16V16Z" fill="#AE6A3E"/>
</g>
<defs>
<clipPath id="clip0_6041_13109">
<path d="M0 20C0 8.95431 8.95431 0 20 0C31.0457 0 40 8.95431 40 20C40 31.0457 31.0457 40 20 40C8.95431 40 0 31.0457 0 20Z" fill="white"/>
</clipPath>
</defs>
</svg>
