<svg width="40" height="40" viewBox="0 0 40 40" fill="none" xmlns="http://www.w3.org/2000/svg">
<path d="M18.2605 21.7391C18.2605 21.7391 5.86914 5.85508 5.85742 5.85789C9.47664 2.23859 14.4767 0 19.9996 0C31.0452 0 39.9996 8.95437 39.9996 20L18.2605 21.7391Z" fill="#F93939"/>
<path d="M18.2605 20C18.2605 20 5.86914 34.1449 5.85742 34.1421C9.47664 37.7614 14.4767 40 19.9996 40C31.0452 40 39.9996 31.0456 39.9996 20H18.2605Z" fill="#1A47B8"/>
<path d="M5.85785 5.85791C-1.95262 13.6684 -1.95262 26.3317 5.85785 34.1423C9.08543 30.9147 12.1896 27.8106 20 20.0001L5.85785 5.85791Z" fill="white"/>
<path d="M2.19219 20C2.18125 20.1436 2.17383 20.2883 2.17383 20.4347C2.17383 23.5562 4.70445 26.0869 7.82602 26.0869C10.9476 26.0869 13.4782 23.5562 13.4782 20.4347C13.4782 20.2883 13.4708 20.1435 13.4598 20H2.19219Z" fill="#FFDA2C"/>
<path d="M7.82605 17.3914C8.78656 17.3914 9.5652 16.6127 9.5652 15.6522C9.5652 14.6917 8.78656 13.9131 7.82605 13.9131C6.86555 13.9131 6.08691 14.6917 6.08691 15.6522C6.08691 16.6127 6.86555 17.3914 7.82605 17.3914Z" fill="#FFDA2C"/>
<path d="M3.91309 15.2175V20.8697C3.91309 23.865 7.82613 24.7828 7.82613 24.7828C7.82613 24.7828 11.7392 23.865 11.7392 20.8697V15.2175H3.91309Z" fill="#F93939"/>
<path d="M7.8282 22.9626C7.10227 22.7013 5.65234 22.0337 5.65234 20.8696V16.9565H10.0002V20.8696C10.0002 22.0375 8.55047 22.7035 7.8282 22.9626Z" fill="#3A99FF"/>
<path d="M8.69539 19.1305V18.2609L7.82586 17.8262L6.95625 18.2609V19.1305L6.52148 19.5653V21.3045H9.13023V19.5653L8.69539 19.1305Z" fill="#CBCBCB"/>
<circle cx="20" cy="20" r="19.5" stroke="#CCCCCC"/>
</svg>
