<svg width="40" height="40" viewBox="0 0 40 40" fill="none" xmlns="http://www.w3.org/2000/svg">
<g clip-path="url(#clip0_6041_13084)">
<path d="M0 20C0 8.95431 8.95431 0 20 0C31.0457 0 40 8.95431 40 20C40 31.0457 31.0457 40 20 40C8.95431 40 0 31.0457 0 20Z" fill="#1A47B8"/>
<path d="M7.99935 18.6667C10.9449 18.6667 13.3327 16.2789 13.3327 13.3333C13.3327 10.3878 10.9449 8 7.99935 8C5.05383 8 2.66602 10.3878 2.66602 13.3333C2.66602 16.2789 5.05383 18.6667 7.99935 18.6667Z" fill="white"/>
<path fill-rule="evenodd" clip-rule="evenodd" d="M-5.33398 40L50.666 16V8L-5.33398 40Z" fill="white"/>
<path fill-rule="evenodd" clip-rule="evenodd" d="M-5.33398 40L50.666 0V8L-5.33398 40Z" fill="#FF6C2D"/>
<circle cx="20" cy="20" r="19.5" stroke="#CCCCCC"/>
</g>
<defs>
<clipPath id="clip0_6041_13084">
<path d="M0 20C0 8.95431 8.95431 0 20 0C31.0457 0 40 8.95431 40 20C40 31.0457 31.0457 40 20 40C8.95431 40 0 31.0457 0 20Z" fill="white"/>
</clipPath>
</defs>
</svg>
