<svg width="40" height="40" viewBox="0 0 40 40" fill="none" xmlns="http://www.w3.org/2000/svg">
<path d="M20 40C31.0457 40 40 31.0457 40 20C40 8.9543 31.0457 0 20 0C8.9543 0 0 8.9543 0 20C0 31.0457 8.9543 40 20 40Z" fill="#FFDA2C"/>
<path d="M23.0416 39.7701C26.2944 39.2738 29.2886 37.9929 31.8272 36.128L20 20L23.0416 39.7701Z" fill="#F93939"/>
<path d="M16.9595 0.22998C13.7068 0.726231 10.7126 2.00717 8.17383 3.87193L20.0012 20.0001L16.9595 0.22998Z" fill="#F93939"/>
<path d="M8.17383 36.128C10.7124 37.9928 13.7066 39.2738 16.9594 39.7702L20.0012 20L8.17383 36.128Z" fill="#F93939"/>
<path d="M3.87242 8.17273C2.00758 10.7115 0.726797 13.7056 0.230469 16.9584L20.0005 20.0001L3.87242 8.17273Z" fill="#F93939"/>
<path d="M0.230469 23.0416C0.726719 26.2944 2.00766 29.2886 3.8725 31.8272L20.0005 20L0.230469 23.0416Z" fill="#F93939"/>
<path d="M39.7701 16.9585C39.2738 13.7057 37.9929 10.7115 36.128 8.17285L20 20.0001L39.7701 16.9585Z" fill="#F93939"/>
<path d="M31.8272 3.87186C29.2885 2.00709 26.2944 0.726231 23.0416 0.22998L20 20.0001L31.8272 3.87186Z" fill="#F93939"/>
<path d="M36.1282 31.8273C37.993 29.2886 39.2738 26.2943 39.7702 23.0416L20 20L36.1282 31.8273Z" fill="#F93939"/>
<path d="M20.0014 26.9565C23.8434 26.9565 26.9579 23.842 26.9579 20.0001C26.9579 16.1581 23.8434 13.0436 20.0014 13.0436C16.1594 13.0436 13.0449 16.1581 13.0449 20.0001C13.0449 23.842 16.1594 26.9565 20.0014 26.9565Z" fill="#F93939"/>
<path d="M20.0006 25.2174C22.8821 25.2174 25.218 22.8815 25.218 20C25.218 17.1185 22.8821 14.7826 20.0006 14.7826C17.1191 14.7826 14.7832 17.1185 14.7832 20C14.7832 22.8815 17.1191 25.2174 20.0006 25.2174Z" fill="#FFDA2C"/>
</svg>
