<svg width="40" height="40" viewBox="0 0 40 40" fill="none" xmlns="http://www.w3.org/2000/svg">
<g clip-path="url(#clip0_6041_13115)">
<path d="M0 20C0 8.95431 8.95431 0 20 0C31.0457 0 40 8.95431 40 20C40 31.0457 31.0457 40 20 40C8.95431 40 0 31.0457 0 20Z" fill="#1A47B8"/>
<path fill-rule="evenodd" clip-rule="evenodd" d="M-5.33398 0H13.3327V40H-5.33398V0Z" fill="#F93939"/>
<path fill-rule="evenodd" clip-rule="evenodd" d="M0 18.6666H2.66667V29.3333H0V18.6666ZM8 18.6666H10.6667V29.3333H8V18.6666Z" fill="#FFDA2C"/>
<path d="M5.33268 29.3333C6.80544 29.3333 7.99935 28.1394 7.99935 26.6667C7.99935 25.1939 6.80544 24 5.33268 24C3.85992 24 2.66602 25.1939 2.66602 26.6667C2.66602 28.1394 3.85992 29.3333 5.33268 29.3333Z" fill="#FFDA2C"/>
<path d="M5.33268 21.3333C6.80544 21.3333 7.99935 20.1394 7.99935 18.6667C7.99935 17.1939 6.80544 16 5.33268 16C3.85992 16 2.66602 17.1939 2.66602 18.6667C2.66602 20.1394 3.85992 21.3333 5.33268 21.3333Z" fill="#FFDA2C"/>
<path fill-rule="evenodd" clip-rule="evenodd" d="M5.33268 8L7.99935 13.3333H2.66602L5.33268 8Z" fill="#FFDA2C"/>
<path fill-rule="evenodd" clip-rule="evenodd" d="M26.666 0H45.3327V40H26.666V0Z" fill="#F93939"/>
</g>
<defs>
<clipPath id="clip0_6041_13115">
<path d="M0 20C0 8.95431 8.95431 0 20 0C31.0457 0 40 8.95431 40 20C40 31.0457 31.0457 40 20 40C8.95431 40 0 31.0457 0 20Z" fill="white"/>
</clipPath>
</defs>
</svg>
