<svg width="40" height="40" viewBox="0 0 40 40" fill="none" xmlns="http://www.w3.org/2000/svg">
<path d="M20 40C31.0457 40 40 31.0457 40 20C40 8.9543 31.0457 0 20 0C8.9543 0 0 8.9543 0 20C0 31.0457 8.9543 40 20 40Z" fill="#0A6A30"/>
<path d="M23.478 19.1661C22.9871 19.1661 22.521 19.264 22.0882 19.4197C22.3253 18.8913 22.4843 18.3033 22.4843 17.6754C22.4843 15.191 19.9998 13.3276 19.9998 13.3276C19.9998 13.3276 17.5154 15.191 17.5154 17.6754C17.5154 18.3033 17.6744 18.8913 17.9115 19.4197C17.4786 19.2641 17.0125 19.1661 16.5216 19.1661C14.0372 19.1661 12.1738 21.6505 12.1738 21.6505C12.1738 21.6505 14.0372 24.1351 16.5216 24.1351C17.9783 24.1351 19.2206 23.2813 19.9999 22.5746C20.7792 23.2812 22.0216 24.1351 23.4782 24.1351C25.9627 24.1351 27.826 21.6505 27.826 21.6505C27.826 21.6505 25.9625 19.1661 23.478 19.1661Z" fill="white"/>
<path d="M20.0001 7.82605L20.5133 9.40542H22.174L20.8306 10.3817L21.3434 11.9611L20.0001 10.9848L18.6567 11.9611L19.1695 10.3817L17.8262 9.40542H19.4869L20.0001 7.82605Z" fill="#FFDA2C"/>
<path d="M13.6848 10.5885L14.6722 11.4774L15.8227 10.8132L15.2824 12.0269L16.2697 12.9159L14.9484 12.777L14.4081 13.9907L14.1317 12.6912L12.8105 12.5523L13.961 11.888L13.6848 10.5885Z" fill="#FFDA2C"/>
<path d="M9.0625 15.2114L10.362 15.4876L11.0263 14.337L11.1652 15.6582L12.4646 15.9346L11.251 16.475L11.3899 17.7961L10.5008 16.809L9.28719 17.3493L9.95148 16.1987L9.0625 15.2114Z" fill="#FFDA2C"/>
<path d="M26.3152 10.5885L25.328 11.4774L24.1774 10.8132L24.7177 12.0269L23.7305 12.9159L25.0517 12.777L25.592 13.9907L25.8684 12.6912L27.1896 12.5523L26.0391 11.888L26.3152 10.5885Z" fill="#FFDA2C"/>
<path d="M30.9392 15.2114L29.6397 15.4876L28.9755 14.337L28.8365 15.6582L27.5371 15.9346L28.7507 16.475L28.6118 17.7961L29.5009 16.809L30.7145 17.3493L30.0502 16.1987L30.9392 15.2114Z" fill="#FFDA2C"/>
<path d="M19.9998 31.0915C21.9733 31.0915 23.7923 30.4331 25.2516 29.3252H14.748C16.2073 30.433 18.0263 31.0915 19.9998 31.0915Z" fill="white"/>
<path d="M12.0293 25.8741C12.3053 26.5059 12.6553 27.0975 13.0664 27.6405H26.935C27.3461 27.0976 27.6961 26.5059 27.9721 25.8741H12.0293Z" fill="white"/>
</svg>
