<svg width="40" height="40" viewBox="0 0 40 40" fill="none" xmlns="http://www.w3.org/2000/svg">
<path d="M20 40C31.0457 40 40 31.0457 40 20C40 8.9543 31.0457 0 20 0C8.9543 0 0 8.9543 0 20C0 31.0457 8.9543 40 20 40Z" fill="#3A99FF"/>
<path d="M19.3703 32.593C18.8311 32.5669 18.385 32.2165 18.2103 31.7408C17.9016 32.1434 17.3711 32.3461 16.8485 32.2113C16.325 32.0765 15.959 31.6435 15.8833 31.1408C15.4989 31.4729 14.9389 31.5633 14.4546 31.3261C13.9694 31.0878 13.6981 30.5894 13.726 30.0825C13.2834 30.3311 12.7164 30.3068 12.2895 29.9764C11.8634 29.6459 11.6973 29.1042 11.826 28.6129C11.3424 28.7676 10.7929 28.6303 10.4407 28.2207C10.0885 27.812 10.0345 27.2476 10.259 26.7929C9.75463 26.8467 9.24338 26.6015 8.98072 26.1303C8.71721 25.659 8.77814 25.0947 9.09025 24.6936C8.58502 24.645 8.13283 24.3015 7.97111 23.7867C7.80853 23.2719 7.98244 22.7311 8.36939 22.4015C7.88416 22.2518 7.51197 21.824 7.45721 21.2876C7.40244 20.7511 7.68072 20.258 8.12502 20.0128C7.68064 19.7693 7.40064 19.2763 7.45369 18.7406H7.45455C7.5076 18.2032 7.87978 17.7746 8.36408 17.6232C7.97713 17.2945 7.8015 16.7545 7.96236 16.2397C8.12322 15.724 8.57447 15.3797 9.07978 15.3292C8.7676 14.9292 8.70502 14.3647 8.96674 13.8927C9.22846 13.4214 9.73978 13.1753 10.245 13.2283C10.0189 12.7736 10.072 12.2092 10.4233 11.7988C10.7738 11.3893 11.3233 11.251 11.8077 11.404C11.6772 10.9136 11.8424 10.371 12.2685 10.0397C12.6938 9.70833 13.2607 9.6831 13.7033 9.93005C13.6746 9.42318 13.945 8.92482 14.4294 8.68568C14.9129 8.4474 15.4738 8.53615 15.8589 8.86825C15.9328 8.36575 16.2989 7.93099 16.8215 7.79521C17.3432 7.65958 17.8737 7.86044 18.1832 8.26216C18.358 7.78654 18.8032 7.43521 19.3424 7.40825C19.8806 7.38052 20.3588 7.68302 20.5815 8.13794C20.8476 7.70661 21.3537 7.45099 21.8867 7.53185C22.4206 7.61185 22.8303 8.00482 22.9572 8.49622C23.305 8.12568 23.8528 7.9788 24.3589 8.16482C24.8659 8.35177 25.1876 8.81958 25.212 9.3274C25.6267 9.03529 26.1937 9.0013 26.652 9.28654C27.1103 9.57091 27.3303 10.0935 27.252 10.5952C27.7172 10.3926 28.2789 10.4735 28.6703 10.8439C29.0616 11.2152 29.1728 11.7708 28.9955 12.2465C29.492 12.1412 30.026 12.3326 30.3355 12.7751C30.645 13.2168 30.6424 13.7838 30.3738 14.2143C30.8807 14.2108 31.3651 14.5065 31.5799 15.0012C31.7938 15.4968 31.6763 16.0526 31.326 16.4204C31.8242 16.5195 32.239 16.9065 32.3485 17.4351C32.4572 17.9638 32.2303 18.4829 31.8138 18.7726C32.2799 18.9701 32.6085 19.4317 32.6094 19.9708V19.9883V19.9996C32.6094 20.5386 32.2824 21.0013 31.8163 21.2004C32.2338 21.4883 32.4624 22.0074 32.3538 22.5361C32.246 23.0647 31.832 23.4526 31.3338 23.5535C31.6851 23.9204 31.8042 24.4752 31.5912 24.9718C31.3781 25.4674 30.8938 25.764 30.386 25.7613C30.6555 26.1918 30.6599 26.7587 30.3512 27.2013C30.0425 27.644 29.5095 27.837 29.0129 27.7326C29.1912 28.2074 29.0807 28.764 28.6903 29.1361C28.299 29.5076 27.7381 29.5892 27.2729 29.3883C27.3521 29.8892 27.1329 30.4127 26.6755 30.6988C26.2181 30.9849 25.6511 30.9518 25.2355 30.6605C25.212 31.1683 24.892 31.6371 24.386 31.8249C23.8799 32.0127 24.386 31.8249 24.3851 31.8249C23.879 32.0118 23.3312 31.8658 22.9825 31.4963C22.8573 31.9885 22.4486 32.3823 21.9147 32.4641C21.3817 32.545 20.8747 32.2911 20.6078 31.8597C20.3956 32.2972 19.9469 32.5945 19.4356 32.5945C19.4138 32.5948 19.392 32.594 19.3703 32.593Z" fill="white"/>
<path d="M20.0003 28.6957C24.8028 28.6957 28.6959 24.8025 28.6959 20.0001C28.6959 15.1976 24.8028 11.3044 20.0003 11.3044C15.1979 11.3044 11.3047 15.1976 11.3047 20.0001C11.3047 24.8025 15.1979 28.6957 20.0003 28.6957Z" fill="#3A99FF"/>
<path d="M21.903 17.0483C22.3302 16.7314 22.6084 16.2249 22.6084 15.6521V14.7826C22.6084 13.8221 21.8298 13.0435 20.8692 13.0435H19.1302C18.1696 13.0435 17.391 13.8221 17.391 14.7826V15.6521C17.391 16.2249 17.6691 16.7314 18.0963 17.0483L16.5215 33.0434C16.5215 33.0434 17.391 33.9131 19.9998 33.9131C22.6085 33.9131 23.478 33.0434 23.478 33.0434L21.903 17.0483Z" fill="#CBCBCB"/>
<path d="M19.9998 13.0435L21.5105 17.6933H26.4L22.4445 20.5674L23.9552 25.2174L19.9998 22.3435L16.0441 25.2174L17.5552 20.5674L13.5996 17.6933H18.4889L19.9998 13.0435Z" fill="white"/>
</svg>
