<svg width="40" height="40" viewBox="0 0 40 40" fill="none" xmlns="http://www.w3.org/2000/svg">
<g clip-path="url(#clip0_6041_13078)">
<path d="M0 20C0 8.95431 8.95431 0 20 0C31.0457 0 40 8.95431 40 20C40 31.0457 31.0457 40 20 40C8.95431 40 0 31.0457 0 20Z" fill="#249F58"/>
<path fill-rule="evenodd" clip-rule="evenodd" d="M19.9956 19.3334L16.0756 21.3947L16.8223 17.0294L13.6543 13.936L18.0356 13.304L19.9956 9.33069L21.953 13.304L26.3343 13.936L23.161 17.0294L23.913 21.392" fill="#FFDA2C"/>
<path fill-rule="evenodd" clip-rule="evenodd" d="M31.9067 15.8347C31.968 16.3254 32 16.8267 32 17.3334C32 23.96 26.6267 29.3334 20 29.3334C13.3733 29.3334 8 23.96 8 17.3334C8 16.8267 8.032 16.3254 8.09333 15.832C8.832 20.44 13.88 24 20 24C26.12 24 31.168 20.4374 31.9067 15.832V15.8347Z" fill="#FFDA2C"/>
<rect x="-8" width="56" height="5.33333" fill="#AF010D"/>
<rect x="-8" y="34.6666" width="56" height="5.33333" fill="#AF010D"/>
</g>
<defs>
<clipPath id="clip0_6041_13078">
<path d="M0 20C0 8.95431 8.95431 0 20 0C31.0457 0 40 8.95431 40 20C40 31.0457 31.0457 40 20 40C8.95431 40 0 31.0457 0 20Z" fill="white"/>
</clipPath>
</defs>
</svg>
