<svg width="40" height="40" viewBox="0 0 40 40" fill="none" xmlns="http://www.w3.org/2000/svg">
<path d="M40 20C40 31.0456 31.0456 40 20 40C8.95437 40 0 31.0456 0 20C0 20.0048 20 0.0021875 20 0C31.0456 0 40 8.95437 40 20Z" fill="#0052B4"/>
<path d="M19.9473 20H20.0008C20.0008 19.9821 20.0008 19.9646 20.0008 19.9465C19.983 19.9644 19.9652 19.9822 19.9473 20Z" fill="white"/>
<path d="M20 10.4348C20 6.91563 20 4.60977 20 0H19.9966C8.95242 0.001875 0 8.95539 0 20H10.4348V14.1241L16.3106 20H19.9466C19.9644 19.9822 19.9822 19.9644 20.0001 19.9465C20.0001 18.5991 20.0001 17.3968 20.0001 16.3108L14.1241 10.4348H20Z" fill="white"/>
<path d="M10.1191 2.60864C6.99102 4.38981 4.39047 6.99028 2.60938 10.1183V20H7.8268V7.82622V7.82607H20.0007C20.0007 6.18052 20.0007 4.61286 20.0007 2.60864H10.1191Z" fill="#D80027"/>
<path d="M20.0008 17.5405L12.8949 10.4348H10.4355V10.435L20.0006 20H20.0008C20.0008 20 20.0008 18.3041 20.0008 17.5405Z" fill="#D80027"/>
<path d="M22.6094 10.4348V20C22.6094 24.6593 28.6963 26.087 28.6963 26.087C28.6963 26.087 34.7833 24.6593 34.7833 20V10.4348H22.6094Z" fill="#338AF3"/>
<path d="M22.6094 20C22.6094 24.6594 28.6963 26.087 28.6963 26.087C28.6963 26.087 34.7833 24.6594 34.7833 20H22.6094Z" fill="#AF010D"/>
<path d="M31.3034 14.7827H29.5641V13.0435H27.825V14.7827H26.0859V16.5217H27.825V21.7391H29.5641V16.5217H31.3034V14.7827Z" fill="black"/>
<circle cx="20" cy="20" r="19.5" stroke="#CCCCCC"/>
</svg>
