<svg width="40" height="40" viewBox="0 0 40 40" fill="none" xmlns="http://www.w3.org/2000/svg">
<path d="M0 20C0 8.95431 8.95431 0 20 0C31.0457 0 40 8.95431 40 20C40 31.0457 31.0457 40 20 40C8.95431 40 0 31.0457 0 20Z" fill="#AF010D"/>
<path fill-rule="evenodd" clip-rule="evenodd" d="M2.66602 10.6666H37.3327V29.3333H2.66602V10.6666Z" fill="#249F58"/>
<path fill-rule="evenodd" clip-rule="evenodd" d="M21.6673 26.4534C21.134 26.5947 20.574 26.6667 20.0007 26.6667C16.3207 26.6667 13.334 23.68 13.334 20C13.334 16.32 16.3207 13.3334 20.0007 13.3334C20.5767 13.3334 21.134 13.4054 21.6673 13.5467C19.942 14.28 18.6673 16.8907 18.6673 20C18.6673 23.1094 19.942 25.7174 21.6673 26.4534Z" fill="white"/>
</svg>
