<svg width="40" height="40" viewBox="0 0 40 40" fill="none" xmlns="http://www.w3.org/2000/svg">
<g clip-path="url(#clip0_6041_13064)">
<path d="M0 20C0 8.95431 8.95431 0 20 0C31.0457 0 40 8.95431 40 20C40 31.0457 31.0457 40 20 40C8.95431 40 0 31.0457 0 20Z" fill="#F93939"/>
<path fill-rule="evenodd" clip-rule="evenodd" d="M-8 26.6666H48V40H-8V26.6666Z" fill="#249F58"/>
<path fill-rule="evenodd" clip-rule="evenodd" d="M-8 0H48V13.3333H-8V0Z" fill="#151515"/>
<path fill-rule="evenodd" clip-rule="evenodd" d="M29.9788 10.6667C27.8268 7.45071 24.1602 5.33337 20.0002 5.33337C15.8402 5.33337 12.1735 7.45071 10.0215 10.6667H29.9788Z" fill="#F93939"/>
</g>
<defs>
<clipPath id="clip0_6041_13064">
<path d="M0 20C0 8.95431 8.95431 0 20 0C31.0457 0 40 8.95431 40 20C40 31.0457 31.0457 40 20 40C8.95431 40 0 31.0457 0 20Z" fill="white"/>
</clipPath>
</defs>
</svg>
