<svg width="40" height="40" viewBox="0 0 40 40" fill="none" xmlns="http://www.w3.org/2000/svg">
<g clip-path="url(#clip0_6041_13136)">
<path d="M0 20C0 8.95431 8.95431 0 20 0C31.0457 0 40 8.95431 40 20C40 31.0457 31.0457 40 20 40C8.95431 40 0 31.0457 0 20Z" fill="white"/>
<rect x="32" width="16" height="40" fill="#F93939"/>
<rect x="-8" width="16" height="40" fill="#249F58"/>
<path fill-rule="evenodd" clip-rule="evenodd" d="M26.6145 19.4181C26.6486 19.6907 26.6663 19.9692 26.6663 20.2507C26.6663 23.9322 23.6812 26.9174 19.9997 26.9174C16.3182 26.9174 13.333 23.9322 13.333 20.2507C13.333 19.9692 13.3508 19.6907 13.3849 19.4166C13.7952 21.9766 16.5997 23.9544 19.9997 23.9544C23.3997 23.9544 26.2041 21.9751 26.6145 19.4166V19.4181Z" fill="#249F58"/>
<circle cx="20" cy="17.3333" r="4" fill="#AE6A3E"/>
<path d="M39.5 20C39.5 30.7696 30.7696 39.5 20 39.5C9.23045 39.5 0.5 30.7696 0.5 20C0.5 9.23045 9.23045 0.5 20 0.5C30.7696 0.5 39.5 9.23045 39.5 20Z" stroke="#CCCCCC"/>
</g>
<defs>
<clipPath id="clip0_6041_13136">
<path d="M0 20C0 8.95431 8.95431 0 20 0C31.0457 0 40 8.95431 40 20C40 31.0457 31.0457 40 20 40C8.95431 40 0 31.0457 0 20Z" fill="white"/>
</clipPath>
</defs>
</svg>
