<svg width="40" height="40" viewBox="0 0 40 40" fill="none" xmlns="http://www.w3.org/2000/svg">
<g clip-path="url(#clip0_6041_13051)">
<path d="M0 20C0 8.95431 8.95431 0 20 0C31.0457 0 40 8.95431 40 20C40 31.0457 31.0457 40 20 40C8.95431 40 0 31.0457 0 20Z" fill="white"/>
<rect x="-8" width="56" height="2.87179" fill="#AF010D"/>
<rect x="-8" y="5.74353" width="56" height="2.87179" fill="#AF010D"/>
<rect x="-8" y="11.4872" width="56" height="2.87179" fill="#AF010D"/>
<rect x="-8" y="17.2307" width="56" height="2.87179" fill="#AF010D"/>
<rect x="-8" y="22.9744" width="56" height="2.87179" fill="#AF010D"/>
<rect x="-8" y="28.7179" width="56" height="2.87179" fill="#AF010D"/>
<rect x="-8" y="34.4615" width="56" height="2.87179" fill="#AF010D"/>
<path fill-rule="evenodd" clip-rule="evenodd" d="M-8 0H21.3333V22.9867H-8V0Z" fill="#1A47B8"/>
<path fill-rule="evenodd" clip-rule="evenodd" d="M10.666 10.6666H13.3327V13.3333H10.666V10.6666Z" fill="#FFDA2C"/>
<path fill-rule="evenodd" clip-rule="evenodd" d="M12 16C10.784 17.6187 8.848 18.6667 6.66667 18.6667C2.98667 18.6667 0 15.68 0 12C0 8.32004 2.98667 5.33337 6.66667 5.33337C8.848 5.33337 10.784 6.38137 12 8.00004H8C5.792 8.00004 4 9.79204 4 12C4 14.208 5.792 16 8 16H12Z" fill="#FFDA2C"/>
<circle cx="20" cy="20" r="19.5" stroke="#CCCCCC"/>
</g>
<defs>
<clipPath id="clip0_6041_13051">
<path d="M0 20C0 8.95431 8.95431 0 20 0C31.0457 0 40 8.95431 40 20C40 31.0457 31.0457 40 20 40C8.95431 40 0 31.0457 0 20Z" fill="white"/>
</clipPath>
</defs>
</svg>
