<svg width="40" height="40" viewBox="0 0 40 40" fill="none" xmlns="http://www.w3.org/2000/svg">
<g clip-path="url(#clip0_6041_13199)">
<path d="M0 20C0 8.95431 8.95431 0 20 0C31.0457 0 40 8.95431 40 20C40 31.0457 31.0457 40 20 40C8.95431 40 0 31.0457 0 20Z" fill="#151515"/>
<path fill-rule="evenodd" clip-rule="evenodd" d="M-8 26.6667H48V40.0001H-8V26.6667Z" fill="#FFDA2C"/>
<path fill-rule="evenodd" clip-rule="evenodd" d="M-8 0H48V13.3333H-8V0Z" fill="#249F58"/>
<path opacity="0.35" fill-rule="evenodd" clip-rule="evenodd" d="M-8 0H48V13.3333H-8V0Z" fill="#1A47B8"/>
<path fill-rule="evenodd" clip-rule="evenodd" d="M-8 10.6667H48V13.3334H-8V10.6667ZM-8 26.6667H48V29.3334H-8V26.6667Z" fill="white"/>
<path fill-rule="evenodd" clip-rule="evenodd" d="M-2.66602 0V40.088L24.0006 20L-2.66602 0Z" fill="#F93939"/>
<path fill-rule="evenodd" clip-rule="evenodd" d="M6.34133 23.3333L2.42133 25.3946L3.168 21.0293L0 17.9359L4.38133 17.3039L6.34133 13.3333L8.29867 17.3066L12.68 17.9386L9.50667 21.0319L10.2587 25.3946" fill="#FFDA2C"/>
<path fill-rule="evenodd" clip-rule="evenodd" d="M3.41406 17.0241L4.35806 16.0801L10.0114 21.7387L9.07273 22.6801L3.41406 17.0267V17.0241Z" fill="#151515"/>
<path fill-rule="evenodd" clip-rule="evenodd" d="M10.0141 17.0241L9.07273 16.0801L3.41406 21.7387L4.35806 22.6801L10.0114 17.0267L10.0141 17.0241Z" fill="#151515"/>
<circle cx="20" cy="20" r="19.5" stroke="#CCCCCC"/>
</g>
<defs>
<clipPath id="clip0_6041_13199">
<path d="M0 20C0 8.95431 8.95431 0 20 0C31.0457 0 40 8.95431 40 20C40 31.0457 31.0457 40 20 40C8.95431 40 0 31.0457 0 20Z" fill="white"/>
</clipPath>
</defs>
</svg>
