<svg width="40" height="40" viewBox="0 0 40 40" fill="none" xmlns="http://www.w3.org/2000/svg">
<g clip-path="url(#clip0_6041_13187)">
<path d="M0 20C0 8.95431 8.95431 0 20 0C31.0457 0 40 8.95431 40 20C40 31.0457 31.0457 40 20 40C8.95431 40 0 31.0457 0 20Z" fill="#1A47B8"/>
<path fill-rule="evenodd" clip-rule="evenodd" d="M-8 39.9999H48V5.33325L-8 34.6666V39.9999Z" fill="#249F58"/>
<path fill-rule="evenodd" clip-rule="evenodd" d="M3.99563 13.9468L0.0756309 16.0081L0.822298 11.6428L-2.3457 8.54943L2.03563 7.91743L3.99563 3.94409L5.95296 7.91743L10.3343 8.54943L7.16096 11.6428L7.91296 16.0054" fill="#FFDA2C"/>
<path fill-rule="evenodd" clip-rule="evenodd" d="M-8 37.3333L48 7.99992V-2.66675L-8 26.6666V37.3333Z" fill="white"/>
<path fill-rule="evenodd" clip-rule="evenodd" d="M-8 42.6667L48 13.3334V2.66675L-8 32.0001V42.6667Z" fill="white"/>
<path fill-rule="evenodd" clip-rule="evenodd" d="M-8 40L48 10.6667V0L-8 29.3333V40Z" fill="#F93939"/>
<circle cx="20" cy="20" r="19.5" stroke="#CCCCCC"/>
</g>
<defs>
<clipPath id="clip0_6041_13187">
<path d="M0 20C0 8.95431 8.95431 0 20 0C31.0457 0 40 8.95431 40 20C40 31.0457 31.0457 40 20 40C8.95431 40 0 31.0457 0 20Z" fill="white"/>
</clipPath>
</defs>
</svg>
