<svg width="40" height="40" viewBox="0 0 40 40" fill="none" xmlns="http://www.w3.org/2000/svg">
<g clip-path="url(#clip0_6041_13001)">
<path d="M38.756 26.9564C39.56 24.7899 40 22.4464 40 19.9999C40 17.5535 39.56 15.21 38.756 13.0435L20 11.3043L1.24398 13.0435C0.44 15.21 0 17.5535 0 19.9999C0 22.4464 0.44 24.7899 1.24398 26.9564L20 28.6956L38.756 26.9564Z" fill="#F93939"/>
<path d="M38.7562 13.0435C35.9303 5.4275 28.5995 0 20.0002 0C11.4009 0 4.07 5.4275 1.24414 13.0435H38.7562Z" fill="#232C80"/>
<path d="M20.0002 40.0001C28.5995 40.0001 35.9303 34.5726 38.7562 26.9565H1.24414C4.07 34.5726 11.4009 40.0001 20.0002 40.0001Z" fill="#249F58"/>
<circle cx="20" cy="20" r="10" fill="#FFDA2C"/>
<path d="M19.5 30V10H20.5V30H19.5Z" fill="#0D0A2C"/>
<circle cx="20" cy="14" r="2" fill="#0D0A2C"/>
<ellipse cx="20" cy="18" rx="2" ry="1" fill="#0D0A2C"/>
<circle cx="20" cy="22" r="2" fill="#0D0A2C"/>
<path d="M22.0003 28C25.0002 30 21.1049 30 20.0003 30C18.8958 30 15.0004 30 18.0003 28C18.0003 26.8954 18.8958 26 20.0003 26C21.1049 26 22.0003 26.8954 22.0003 28Z" fill="#0D0A2C"/>
</g>
<defs>
<clipPath id="clip0_6041_13001">
<rect width="40" height="40" fill="white"/>
</clipPath>
</defs>
</svg>
