<svg width="40" height="40" viewBox="0 0 40 40" fill="none" xmlns="http://www.w3.org/2000/svg">
<g clip-path="url(#clip0_6041_13227)">
<path d="M0 20C0 8.95431 8.95431 0 20 0C31.0457 0 40 8.95431 40 20C40 31.0457 31.0457 40 20 40C8.95431 40 0 31.0457 0 20Z" fill="white"/>
<path fill-rule="evenodd" clip-rule="evenodd" d="M-8 26.6667H48V40H-8V26.6667ZM-8 0H48V13.3333H-8V0Z" fill="#1A47B8"/>
<path opacity="0.4" fill-rule="evenodd" clip-rule="evenodd" d="M-8 26.6667H48V40H-8V26.6667ZM-8 0H48V13.3333H-8V0Z" fill="#3A99FF"/>
<path fill-rule="evenodd" clip-rule="evenodd" d="M16 24L20 16L24 24H16Z" fill="#00B731"/>
<circle cx="20" cy="20" r="19.5" stroke="#CCCCCC"/>
</g>
<defs>
<clipPath id="clip0_6041_13227">
<path d="M0 20C0 8.95431 8.95431 0 20 0C31.0457 0 40 8.95431 40 20C40 31.0457 31.0457 40 20 40C8.95431 40 0 31.0457 0 20Z" fill="white"/>
</clipPath>
</defs>
</svg>
