<svg width="40" height="40" viewBox="0 0 40 40" fill="none" xmlns="http://www.w3.org/2000/svg">
<g clip-path="url(#clip0_6041_13275)">
<path d="M0 20C0 8.95431 8.95431 0 20 0C31.0457 0 40 8.95431 40 20C40 31.0457 31.0457 40 20 40C8.95431 40 0 31.0457 0 20Z" fill="#AF010D"/>
<path fill-rule="evenodd" clip-rule="evenodd" d="M8 24H-8V16H8V0H16V16H48V24H16V40H8V24Z" fill="white"/>
<path fill-rule="evenodd" clip-rule="evenodd" d="M10.6667 21.3333H-8V18.6667H10.6667V0H13.3333V18.6667H48V21.3333H13.3333V40H10.6667V21.3333Z" fill="#1A47B8"/>
<circle cx="20" cy="20" r="19.5" stroke="#CCCCCC"/>
</g>
<defs>
<clipPath id="clip0_6041_13275">
<path d="M0 20C0 8.95431 8.95431 0 20 0C31.0457 0 40 8.95431 40 20C40 31.0457 31.0457 40 20 40C8.95431 40 0 31.0457 0 20Z" fill="white"/>
</clipPath>
</defs>
</svg>
