<svg width="40" height="40" viewBox="0 0 40 40" fill="none" xmlns="http://www.w3.org/2000/svg">
<g clip-path="url(#clip0_6041_13183)">
<path d="M0 20C0 8.95431 8.95431 0 20 0C31.0457 0 40 8.95431 40 20C40 31.0457 31.0457 40 20 40C8.95431 40 0 31.0457 0 20Z" fill="#232C80"/>
<path fill-rule="evenodd" clip-rule="evenodd" d="M-8 18.6667H48V21.3334H-8V18.6667Z" fill="#FFDA2C"/>
<path fill-rule="evenodd" clip-rule="evenodd" d="M11.9956 32.6133L8.07563 34.6746L8.8223 30.3093L5.6543 27.2159L10.0356 26.5839L11.9956 22.6106L13.953 26.5839L18.3343 27.2159L15.161 30.3093L15.913 34.6719" fill="white"/>
</g>
<defs>
<clipPath id="clip0_6041_13183">
<path d="M0 20C0 8.95431 8.95431 0 20 0C31.0457 0 40 8.95431 40 20C40 31.0457 31.0457 40 20 40C8.95431 40 0 31.0457 0 20Z" fill="white"/>
</clipPath>
</defs>
</svg>
