<svg width="40" height="40" viewBox="0 0 40 40" fill="none" xmlns="http://www.w3.org/2000/svg">
<g clip-path="url(#clip0_6041_13269)">
<path d="M0 20C0 8.95431 8.95431 0 20 0C31.0457 0 40 8.95431 40 20C40 31.0457 31.0457 40 20 40C8.95431 40 0 31.0457 0 20Z" fill="#F93939"/>
<path d="M42.6667 0H-2.66667C-5.61219 0 -8 2.38781 -8 5.33333V34.6667C-8 37.6122 -5.61219 40 -2.66667 40H42.6667C45.6122 40 48 37.6122 48 34.6667V5.33333C48 2.38781 45.6122 0 42.6667 0Z" fill="#F93939"/>
<path fill-rule="evenodd" clip-rule="evenodd" d="M8 26.6667H48V40.0001H8V26.6667Z" fill="#249F58"/>
<path fill-rule="evenodd" clip-rule="evenodd" d="M7.9999 0H47.9999V13.3333H7.9999V0ZM4.20257 10.408C4.0559 10.6293 3.8879 10.8347 3.6959 11.0293C2.13057 12.592 -0.402766 12.592 -1.96277 11.0293C-3.52543 9.46933 -3.52543 6.936 -1.96277 5.376C-1.77077 5.17867 -1.56277 5.01067 -1.34143 4.864C-1.94143 5.984 -1.4481 7.776 -0.0774324 9.144C1.29323 10.5093 3.08257 11.0053 4.20523 10.4053L4.20257 10.408Z" fill="white"/>
<path fill-rule="evenodd" clip-rule="evenodd" d="M-1.5364 10.408C-1.38973 10.6293 -1.22173 10.8347 -1.02973 11.0293C0.535604 12.592 3.06894 12.592 4.62894 11.0293C6.1916 9.46935 6.1916 6.93601 4.62894 5.37601C4.43694 5.17868 4.22894 5.01068 4.0076 4.86401C4.6076 5.98401 4.11427 7.77601 2.7436 9.14401C1.37294 10.5093 -0.416396 11.0053 -1.53906 10.4053L-1.5364 10.408Z" fill="white"/>
<circle cx="20" cy="20" r="19.5" stroke="#CCCCCC"/>
</g>
<defs>
<clipPath id="clip0_6041_13269">
<path d="M0 20C0 8.95431 8.95431 0 20 0C31.0457 0 40 8.95431 40 20C40 31.0457 31.0457 40 20 40C8.95431 40 0 31.0457 0 20Z" fill="white"/>
</clipPath>
</defs>
</svg>
