<svg width="40" height="40" viewBox="0 0 40 40" fill="none" xmlns="http://www.w3.org/2000/svg">
<path d="M20 40C31.0457 40 40 31.0457 40 20C40 8.9543 31.0457 0 20 0C8.9543 0 0 8.9543 0 20C0 31.0457 8.9543 40 20 40Z" fill="white"/>
<path d="M0 20C0 31.0456 8.95437 40 20 40C20 32.3941 20 20 20 20C20 20 6.95648 20 0 20Z" fill="#1A47B8"/>
<path d="M20 0C31.0456 0 40 8.95437 40 20C32.3941 20 20 20 20 20C20 20 20 6.95648 20 0Z" fill="#F93939"/>
<path d="M11.9059 6.95654L13.2009 10.9423H17.3918L14.0013 13.4056L15.2963 17.3914L11.9059 14.928L8.51539 17.3914L9.81039 13.4056L6.41992 10.9423H10.6108L11.9059 6.95654Z" fill="#1A47B8"/>
<path d="M28.0953 22.6086L29.3904 26.5944H33.5813L30.1907 29.0577L31.4858 33.0435L28.0953 30.5801L24.7048 33.0435L25.9998 29.0577L22.6094 26.5944H26.8002L28.0953 22.6086Z" fill="#F93939"/>
<circle cx="20" cy="20" r="19.5" stroke="#CCCCCC"/>
</svg>
