<svg width="40" height="40" viewBox="0 0 40 40" fill="none" xmlns="http://www.w3.org/2000/svg">
<path d="M20 40C31.0457 40 40 31.0457 40 20C40 8.9543 31.0457 0 20 0C8.9543 0 0 8.9543 0 20C0 31.0457 8.9543 40 20 40Z" fill="white"/>
<path d="M2.43164 10.4348H37.568C34.1759 4.21789 27.5807 0 19.9998 0C12.419 0 5.82375 4.21789 2.43164 10.4348Z" fill="#F93939"/>
<path d="M19.9998 40C27.5807 40 34.1759 35.7821 37.568 29.5652H2.43164C5.82375 35.7821 12.419 40 19.9998 40Z" fill="#F93939"/>
<path d="M26.9559 19.9999C26.9559 23.842 23.8414 26.0869 19.9995 26.0869C16.1575 26.0869 13.043 23.842 13.043 19.9999C13.043 16.1579 16.1575 13.0435 19.9995 13.0435C23.8414 13.0435 26.9559 16.1579 26.9559 19.9999Z" fill="#FFDA2C"/>
<path d="M26.9559 20C26.9559 23.842 23.8414 26.9565 19.9995 26.9565C16.1575 26.9565 13.043 23.842 13.043 20" fill="#1A47B8"/>
<path d="M15.6523 18.2609H17.3915V21.7391H15.6523V18.2609Z" fill="#F93939"/>
<path d="M22.6094 18.2609H24.3485V21.7391H22.6094V18.2609Z" fill="#F93939"/>
<path d="M19.1309 15.6522H20.87V21.7392H19.1309V15.6522Z" fill="#F93939"/>
<circle cx="20" cy="20" r="19.5" stroke="#CCCCCC"/>
</svg>
