<svg width="40" height="40" viewBox="0 0 40 40" fill="none" xmlns="http://www.w3.org/2000/svg">
<g clip-path="url(#clip0_6041_13313)">
<path d="M20 40C31.0457 40 40 31.0457 40 20C40 8.9543 31.0457 0 20 0C8.9543 0 0 8.9543 0 20C0 31.0457 8.9543 40 20 40Z" fill="white"/>
<path d="M19.9996 0V20L5.85742 34.1422C9.47672 37.7614 14.4767 40 19.9996 40C31.0452 40 39.9996 31.0456 39.9996 20C39.9996 8.95437 19.9996 0 19.9996 0Z" fill="#F93939"/>
<path d="M19.9996 0C14.4767 0 9.47672 2.23859 5.85742 5.85781C10.7645 10.7648 12.5064 12.5069 19.9996 20H39.9996C39.9996 8.95437 31.0452 0 19.9996 0Z" fill="#1A47B8"/>
<path d="M13.6947 20L11.2522 18.8511L12.5529 16.4855L9.90059 16.9929L9.56449 14.3135L7.71699 16.2841L5.86957 14.3135L5.5334 16.9929L2.88113 16.4854L4.18184 18.8511L1.73926 20L4.18184 21.1489L2.88113 23.5144L5.53363 23.0071L5.86949 25.6864L7.71699 23.7158L9.56449 25.6864L9.90059 23.0071L12.5528 23.5145L11.2521 21.1489L13.6947 20Z" fill="#FFDA2C"/>
<path d="M5.33438 7.82617L6.14719 8.96234L7.47883 8.54055L6.6493 9.66461L7.46211 10.8008L6.13664 10.3593L5.30719 11.4833L5.31758 10.0864L3.99219 9.64484L5.32406 9.22305L5.33438 7.82617Z" fill="#FFDA2C"/>
<path d="M5.33438 28.5168L6.14719 29.653L7.47883 29.2311L6.6493 30.3553L7.46211 31.4915L6.13664 31.05L5.30719 32.174L5.31758 30.7771L3.99219 30.3355L5.32406 29.9137L5.33438 28.5168Z" fill="#FFDA2C"/>
<path d="M16.9267 18.1716L16.1139 19.3078L14.7822 18.8858L15.6118 20.01L14.7989 21.1462L16.1244 20.7047L16.9539 21.8287L16.9435 20.4319L18.2689 19.9903L16.9371 19.5685L16.9267 18.1716Z" fill="#FFDA2C"/>
<circle cx="20" cy="20" r="19.5" stroke="#CCCCCC"/>
</g>
<defs>
<clipPath id="clip0_6041_13313">
<rect width="40" height="40" fill="white"/>
</clipPath>
</defs>
</svg>
