<svg width="40" height="40" viewBox="0 0 40 40" fill="none" xmlns="http://www.w3.org/2000/svg">
<g clip-path="url(#clip0_6041_13263)">
<path d="M0 20C0 8.95431 8.95431 0 20 0C31.0457 0 40 8.95431 40 20C40 31.0457 31.0457 40 20 40C8.95431 40 0 31.0457 0 20Z" fill="#0A6A30"/>
<path d="M45.3327 0H-0.000650883C-2.94617 0 -5.33398 2.38781 -5.33398 5.33333V34.6667C-5.33398 37.6122 -2.94617 40 -0.000650883 40H45.3327C48.2782 40 50.666 37.6122 50.666 34.6667V5.33333C50.666 2.38781 48.2782 0 45.3327 0Z" fill="#0A6A30"/>
<path fill-rule="evenodd" clip-rule="evenodd" d="M34.5973 15.9307C34.4213 17.52 33.92 18.6667 33.3333 18.6667C32.7467 18.6667 32.2453 17.52 32.0693 15.9307C30.48 15.7547 29.3333 15.2533 29.3333 14.6667C29.3333 14.08 30.48 13.5787 32.0693 13.4027C32.2453 11.8133 32.7467 10.6667 33.3333 10.6667C33.92 10.6667 34.4213 11.8133 34.5973 13.4027C36.1867 13.5787 37.3333 14.08 37.3333 14.6667C37.3333 15.2533 36.1867 15.7547 34.5973 15.9307ZM-8 0H8V40H-8V0Z" fill="white"/>
<path fill-rule="evenodd" clip-rule="evenodd" d="M39.92 18.5813C39.9733 19.048 40 19.52 40 20C40 26.6267 34.6267 32 28 32C21.3733 32 16 26.6267 16 20C16 13.3733 21.3733 8 28 8C28.48 8 28.952 8.02667 29.4187 8.08C24.8533 8.69333 21.3333 12.6053 21.3333 17.3333C21.3333 22.488 25.512 26.6667 30.6667 26.6667C35.3973 26.6667 39.3067 23.1467 39.92 18.5813Z" fill="white"/>
<circle cx="20" cy="20" r="19.5" stroke="#CCCCCC"/>
</g>
<defs>
<clipPath id="clip0_6041_13263">
<path d="M0 20C0 8.95431 8.95431 0 20 0C31.0457 0 40 8.95431 40 20C40 31.0457 31.0457 40 20 40C8.95431 40 0 31.0457 0 20Z" fill="white"/>
</clipPath>
</defs>
</svg>
