<svg width="40" height="40" viewBox="0 0 40 40" fill="none" xmlns="http://www.w3.org/2000/svg">
<path d="M40 20C40 31.0456 31.0456 40 20 40C8.95437 40 0 31.0456 0 20C0 20.0048 20 0.0021875 20 0C31.0456 0 40 8.95437 40 20Z" fill="#1A47B8"/>
<path d="M19.9463 20H19.9998C19.9998 19.9821 19.9998 19.9646 19.9998 19.9465C19.982 19.9644 19.9642 19.9822 19.9463 20Z" fill="white"/>
<path d="M20 10.4348C20 6.91563 20 4.60977 20 0H19.9966C8.95242 0.001875 0 8.95539 0 20H10.4348V14.1241L16.3106 20H19.9466C19.9644 19.9822 19.9822 19.9644 20.0001 19.9465C20.0001 18.5991 20.0001 17.3968 20.0001 16.3108L14.1241 10.4348H20Z" fill="white"/>
<path d="M10.1191 2.60864C6.99102 4.38981 4.39047 6.99028 2.60938 10.1183V20H7.8268V7.82622V7.82607H20.0007C20.0007 6.18052 20.0007 4.61286 20.0007 2.60864H10.1191Z" fill="#F93939"/>
<path d="M20.0008 17.5405L12.8949 10.4348H10.4355V10.435L20.0006 20H20.0008C20.0008 20 20.0008 18.3041 20.0008 17.5405Z" fill="#F93939"/>
<path d="M31.3038 12.174L28.695 13.0436L26.0863 12.174L25.2168 10.0001L26.0863 7.82617H31.3038L30.4341 10.0001L31.3038 12.174Z" fill="#CBCBCB"/>
<path d="M22.6094 12.1738V21.739C22.6094 26.3984 28.6963 27.826 28.6963 27.826C28.6963 27.826 34.7833 26.3984 34.7833 21.739V12.1738H22.6094Z" fill="#3A99FF"/>
<path d="M23.1572 24.0052C24.6535 26.8778 28.6955 27.8262 28.6955 27.8262C28.6955 27.8262 32.7375 26.8778 34.2338 24.0052L28.6955 14.7827L23.1572 24.0052Z" fill="#00B731"/>
<path d="M34.7833 21.6423L28.6963 12.1738L22.6094 21.6424V21.739C22.6094 22.6013 22.8183 23.3527 23.158 24.0051L28.6963 15.3898L34.2346 24.005C34.5744 23.3526 34.7833 22.6012 34.7833 21.7389V21.6423Z" fill="#FFDA2C"/>
</svg>
