<svg width="40" height="40" viewBox="0 0 40 40" fill="none" xmlns="http://www.w3.org/2000/svg">
<g clip-path="url(#clip0_6041_13337)">
<path d="M0 20C0 8.95431 8.95431 0 20 0C31.0457 0 40 8.95431 40 20C40 31.0457 31.0457 40 20 40C8.95431 40 0 31.0457 0 20Z" fill="#F93939"/>
<path fill-rule="evenodd" clip-rule="evenodd" d="M-5.33301 0H13.3337V40H-5.33301V0Z" fill="#249F58"/>
<path d="M13.334 26.6667C17.7523 26.6667 21.334 23.085 21.334 18.6667C21.334 14.2485 17.7523 10.6667 13.334 10.6667C8.91571 10.6667 5.33398 14.2485 5.33398 18.6667C5.33398 23.085 8.91571 26.6667 13.334 26.6667Z" fill="#FFDA2C"/>
<path fill-rule="evenodd" clip-rule="evenodd" d="M18.6667 21.3333V13.3333H8V21.3333C8 22.8053 10.3867 23.9999 13.3333 23.9999C16.28 23.9999 18.6667 22.8053 18.6667 21.3333Z" fill="#F93939"/>
<path fill-rule="evenodd" clip-rule="evenodd" d="M10.667 16H16.0003V21.3333H10.667V16Z" fill="white"/>
<path fill-rule="evenodd" clip-rule="evenodd" d="M10.667 16H13.3337V18.6667H10.667V16ZM13.3337 18.6667H16.0003V21.3333H13.3337V18.6667Z" fill="#1A47B8"/>
</g>
<defs>
<clipPath id="clip0_6041_13337">
<path d="M0 20C0 8.95431 8.95431 0 20 0C31.0457 0 40 8.95431 40 20C40 31.0457 31.0457 40 20 40C8.95431 40 0 31.0457 0 20Z" fill="white"/>
</clipPath>
</defs>
</svg>
