<svg width="40" height="40" viewBox="0 0 40 40" fill="none" xmlns="http://www.w3.org/2000/svg">
<g clip-path="url(#clip0_6041_13306)">
<path d="M0 20C0 8.95431 8.95431 0 20 0C31.0457 0 40 8.95431 40 20C40 31.0457 31.0457 40 20 40C8.95431 40 0 31.0457 0 20Z" fill="white"/>
<path fill-rule="evenodd" clip-rule="evenodd" d="M-8 26.6667H48V40.0001H-8V26.6667Z" fill="#1A47B8"/>
<path fill-rule="evenodd" clip-rule="evenodd" d="M23.92 19.2C23.9733 19.4586 24 19.7253 24 20C24 22.208 22.208 24 20 24C17.792 24 16 22.208 16 20C16 19.7253 16.0267 19.4586 16.08 19.2C16.4533 20.416 18.064 21.3333 20 21.3333C21.936 21.3333 23.5467 20.416 23.92 19.2Z" fill="#249F58"/>
<path d="M19.9993 18.6667C20.7357 18.6667 21.3327 18.0697 21.3327 17.3333C21.3327 16.597 20.7357 16 19.9993 16C19.263 16 18.666 16.597 18.666 17.3333C18.666 18.0697 19.263 18.6667 19.9993 18.6667Z" fill="#FFDA2C"/>
<path fill-rule="evenodd" clip-rule="evenodd" d="M-8 0H48V13.3333H-8V0Z" fill="#F93939"/>
<circle cx="20" cy="20" r="19.5" stroke="#CCCCCC"/>
</g>
<defs>
<clipPath id="clip0_6041_13306">
<path d="M0 20C0 8.95431 8.95431 0 20 0C31.0457 0 40 8.95431 40 20C40 31.0457 31.0457 40 20 40C8.95431 40 0 31.0457 0 20Z" fill="white"/>
</clipPath>
</defs>
</svg>
