<svg width="40" height="40" viewBox="0 0 40 40" fill="none" xmlns="http://www.w3.org/2000/svg">
<g clip-path="url(#clip0_6041_13367)">
<path d="M49.6999 0H-11V40H49.6999V0Z" fill="#1A47B8"/>
<path d="M49.6999 0H-11V40H49.6999V0Z" fill="#1A47B8"/>
<path d="M-10.5 40H50.1999L19.8499 20L-10.5 40Z" fill="#F93939"/>
<path d="M-7.7075 0H-10.5V2.98795L19.8499 20L-7.7075 0Z" fill="#FFDA2C"/>
<path d="M19.8502 20L21.9914 0H17.709L19.8502 20Z" fill="#FFDA2C"/>
<path d="M19.8496 20L50.1995 22.0924V17.9077L19.8496 20Z" fill="#FFDA2C"/>
<path d="M-10.5 17.9077V22.0924L19.8499 20L-10.5 17.9077Z" fill="#FFDA2C"/>
<path d="M50.1995 2.98795V0H47.407L19.8496 20L50.1995 2.98795Z" fill="#FFDA2C"/>
</g>
<defs>
<clipPath id="clip0_6041_13367">
<path d="M0 20C0 8.95431 8.95431 0 20 0C31.0457 0 40 8.95431 40 20C40 31.0457 31.0457 40 20 40C8.95431 40 0 31.0457 0 20Z" fill="white"/>
</clipPath>
</defs>
</svg>
