<svg width="40" height="40" viewBox="0 0 40 40" fill="none" xmlns="http://www.w3.org/2000/svg">
<path d="M0 19.9999C0 23.4647 0.881484 26.7236 2.4318 29.5651L20 31.3043L37.5682 29.5651C39.1185 26.7236 40 23.4647 40 19.9999L20 18.2607L0 19.9999Z" fill="#FFDA2C"/>
<path d="M37.5682 10.4348C34.1761 4.21789 27.5809 0 20 0C12.4191 0 5.82391 4.21789 2.4318 10.4348C0.881484 13.2762 0 16.5352 0 20H40C40 16.5352 39.1185 13.2762 37.5682 10.4348Z" fill="#03BCDB"/>
<path d="M19.9998 40C27.5807 40 34.1759 35.7821 37.568 29.5652H2.43164C5.82375 35.7821 12.419 40 19.9998 40Z" fill="#0A6A30"/>
<path d="M22.6094 11.7047L25.052 12.8537L23.7513 15.2193L26.4037 14.712L26.7398 17.3913L28.5871 15.4207L30.4346 17.3913L30.7706 14.712L33.423 15.2192L32.1223 12.8536L34.5648 11.7047L32.1223 10.5559L33.423 8.19026L30.7707 8.69761L30.4345 6.01831L28.5871 7.98894L26.7397 6.01831L26.4037 8.69761L23.7512 8.19026L25.052 10.556L22.6094 11.7047Z" fill="#FFDA2C"/>
</svg>
