<svg width="40" height="40" viewBox="0 0 40 40" fill="none" xmlns="http://www.w3.org/2000/svg">
<g clip-path="url(#clip0_6041_13600)">
<path d="M0 20C0 8.95431 8.95431 0 20 0C31.0457 0 40 8.95431 40 20C40 31.0457 31.0457 40 20 40C8.95431 40 0 31.0457 0 20Z" fill="#1A47B8"/>
<path fill-rule="evenodd" clip-rule="evenodd" d="M-2.66602 40H53.334V0L-2.66602 40Z" fill="#FFDA2C"/>
<path fill-rule="evenodd" clip-rule="evenodd" d="M2.66797 39.9999H53.3346V5.33325L2.66797 39.9999Z" fill="#249F58"/>
<path fill-rule="evenodd" clip-rule="evenodd" d="M10.9922 15.0879L9.34419 15.9999L9.65885 14.0693L8.32552 12.7039L10.1655 12.4213L10.9922 10.6666L11.8189 12.4213L13.6589 12.7039L12.3255 14.0693L12.6402 15.9999L10.9922 15.0879ZM5.65885 9.75459L4.01085 10.6666L4.32552 8.73592L2.99219 7.37059L4.83219 7.08792L5.65885 5.33325L6.48552 7.08792L8.32552 7.37059L6.99219 8.73592L7.30685 10.6666L5.65885 9.75459ZM16.3255 9.75459L14.6775 10.6666L14.9922 8.73592L13.6589 7.37059L15.4989 7.08792L16.3255 5.33325L17.1522 7.08792L18.9922 7.37059L17.6589 8.73592L17.9735 10.6666L16.3255 9.75459ZM16.3255 20.4213L14.6775 21.3333L14.9922 19.4026L13.6589 18.0373L15.4989 17.7546L16.3255 15.9999L17.1522 17.7546L18.9922 18.0373L17.6589 19.4026L17.9735 21.3333L16.3255 20.4213ZM5.65885 20.4213L4.01085 21.3333L4.32552 19.4026L2.99219 18.0373L4.83219 17.7546L5.65885 15.9999L6.48552 17.7546L8.32552 18.0373L6.99219 19.4026L7.30685 21.3333L5.65885 20.4213Z" fill="white"/>
</g>
<defs>
<clipPath id="clip0_6041_13600">
<path d="M0 20C0 8.95431 8.95431 0 20 0C31.0457 0 40 8.95431 40 20C40 31.0457 31.0457 40 20 40C8.95431 40 0 31.0457 0 20Z" fill="white"/>
</clipPath>
</defs>
</svg>
