<svg width="40" height="40" viewBox="0 0 40 40" fill="none" xmlns="http://www.w3.org/2000/svg">
<g clip-path="url(#clip0_6041_13489)">
<path d="M0 20C0 8.95431 8.95431 0 20 0C31.0457 0 40 8.95431 40 20C40 31.0457 31.0457 40 20 40C8.95431 40 0 31.0457 0 20Z" fill="#FFDA2C"/>
<path fill-rule="evenodd" clip-rule="evenodd" d="M-5.33398 40L18.666 0H-5.33398V40Z" fill="#1A47B8"/>
<path fill-rule="evenodd" clip-rule="evenodd" d="M-5.33398 40L37.3327 0H50.666V10.6667L-5.33398 40Z" fill="#F93939"/>
<path fill-rule="evenodd" clip-rule="evenodd" d="M-5.33398 40.0001L50.666 24.0001V10.6667L-5.33398 40.0001Z" fill="white"/>
<path fill-rule="evenodd" clip-rule="evenodd" d="M-5.33398 40L50.666 24V40H-5.33398Z" fill="#249F58"/>
<circle cx="20" cy="20" r="19.5" stroke="#CCCCCC"/>
</g>
<defs>
<clipPath id="clip0_6041_13489">
<path d="M0 20C0 8.95431 8.95431 0 20 0C31.0457 0 40 8.95431 40 20C40 31.0457 31.0457 40 20 40C8.95431 40 0 31.0457 0 20Z" fill="white"/>
</clipPath>
</defs>
</svg>
