<svg width="40" height="40" viewBox="0 0 40 40" fill="none" xmlns="http://www.w3.org/2000/svg">
<g clip-path="url(#clip0_6041_13626)">
<path d="M0 20C0 8.95431 8.95431 0 20 0C31.0457 0 40 8.95431 40 20C40 31.0457 31.0457 40 20 40C8.95431 40 0 31.0457 0 20Z" fill="white"/>
<path fill-rule="evenodd" clip-rule="evenodd" d="M-5.33301 26.6667H50.667V40.0001H-5.33301V26.6667Z" fill="#151515"/>
<path fill-rule="evenodd" clip-rule="evenodd" d="M-5.33301 0H50.667V13.3333H-5.33301V0Z" fill="#AF010D"/>
<path fill-rule="evenodd" clip-rule="evenodd" d="M-5.33301 0V40.088L21.3337 20L-5.33301 0Z" fill="#249F58"/>
<circle cx="20" cy="20" r="19.5" stroke="#CCCCCC"/>
</g>
<defs>
<clipPath id="clip0_6041_13626">
<path d="M0 20C0 8.95431 8.95431 0 20 0C31.0457 0 40 8.95431 40 20C40 31.0457 31.0457 40 20 40C8.95431 40 0 31.0457 0 20Z" fill="white"/>
</clipPath>
</defs>
</svg>
