<svg width="40" height="40" viewBox="0 0 40 40" fill="none" xmlns="http://www.w3.org/2000/svg">
<g clip-path="url(#clip0_6041_13662)">
<path d="M0 20C0 8.95431 8.95431 0 20 0C31.0457 0 40 8.95431 40 20C40 31.0457 31.0457 40 20 40C8.95431 40 0 31.0457 0 20Z" fill="#3A99FF"/>
<path fill-rule="evenodd" clip-rule="evenodd" d="M10.666 24H-5.33398V16H10.666V0H18.666V16H50.666V24H18.666V40H10.666V24Z" fill="#FFDA2C"/>
</g>
<defs>
<clipPath id="clip0_6041_13662">
<path d="M0 20C0 8.95431 8.95431 0 20 0C31.0457 0 40 8.95431 40 20C40 31.0457 31.0457 40 20 40C8.95431 40 0 31.0457 0 20Z" fill="white"/>
</clipPath>
</defs>
</svg>
