<svg width="40" height="40" viewBox="0 0 40 40" fill="none" xmlns="http://www.w3.org/2000/svg">
<g clip-path="url(#clip0_6041_13480)">
<path d="M0 20C0 8.95431 8.95431 0 20 0C31.0457 0 40 8.95431 40 20C40 31.0457 31.0457 40 20 40C8.95431 40 0 31.0457 0 20Z" fill="white"/>
<path fill-rule="evenodd" clip-rule="evenodd" d="M0 0H56V24H0V0Z" fill="#F93939"/>
<path fill-rule="evenodd" clip-rule="evenodd" d="M16.0007 20.9679C15.2273 21.2079 14.4007 21.3333 13.5393 21.3333C9.00598 21.3333 5.33398 17.7519 5.33398 13.3333C5.33398 8.91459 9.00865 5.33325 13.5393 5.33325C14.398 5.33325 15.2247 5.46125 16.0007 5.69859C12.6727 6.71992 10.2567 9.75192 10.2567 13.3333C10.2567 16.9146 12.6727 19.9466 16.0007 20.9679ZM21.334 7.99992H24.0007V10.6666H21.334V7.99992ZM26.6673 10.6666H29.334V13.3333H26.6673V10.6666ZM24.0007 15.9999H26.6673V18.6666H24.0007V15.9999ZM16.0007 10.6666H18.6673V13.3333H16.0007V10.6666ZM18.6673 15.9999H21.334V18.6666H18.6673V15.9999Z" fill="white"/>
<circle cx="20" cy="20" r="19.5" stroke="#CCCCCC"/>
</g>
<defs>
<clipPath id="clip0_6041_13480">
<path d="M0 20C0 8.95431 8.95431 0 20 0C31.0457 0 40 8.95431 40 20C40 31.0457 31.0457 40 20 40C8.95431 40 0 31.0457 0 20Z" fill="white"/>
</clipPath>
</defs>
</svg>
