<svg width="40" height="40" viewBox="0 0 40 40" fill="none" xmlns="http://www.w3.org/2000/svg">
<path d="M40 20C40 31.0456 31.0456 40 20 40C8.95437 40 0 31.0456 0 20C0 20.0048 20 0.0021875 20 0C31.0456 0 40 8.95437 40 20Z" fill="#1A47B8"/>
<path d="M19.9473 20H20.0008C20.0008 19.9821 20.0008 19.9646 20.0008 19.9465C19.983 19.9644 19.9652 19.9822 19.9473 20Z" fill="white"/>
<path d="M20 10.4348C20 6.91563 20 4.60977 20 0H19.9966C8.95242 0.001875 0 8.95539 0 20H10.4348V14.1241L16.3106 20H19.9466C19.9644 19.9822 19.9822 19.9644 20.0001 19.9465C20.0001 18.5991 20.0001 17.3968 20.0001 16.3108L14.1241 10.4348H20Z" fill="white"/>
<path d="M10.1191 2.60864C6.99102 4.38981 4.39047 6.99028 2.60938 10.1183V20H7.8268V7.82622V7.82607H20.0007C20.0007 6.18052 20.0007 4.61286 20.0007 2.60864H10.1191Z" fill="#F93939"/>
<path d="M20.0008 17.5405L12.8949 10.4348H10.4355V10.435L20.0006 20H20.0008C20.0008 20 20.0008 18.3041 20.0008 17.5405Z" fill="#F93939"/>
<path d="M33.8241 22.9275C34.3991 22.1363 34.7833 21.17 34.7833 19.9999V11.3043C34.0566 11.8502 33.1534 12.1738 32.1746 12.1738C30.7523 12.1738 29.4895 11.4908 28.6963 10.4348C27.903 11.4908 26.6403 12.1738 25.218 12.1738C24.2391 12.1738 23.336 11.8501 22.6094 11.3044V19.9999C22.6094 21.17 22.9935 22.1363 23.5686 22.9275H33.8241Z" fill="#03BCDB"/>
<path d="M32.1746 12.1738C33.1534 12.1738 34.0566 11.8502 34.7833 11.3043V15.6521L22.6094 15.6522V11.3044C23.336 11.8501 24.2391 12.1738 25.218 12.1738C26.6403 12.1738 27.903 11.4908 28.6963 10.4348C29.4895 11.4908 30.7523 12.1738 32.1746 12.1738Z" fill="#FFDA2C"/>
<path d="M29.6683 14.5834C29.9452 13.908 30.1605 12.9207 30.1605 12.4294C30.1605 11.6399 29.1313 11 29.1313 11C29.1313 11 29.0593 11.0447 28.9535 11.1251C28.659 11.3488 28.102 11.8486 28.102 12.4294C28.102 12.9208 28.3174 13.908 28.5941 14.5834L28 15.9249C28.3492 16.067 28.7309 16.1459 29.1313 16.1459C29.5317 16.1459 29.9134 16.0669 30.2627 15.9249L29.6683 14.5834Z" fill="#AE6A3E"/>
<path d="M28.102 12.4294C28.102 11.8486 28.659 11.3488 28.9535 11.1251L27 12.5L28.102 12.4294Z" fill="#AE6A3E"/>
<path d="M23.3535 22.6089C24.9776 25.2147 28.6964 26.087 28.6964 26.087C28.6964 26.087 32.4152 25.2147 34.0393 22.6089H23.3535Z" fill="#3A99FF"/>
<circle cx="20" cy="20" r="19.5" stroke="#CCCCCC"/>
</svg>
