<svg width="40" height="40" viewBox="0 0 40 40" fill="none" xmlns="http://www.w3.org/2000/svg">
<g clip-path="url(#clip0_6041_13605)">
<path d="M0 20C0 8.95431 8.95431 0 20 0C31.0457 0 40 8.95431 40 20C40 31.0457 31.0457 40 20 40C8.95431 40 0 31.0457 0 20Z" fill="#1A47B8"/>
<path fill-rule="evenodd" clip-rule="evenodd" d="M0 26.6667H56V40.0001H0V26.6667Z" fill="#F93939"/>
<path fill-rule="evenodd" clip-rule="evenodd" d="M0 0H56V13.3333H0V0Z" fill="white"/>
<path d="M17.334 8H12.0007C10.5279 8 9.33398 9.19391 9.33398 10.6667V17.3333C9.33398 18.8061 10.5279 20 12.0007 20H17.334C18.8067 20 20.0007 18.8061 20.0007 17.3333V10.6667C20.0007 9.19391 18.8067 8 17.334 8Z" fill="#F93939"/>
<path d="M15.9993 8H13.3327C11.8599 8 10.666 9.19391 10.666 10.6667V16C10.666 17.4728 11.8599 18.6667 13.3327 18.6667H15.9993C17.4721 18.6667 18.666 17.4728 18.666 16V10.6667C18.666 9.19391 17.4721 8 15.9993 8Z" fill="#1A47B8"/>
<path fill-rule="evenodd" clip-rule="evenodd" d="M13.334 10.6667H16.0007V13.3334H13.334V10.6667Z" fill="#FFDA2C"/>
<path fill-rule="evenodd" clip-rule="evenodd" d="M10.666 16.0001L14.666 14.6667L18.666 16.0001L15.9993 18.6667H13.3327L10.666 16.0001Z" fill="white"/>
<circle cx="20" cy="20" r="19.5" stroke="#CCCCCC"/>
</g>
<defs>
<clipPath id="clip0_6041_13605">
<path d="M0 20C0 8.95431 8.95431 0 20 0C31.0457 0 40 8.95431 40 20C40 31.0457 31.0457 40 20 40C8.95431 40 0 31.0457 0 20Z" fill="white"/>
</clipPath>
</defs>
</svg>
