<svg width="40" height="40" viewBox="0 0 40 40" fill="none" xmlns="http://www.w3.org/2000/svg">
<g clip-path="url(#clip0_6041_13613)">
<path d="M0 20C0 8.95431 8.95431 0 20 0C31.0457 0 40 8.95431 40 20C40 31.0457 31.0457 40 20 40C8.95431 40 0 31.0457 0 20Z" fill="#1A47B8"/>
<path fill-rule="evenodd" clip-rule="evenodd" d="M-2.66602 26.6667H53.334V40.0001H-2.66602V26.6667Z" fill="#F93939"/>
<path fill-rule="evenodd" clip-rule="evenodd" d="M-2.66602 0H53.334V13.3333H-2.66602V0ZM23.814 26.6667H24.0007V13.3333H5.33398V26.6667H5.52065C5.39798 27.0987 5.33398 27.5467 5.33398 28C5.33398 31.68 14.6673 34.6667 14.6673 34.6667C14.6673 34.6667 24.0007 31.68 24.0007 28C24.0007 27.5467 23.9367 27.0987 23.814 26.6667Z" fill="white"/>
<path fill-rule="evenodd" clip-rule="evenodd" d="M21.3333 26.6667V10.6667H8V26.6667C8 29.6134 14.6667 32.0001 14.6667 32.0001C14.6667 32.0001 21.3333 29.6134 21.3333 26.6667Z" fill="#F93939"/>
<path fill-rule="evenodd" clip-rule="evenodd" d="M13.334 21.3333V18.6666H10.6673V15.9999H13.334V13.3333H16.0007V15.9999H18.6673V18.6666H16.0007V21.3333H20.0007V23.9999H16.0007V26.6666H13.334V23.9999H9.33398V21.3333H13.334Z" fill="white"/>
<path fill-rule="evenodd" clip-rule="evenodd" d="M14.6667 31.9999C14.6667 31.9999 21.3333 29.6133 21.3333 26.6666C21.3333 23.7199 18.6667 23.9999 14.6667 26.6666C10.6667 23.9999 8 23.7199 8 26.6666C8 29.6133 14.6667 31.9999 14.6667 31.9999Z" fill="#1A47B8"/>
<circle cx="20" cy="20" r="19.5" stroke="#CCCCCC"/>
</g>
<defs>
<clipPath id="clip0_6041_13613">
<path d="M0 20C0 8.95431 8.95431 0 20 0C31.0457 0 40 8.95431 40 20C40 31.0457 31.0457 40 20 40C8.95431 40 0 31.0457 0 20Z" fill="white"/>
</clipPath>
</defs>
</svg>
