<svg width="40" height="40" viewBox="0 0 40 40" fill="none" xmlns="http://www.w3.org/2000/svg">
<g clip-path="url(#clip0_6041_13505)">
<path d="M0 20C0 8.95431 8.95431 0 20 0C31.0457 0 40 8.95431 40 20C40 31.0457 31.0457 40 20 40C8.95431 40 0 31.0457 0 20Z" fill="white"/>
<path fill-rule="evenodd" clip-rule="evenodd" d="M-8 18.6667H48V40.0001H-8V18.6667Z" fill="#3A99FF"/>
<path opacity="0.2" fill-rule="evenodd" clip-rule="evenodd" d="M-8 18.6667H48V40.0001H-8V18.6667Z" fill="white"/>
<path fill-rule="evenodd" clip-rule="evenodd" d="M13.333 10.6667H26.6663V13.3334L19.9997 16.0001L13.333 13.3334V10.6667Z" fill="#D4AF2C"/>
<path fill-rule="evenodd" clip-rule="evenodd" d="M26.6663 22.6667C26.6663 18.9867 23.6797 16 19.9997 16C16.3197 16 13.333 18.9867 13.333 22.6667C13.333 26.3467 16.3197 29.3333 19.9997 29.3333C23.6797 29.3333 26.6663 26.3467 26.6663 22.6667ZM19.9997 26.6667C22.2077 26.6667 23.9997 24.28 23.9997 21.3333C23.9997 18.3867 22.2077 16 19.9997 16C17.7917 16 15.9997 18.3867 15.9997 21.3333C15.9997 24.28 17.7917 26.6667 19.9997 26.6667Z" fill="#249F58"/>
<path d="M20.0003 24.0001C20.7367 24.0001 21.3337 22.8062 21.3337 21.3334C21.3337 19.8607 20.7367 18.6667 20.0003 18.6667C19.2639 18.6667 18.667 19.8607 18.667 21.3334C18.667 22.8062 19.2639 24.0001 20.0003 24.0001Z" fill="#D4AF2C"/>
<circle cx="20" cy="20" r="19.5" stroke="#CCCCCC"/>
</g>
<defs>
<clipPath id="clip0_6041_13505">
<path d="M0 20C0 8.95431 8.95431 0 20 0C31.0457 0 40 8.95431 40 20C40 31.0457 31.0457 40 20 40C8.95431 40 0 31.0457 0 20Z" fill="white"/>
</clipPath>
</defs>
</svg>
