<svg width="40" height="40" viewBox="0 0 40 40" fill="none" xmlns="http://www.w3.org/2000/svg">
<g clip-path="url(#clip0_6041_13495)">
<path d="M0 20C0 8.95431 8.95431 0 20 0C31.0457 0 40 8.95431 40 20C40 31.0457 31.0457 40 20 40C8.95431 40 0 31.0457 0 20Z" fill="#FFDA2C"/>
<path fill-rule="evenodd" clip-rule="evenodd" d="M-8 0H10.6667V40H-8V0Z" fill="#249F58"/>
<path fill-rule="evenodd" clip-rule="evenodd" d="M29.334 0H48.0007V40H29.334V0Z" fill="#F93939"/>
<path fill-rule="evenodd" clip-rule="evenodd" d="M19.9995 23.3333L16.0795 25.3946L16.8262 21.0293L13.6582 17.9359L18.0395 17.3039L19.9995 13.3333L21.9595 17.3066L26.3409 17.9386L23.1675 21.0319L23.9142 25.3946" fill="#249F58"/>
</g>
<defs>
<clipPath id="clip0_6041_13495">
<path d="M0 20C0 8.95431 8.95431 0 20 0C31.0457 0 40 8.95431 40 20C40 31.0457 31.0457 40 20 40C8.95431 40 0 31.0457 0 20Z" fill="white"/>
</clipPath>
</defs>
</svg>
