<svg width="40" height="40" viewBox="0 0 40 40" fill="none" xmlns="http://www.w3.org/2000/svg">
<g clip-path="url(#clip0_6041_13575)">
<path d="M0 20C0 8.95431 8.95431 0 20 0C31.0457 0 40 8.95431 40 20C40 31.0457 31.0457 40 20 40C8.95431 40 0 31.0457 0 20Z" fill="white"/>
<path fill-rule="evenodd" clip-rule="evenodd" d="M-2.66602 0H53.334V10.6667H-2.66602V0Z" fill="#151515"/>
<path fill-rule="evenodd" clip-rule="evenodd" d="M-2.66602 29.3333H53.334V39.9999H-2.66602V29.3333Z" fill="#249F58"/>
<path fill-rule="evenodd" clip-rule="evenodd" d="M-2.66602 13.3333H53.334V26.6666H-2.66602V13.3333Z" fill="#F93939"/>
<path fill-rule="evenodd" clip-rule="evenodd" d="M-2.66602 0L29.334 20L-2.66602 40V0Z" fill="#1A47B8"/>
<path fill-rule="evenodd" clip-rule="evenodd" d="M9.9553 23.2853L6.40863 25.9333L6.46197 21.5066L2.84863 18.9466L7.0753 17.6346L8.38997 13.408L10.95 17.0213L15.3766 16.968L12.726 20.5146L14.1473 24.7066L9.9553 23.2853Z" fill="#FFDA2C"/>
<circle cx="20" cy="20" r="19.5" stroke="#CCCCCC"/>
</g>
<defs>
<clipPath id="clip0_6041_13575">
<path d="M0 20C0 8.95431 8.95431 0 20 0C31.0457 0 40 8.95431 40 20C40 31.0457 31.0457 40 20 40C8.95431 40 0 31.0457 0 20Z" fill="white"/>
</clipPath>
</defs>
</svg>
