<svg width="40" height="40" viewBox="0 0 40 40" fill="none" xmlns="http://www.w3.org/2000/svg">
<g clip-path="url(#clip0_6041_13500)">
<path d="M0 20C0 8.95431 8.95431 0 20 0C31.0457 0 40 8.95431 40 20C40 31.0457 31.0457 40 20 40C8.95431 40 0 31.0457 0 20Z" fill="#FFDA2C"/>
<path fill-rule="evenodd" clip-rule="evenodd" d="M-8 29.3333V40H48V29.3333H-8ZM-8 0V10.6667H48V0H-8Z" fill="#00B731"/>
<path fill-rule="evenodd" clip-rule="evenodd" d="M-8 0V40.088L10.6667 20L-8 0Z" fill="#F93939"/>
<path fill-rule="evenodd" clip-rule="evenodd" d="M17.3332 22.4534L14.2799 24.0614L14.8665 20.6614L12.3945 18.2534L15.8079 17.7601L17.3332 14.6667L18.8585 17.7601L22.2719 18.2534L19.8025 20.6614L20.3892 24.0614L17.3332 22.4534ZM33.3332 22.4534L30.2799 24.0614L30.8665 20.6614L28.3945 18.2534L31.8079 17.7601L33.3332 14.6667L34.8585 17.7601L38.2719 18.2534L35.8025 20.6614L36.3892 24.0614" fill="#151515"/>
</g>
<defs>
<clipPath id="clip0_6041_13500">
<path d="M0 20C0 8.95431 8.95431 0 20 0C31.0457 0 40 8.95431 40 20C40 31.0457 31.0457 40 20 40C8.95431 40 0 31.0457 0 20Z" fill="white"/>
</clipPath>
</defs>
</svg>
