<svg width="40" height="40" viewBox="0 0 40 40" fill="none" xmlns="http://www.w3.org/2000/svg">
<g clip-path="url(#clip0_6041_12660)">
<path d="M0 20C0 8.95431 8.95431 0 20 0C31.0457 0 40 8.95431 40 20C40 31.0457 31.0457 40 20 40C8.95431 40 0 31.0457 0 20Z" fill="white"/>
<path fill-rule="evenodd" clip-rule="evenodd" d="M-8 26.6667H48V40H-8V26.6667ZM-8 0H48V13.3333H-8V0Z" fill="#1A47B8"/>
<path d="M20 24C22.2091 24 24 22.2091 24 20C24 17.7909 22.2091 16 20 16C17.7909 16 16 17.7909 16 20C16 22.2091 17.7909 24 20 24Z" fill="#1A47B8"/>
<path d="M19.9993 21.3333C20.7357 21.3333 21.3327 20.7363 21.3327 20C21.3327 19.2636 20.7357 18.6666 19.9993 18.6666C19.263 18.6666 18.666 19.2636 18.666 20C18.666 20.7363 19.263 21.3333 19.9993 21.3333Z" fill="#FFDA2C"/>
<path fill-rule="evenodd" clip-rule="evenodd" d="M13.334 18.6666L16.0007 21.3333L20.0007 24L24.0007 21.3333L26.6673 18.6666L24.0007 24H16.0007L13.334 18.6666Z" fill="#249F58"/>
<circle cx="20" cy="20" r="19.5" stroke="#CCCCCC"/>
</g>
<defs>
<clipPath id="clip0_6041_12660">
<path d="M0 20C0 8.95431 8.95431 0 20 0C31.0457 0 40 8.95431 40 20C40 31.0457 31.0457 40 20 40C8.95431 40 0 31.0457 0 20Z" fill="white"/>
</clipPath>
</defs>
</svg>
