<svg width="40" height="40" viewBox="0 0 40 40" fill="none" xmlns="http://www.w3.org/2000/svg">
<g clip-path="url(#clip0_6041_13547)">
<path d="M0 20C0 8.95431 8.95431 0 20 0C31.0457 0 40 8.95431 40 20C40 31.0457 31.0457 40 20 40C8.95431 40 0 31.0457 0 20Z" fill="#1A47B8"/>
<path d="M56 0H0V18.6667H56V0Z" fill="#F93939"/>
<path fill-rule="evenodd" clip-rule="evenodd" d="M0 0L26.6667 20L0 40V0Z" fill="white"/>
<path fill-rule="evenodd" clip-rule="evenodd" d="M2.66602 13.3333H7.99935L10.666 15.9999L13.3327 13.3333H18.666L13.3327 15.9999H7.99935L2.66602 13.3333Z" fill="#AE6A3E"/>
<path d="M10.6667 26.6667C12.1394 26.6667 13.3333 24.2789 13.3333 21.3333C13.3333 18.3878 12.1394 16 10.6667 16C9.19391 16 8 18.3878 8 21.3333C8 24.2789 9.19391 26.6667 10.6667 26.6667Z" fill="#3ECBF8"/>
<path fill-rule="evenodd" clip-rule="evenodd" d="M8.00065 18.6667V24.0001H10.6673H13.334V18.6667L16.0007 24.0001L13.334 26.6667H8.00065L5.33398 24.0001L8.00065 18.6667Z" fill="#FFDA2C"/>
<circle cx="20" cy="20" r="19.5" stroke="#CCCCCC"/>
</g>
<defs>
<clipPath id="clip0_6041_13547">
<path d="M0 20C0 8.95431 8.95431 0 20 0C31.0457 0 40 8.95431 40 20C40 31.0457 31.0457 40 20 40C8.95431 40 0 31.0457 0 20Z" fill="white"/>
</clipPath>
</defs>
</svg>
