<svg width="40" height="40" viewBox="0 0 40 40" fill="none" xmlns="http://www.w3.org/2000/svg">
<g clip-path="url(#clip0_6041_13655)">
<path d="M0 20C0 8.95431 8.95431 0 20 0C31.0457 0 40 8.95431 40 20C40 31.0457 31.0457 40 20 40C8.95431 40 0 31.0457 0 20Z" fill="white"/>
<path fill-rule="evenodd" clip-rule="evenodd" d="M-8 26.6667H48V40.0001H-8V26.6667Z" fill="#151515"/>
<path fill-rule="evenodd" clip-rule="evenodd" d="M-8 0H48V13.3333H-8V0Z" fill="#AF010D"/>
<path fill-rule="evenodd" clip-rule="evenodd" d="M9.33352 23.3333L5.41352 25.3946L6.16019 21.0293L2.99219 17.9359L7.37352 17.3039L9.33352 13.3333L11.2935 17.3066L15.6749 17.9386L12.5015 21.0319L13.2482 25.3946L9.33352 23.3333ZM30.6669 23.3333L26.7469 25.3946L27.4935 21.0293L24.3255 17.9359L28.7069 17.3039L30.6669 13.3333L32.6269 17.3066L37.0082 17.9386L33.8349 21.0319L34.5815 25.3946" fill="#249F58"/>
<circle cx="20" cy="20" r="19.5" stroke="#CCCCCC"/>
</g>
<defs>
<clipPath id="clip0_6041_13655">
<path d="M0 20C0 8.95431 8.95431 0 20 0C31.0457 0 40 8.95431 40 20C40 31.0457 31.0457 40 20 40C8.95431 40 0 31.0457 0 20Z" fill="white"/>
</clipPath>
</defs>
</svg>
