<svg width="40" height="40" viewBox="0 0 40 40" fill="none" xmlns="http://www.w3.org/2000/svg">
<path d="M40 20C40 31.0456 31.0456 40 20 40C8.95437 40 0 31.0456 0 20C0 20.0048 20 0.0021875 20 0C31.0456 0 40 8.95437 40 20Z" fill="#0052B4"/>
<path d="M22.6094 10.4348V20V20C22.6095 24.6593 28.6963 26.087 28.6963 26.087C28.6963 26.087 34.7832 24.6593 34.7833 20V20V10.4348H22.6094Z" fill="#FFDA2C"/>
<path d="M19.9473 20H20.0008C20.0008 19.9821 20.0008 19.9646 20.0008 19.9465C19.983 19.9644 19.9652 19.9822 19.9473 20Z" fill="white"/>
<path d="M20 10.4348C20 6.91563 20 4.60977 20 0H19.9966C8.95242 0.001875 0 8.95539 0 20H10.4348V14.1241L16.3106 20H19.9466C19.9644 19.9822 19.9822 19.9644 20.0001 19.9465C20.0001 18.5991 20.0001 17.3968 20.0001 16.3108L14.1241 10.4348H20Z" fill="white"/>
<path d="M10.1191 2.60864C6.99102 4.38981 4.39047 6.99028 2.60938 10.1183V20H7.8268V7.82622V7.82607H20.0007C20.0007 6.18052 20.0007 4.61286 20.0007 2.60864H10.1191Z" fill="#D80027"/>
<path d="M20.0008 17.5405L12.8949 10.4348H10.4355V10.435L20.0006 20H20.0008C20.0008 20 20.0008 18.3041 20.0008 17.5405Z" fill="#D80027"/>
<path d="M31.6683 16.5834C31.9452 15.908 32.1605 14.9207 32.1605 14.4294C32.1605 13.6399 31.1313 13 31.1313 13C31.1313 13 30.102 13.6399 30.102 14.4294C30.102 14.9208 30.3174 15.908 30.5941 16.5834L30 17.9249C30.3492 18.067 30.7309 18.1459 31.1313 18.1459C31.5317 18.1459 31.9134 18.0669 32.2627 17.9249L31.6683 16.5834Z" fill="#AE6A3E"/>
<path d="M25.1575 14.0432C25.5829 13.7976 27.2689 14.1412 27.992 14.0432L28.529 14.9736C28.0827 15.5511 27.3355 16.2311 26.9099 16.4768C26.2263 16.8715 25.1574 16.3002 25.1574 16.3002C25.1574 16.3002 24.4738 14.438 25.1575 14.0432Z" fill="#955DCC"/>
<path d="M29.5191 20.7412C29.7958 20.0661 30.0109 19.0789 30.0109 18.5874C30.0109 17.7979 28.9818 17.1579 28.9818 17.1579C28.9818 17.1579 27.9527 17.7981 27.9526 18.5874C27.9527 19.0789 28.168 20.0661 28.4449 20.7414L28.1088 21.5001L27.8506 22.0828C28.1998 22.2248 28.5817 22.3035 28.9818 22.3037C29.3822 22.3036 29.7638 22.2247 30.1132 22.0829L29.8551 21.5L29.5191 20.7412Z" fill="#249F58"/>
<path d="M28.4449 20.7414C28.168 20.0661 27.9527 19.0789 27.9526 18.5874L27.0008 21.5001L28.1088 21.5001L28.4449 20.7414Z" fill="#249F58"/>
<path d="M27.0008 21.5001L27.8506 22.0828L28.1088 21.5001L27.0008 21.5001Z" fill="#249F58"/>
<path d="M30.0109 18.5874C30.0109 19.0789 29.7958 20.0661 29.5191 20.7412L29.8551 21.5L31.0007 21.5L30.0109 18.5874Z" fill="#249F58"/>
<path d="M30.1132 22.0829L31.0007 21.5L29.8551 21.5L30.1132 22.0829Z" fill="#249F58"/>
<circle cx="20" cy="20" r="19.5" stroke="#CCCCCC"/>
</svg>
