<svg width="40" height="40" viewBox="0 0 40 40" fill="none" xmlns="http://www.w3.org/2000/svg">
<path d="M20 40C31.0457 40 40 31.0457 40 20C40 8.9543 31.0457 0 20 0C8.9543 0 0 8.9543 0 20C0 31.0457 8.9543 40 20 40Z" fill="#FFDA2C"/>
<path d="M19.9994 0C19.9849 0.00015625 19.1299 8 19.1299 8H36.0004C32.3515 3.14242 26.5425 0 19.9994 0Z" fill="#0A6A30"/>
<path d="M19.9999 40C26.543 40 32.352 36.8576 36.0007 32H3.99902C7.64777 36.8576 13.4568 40 19.9999 40Z" fill="#0A6A30"/>
<path d="M39.5989 16H19.1299L19.9994 24H39.5989C39.8614 22.7076 39.9994 21.3699 39.9994 20C39.9994 18.6301 39.8613 17.2924 39.5989 16Z" fill="#0A6A30"/>
<path d="M20 24C20 19.8261 20 4.69562 20 0C8.95437 0 0 8.95437 0 20C0 21.3699 0.138125 22.7076 0.400469 24H20Z" fill="#F93939"/>
<path d="M11.0356 9.56519L12.3306 13.5507H16.5216L13.1312 16.0142L14.4261 20L11.0356 17.5367L7.64512 20L8.9402 16.0142L5.5498 13.5507H9.74066L11.0356 9.56519Z" fill="white"/>
</svg>
