<svg width="40" height="40" viewBox="0 0 40 40" fill="none" xmlns="http://www.w3.org/2000/svg">
<path d="M20 40C31.0457 40 40 31.0457 40 20C40 8.9543 31.0457 0 20 0C8.9543 0 0 8.9543 0 20C0 31.0457 8.9543 40 20 40Z" fill="#FFDA2C"/>
<path d="M32.1739 9.56523C31.9945 10.4273 31.913 11.3455 31.913 12.2609C31.913 17.537 35.0583 22.1034 39.5657 24.1591C39.8495 22.8173 40 21.4263 40 20C40 8.95437 31.0456 0 20 0C8.95437 0 0 8.95437 0 20C0 31.0456 8.95437 40 20 40C26.8502 40 32.8952 36.5553 36.4997 31.3044H11.3044V28.6957H38.0155C38.2888 28.1304 38.5358 27.55 38.7561 26.9566H11.3044L32.1739 9.56523Z" fill="#232C80"/>
<path d="M14.6929 10.4348L15.1246 11.7634H16.5215L15.3914 12.5846L15.8232 13.9131L14.6929 13.0921L13.5629 13.9131L13.9945 12.5846L12.8643 11.7634H14.2612L14.6929 10.4348Z" fill="white"/>
<path d="M9.01813 20L9.55781 21.6609H11.3039L9.89117 22.687L10.4309 24.3478L9.01813 23.3214L7.60547 24.3478L8.14508 22.687L6.73242 21.6609H8.47852L9.01813 20Z" fill="white"/>
<path d="M9.01813 6.08691L9.55781 7.74777H11.3039L9.89117 8.77395L10.4309 10.4347L9.01813 9.40832L7.60547 10.4347L8.14508 8.77395L6.73242 7.74777H8.47852L9.01813 6.08691Z" fill="white"/>
<path d="M4.67047 13.9131L5.21016 15.5739H6.95617L5.54352 16.6001L6.0832 18.2609L4.67047 17.2345L3.25781 18.2609L3.79742 16.6001L2.38477 15.5739H4.13078L4.67047 13.9131Z" fill="white"/>
</svg>
