<svg width="40" height="40" viewBox="0 0 40 40" fill="none" xmlns="http://www.w3.org/2000/svg">
<path d="M20 40C31.0457 40 40 31.0457 40 20C40 8.9543 31.0457 0 20 0C8.9543 0 0 8.9543 0 20C0 31.0457 8.9543 40 20 40Z" fill="#FFDA2C"/>
<path d="M19.9988 0C15.1022 0 10.6173 1.7607 7.14062 4.68234L28.6945 20L7.14062 35.3177C10.6173 38.2393 15.1022 40 19.9988 40C31.0445 40 39.9988 31.0456 39.9988 20C39.9988 8.95437 31.0445 0 19.9988 0Z" fill="#F93939"/>
<path d="M5.85785 5.85779C-1.95262 13.6683 -1.95262 26.3316 5.85785 34.1422C9.08543 30.9146 12.1896 27.8104 20 20L5.85785 5.85779Z" fill="black"/>
<path d="M5.54562 15.4183L8.58938 18.299L12.2697 16.294L10.4709 20.0791L13.5147 22.9598L9.35891 22.4186L7.55984 26.2036L6.79055 22.084L2.63477 21.5426L6.31492 19.5378L5.54562 15.4183Z" fill="white"/>
</svg>
