<svg width="40" height="40" viewBox="0 0 40 40" fill="none" xmlns="http://www.w3.org/2000/svg">
<path d="M0 20C0 8.95431 8.95431 0 20 0C31.0457 0 40 8.95431 40 20C40 31.0457 31.0457 40 20 40C8.95431 40 0 31.0457 0 20Z" fill="#249F58"/>
<path fill-rule="evenodd" clip-rule="evenodd" d="M0 0H2.66667V40H0V0ZM5.33333 0H8V40H5.33333V0ZM10.6667 0H13.3333V40H10.6667V0Z" fill="#D4AF2C"/>
<path fill-rule="evenodd" clip-rule="evenodd" d="M8 0L13.3333 4L8 8V0ZM8 8L13.3333 12L8 16V8ZM8 16L13.3333 20L8 24V16ZM8 24L13.3333 28L8 32V24ZM8 32L13.3333 36L8 40V32ZM5.33333 0L0 4L5.33333 8V0ZM5.33333 8L0 12L5.33333 16V8ZM5.33333 16L0 20L5.33333 24V16ZM5.33333 24L0 28L5.33333 32V24ZM5.33333 32L0 36L5.33333 40V32ZM5.33333 0H8V5.33333H5.33333V0ZM5.33333 34.6667H8V40H5.33333V34.6667ZM5.33333 13.3333H8V18.6667H5.33333V13.3333ZM5.33333 8H8V10.6667H5.33333V8ZM5.33333 29.3333H8V32H5.33333V29.3333ZM5.33333 21.3333H8V26.6667H5.33333V21.3333Z" fill="#AE6A3E"/>
<path fill-rule="evenodd" clip-rule="evenodd" d="M24.6297 8.03733C24.8617 8.01067 25.0963 8 25.3337 8C29.0137 8 32.0003 10.9867 32.0003 14.6667C32.0003 18.3467 29.0137 21.3333 25.3337 21.3333C21.6537 21.3333 18.667 18.3467 18.667 14.6667C18.667 14.4267 18.6803 14.1947 18.7043 13.9627C19.0137 16.6133 21.2643 18.6667 24.0003 18.6667C26.947 18.6667 29.3337 16.28 29.3337 13.3333C29.3337 10.6 27.2803 8.34667 24.6297 8.03733ZM21.3337 10.6667H24.0003V13.3333H21.3337V10.6667Z" fill="white"/>
<path opacity="0.5" fill-rule="evenodd" clip-rule="evenodd" d="M16 10.6666H18.6667V13.3333H16V10.6666ZM21.3333 5.33325H24V7.99992H21.3333V5.33325Z" fill="white"/>
</svg>
