<svg width="40" height="40" viewBox="0 0 40 40" fill="none" xmlns="http://www.w3.org/2000/svg">
<path d="M0 20C0 8.95431 8.95431 0 20 0C31.0457 0 40 8.95431 40 20C40 31.0457 31.0457 40 20 40C8.95431 40 0 31.0457 0 20Z" fill="#F93939"/>
<path d="M19.9993 29.3334C25.154 29.3334 29.3327 25.1547 29.3327 20.0001C29.3327 14.8454 25.154 10.6667 19.9993 10.6667C14.8447 10.6667 10.666 14.8454 10.666 20.0001C10.666 25.1547 14.8447 29.3334 19.9993 29.3334Z" fill="white"/>
<path fill-rule="evenodd" clip-rule="evenodd" d="M24 18.6667H26.6667V21.3334H24V18.6667Z" fill="#F93939"/>
<path fill-rule="evenodd" clip-rule="evenodd" d="M25.333 23.9999C24.117 25.6186 22.181 26.6666 19.9997 26.6666C16.3197 26.6666 13.333 23.6799 13.333 19.9999C13.333 16.3199 16.3197 13.3333 19.9997 13.3333C22.181 13.3333 24.117 14.3813 25.333 15.9999H21.333C19.125 15.9999 17.333 17.7919 17.333 19.9999C17.333 22.2079 19.125 23.9999 21.333 23.9999H25.333Z" fill="#F93939"/>
</svg>
