<svg width="40" height="40" viewBox="0 0 40 40" fill="none" xmlns="http://www.w3.org/2000/svg">
<g clip-path="url(#clip0_6041_13723)">
<path d="M0 20C0 8.95431 8.95431 0 20 0C31.0457 0 40 8.95431 40 20C40 31.0457 31.0457 40 20 40C8.95431 40 0 31.0457 0 20Z" fill="#AF010D"/>
<path fill-rule="evenodd" clip-rule="evenodd" d="M-2.66602 0H26.6673V24H-2.66602V0Z" fill="white"/>
<path fill-rule="evenodd" clip-rule="evenodd" d="M16.0007 10.6666V5.33325H10.6673V10.6666H5.33398V15.9999H10.6673V21.3333H16.0007V15.9999H21.334V10.6666H16.0007Z" fill="#AF010D"/>
<circle cx="20" cy="20" r="19.5" stroke="#CCCCCC"/>
</g>
<defs>
<clipPath id="clip0_6041_13723">
<path d="M0 20C0 8.95431 8.95431 0 20 0C31.0457 0 40 8.95431 40 20C40 31.0457 31.0457 40 20 40C8.95431 40 0 31.0457 0 20Z" fill="white"/>
</clipPath>
</defs>
</svg>
