<svg width="40" height="40" viewBox="0 0 40 40" fill="none" xmlns="http://www.w3.org/2000/svg">
<path d="M0 20C0 8.95431 8.95431 0 20 0C31.0457 0 40 8.95431 40 20C40 31.0457 31.0457 40 20 40C8.95431 40 0 31.0457 0 20Z" fill="#F93939"/>
<path fill-rule="evenodd" clip-rule="evenodd" d="M29.3395 23.0722L26.2408 24.6988L26.8328 21.2508L24.3262 18.8055L27.7928 18.2988L29.3395 15.1628L30.8862 18.3015L34.3528 18.8082L31.8462 21.2482L32.4382 24.6962" fill="white"/>
<path fill-rule="evenodd" clip-rule="evenodd" d="M17.3333 29.3334C22.488 29.3334 26.6667 25.1547 26.6667 20.0001C26.6667 14.8454 22.488 10.6667 17.3333 10.6667C12.1787 10.6667 8 14.8454 8 20.0001C8 25.1547 12.1787 29.3334 17.3333 29.3334ZM20 26.6667C23.68 26.6667 26.6667 23.6801 26.6667 20.0001C26.6667 16.3201 23.68 13.3334 20 13.3334C16.32 13.3334 13.3333 16.3201 13.3333 20.0001C13.3333 23.6801 16.32 26.6667 20 26.6667Z" fill="white"/>
</svg>
