<svg width="40" height="40" viewBox="0 0 40 40" fill="none" xmlns="http://www.w3.org/2000/svg">
<g clip-path="url(#clip0_6041_13719)">
<path d="M0 20C0 8.95431 8.95431 0 20 0C31.0457 0 40 8.95431 40 20C40 31.0457 31.0457 40 20 40C8.95431 40 0 31.0457 0 20Z" fill="#AF010D"/>
<path fill-rule="evenodd" clip-rule="evenodd" d="M13.3327 0L50.666 40H31.9994L-5.33398 0H13.3327Z" fill="white"/>
<path fill-rule="evenodd" clip-rule="evenodd" d="M10.6663 0L47.9997 40H34.6663L-2.66699 0H13.333H10.6663Z" fill="#151515"/>
</g>
<defs>
<clipPath id="clip0_6041_13719">
<path d="M0 20C0 8.95431 8.95431 0 20 0C31.0457 0 40 8.95431 40 20C40 31.0457 31.0457 40 20 40C8.95431 40 0 31.0457 0 20Z" fill="white"/>
</clipPath>
</defs>
</svg>
