<svg width="40" height="40" viewBox="0 0 40 40" fill="none" xmlns="http://www.w3.org/2000/svg">
<g clip-path="url(#clip0_6041_13675)">
<path d="M0 20C0 8.95431 8.95431 0 20 0C31.0457 0 40 8.95431 40 20C40 31.0457 31.0457 40 20 40C8.95431 40 0 31.0457 0 20Z" fill="#249F58"/>
<path fill-rule="evenodd" clip-rule="evenodd" d="M0 39.9999H40V5.33325L0 34.6666V39.9999Z" fill="#3ECBF8"/>
<path fill-rule="evenodd" clip-rule="evenodd" d="M0 37.3333L40 7.99992V-2.66675L0 26.6666V37.3333Z" fill="#FFDA2C"/>
<path fill-rule="evenodd" clip-rule="evenodd" d="M0 42.6667L40 13.3334V2.66675L0 32.0001V42.6667Z" fill="#FFDA2C"/>
<path fill-rule="evenodd" clip-rule="evenodd" d="M0 40L40 10.6667V0L0 29.3333V40Z" fill="#151515"/>
</g>
<defs>
<clipPath id="clip0_6041_13675">
<path d="M0 20C0 8.95431 8.95431 0 20 0C31.0457 0 40 8.95431 40 20C40 31.0457 31.0457 40 20 40C8.95431 40 0 31.0457 0 20Z" fill="white"/>
</clipPath>
</defs>
</svg>
