<svg width="40" height="40" viewBox="0 0 40 40" fill="none" xmlns="http://www.w3.org/2000/svg">
<g clip-path="url(#clip0_6041_13806)">
<rect y="32.2222" width="60" height="7.77778" fill="#F93939"/>
<rect x="22.2227" y="16.6667" width="34.4444" height="7.77778" fill="#F93939"/>
<rect x="22.2227" width="34.4444" height="8.88889" fill="#F93939"/>
<rect width="22.2222" height="24.4444" fill="#1A47B8"/>
<path fill-rule="evenodd" clip-rule="evenodd" d="M12.7023 19.8926C12.3969 20.1093 12.2183 19.9874 12.3076 19.6208L12.637 18.257C12.7254 17.8904 12.566 17.3894 12.2817 17.1437L11.2839 16.2809C11.0006 16.0352 11.0736 15.8253 11.4481 15.8147L12.8445 15.775C13.218 15.7644 13.6108 15.4607 13.7174 15.0989L14.1544 13.6084C14.261 13.2466 14.4521 13.2408 14.5789 13.5958L15.1051 15.066C15.2319 15.421 15.642 15.7141 16.0155 15.7179L17.4407 15.7325C17.8143 15.7363 17.8892 15.9414 17.6068 16.189L16.5226 17.1388C16.2403 17.3865 16.0952 17.8846 16.199 18.2464L16.5456 19.4467C16.6503 19.8094 16.4746 19.9439 16.1557 19.7475L14.9985 19.0318C14.6797 18.8354 14.1678 18.8519 13.8624 19.0685L12.7023 19.8926Z" fill="white"/>
<path fill-rule="evenodd" clip-rule="evenodd" d="M2.70233 19.8926C2.39693 20.1093 2.21831 19.9874 2.30762 19.6208L2.63702 18.257C2.72537 17.8904 2.56596 17.3894 2.28169 17.1437L1.28389 16.2809C1.00058 16.0352 1.07357 15.8253 1.44811 15.8147L2.84446 15.775C3.21803 15.7644 3.61082 15.4607 3.71742 15.0989L4.15438 13.6084C4.26097 13.2466 4.45208 13.2408 4.57885 13.5958L5.10512 15.066C5.23189 15.421 5.64196 15.7141 6.01554 15.7179L7.4407 15.7325C7.81427 15.7363 7.88918 15.9414 7.60684 16.189L6.5226 17.1388C6.24026 17.3865 6.09524 17.8846 6.19896 18.2464L6.54565 19.4467C6.65033 19.8094 6.47458 19.9439 6.15575 19.7475L4.99852 19.0318C4.67969 18.8354 4.16782 18.8519 3.86243 19.0685L2.70233 19.8926Z" fill="white"/>
<path fill-rule="evenodd" clip-rule="evenodd" d="M12.7023 9.89262C12.3969 10.1093 12.2183 9.98741 12.3076 9.62082L12.637 8.25699C12.7254 7.8904 12.566 7.38936 12.2817 7.14368L11.2839 6.28089C11.0006 6.0352 11.0736 5.82531 11.4481 5.81467L12.8445 5.77501C13.218 5.76437 13.6108 5.46065 13.7174 5.0989L14.1544 3.60836C14.261 3.24661 14.4521 3.2408 14.5789 3.59579L15.1051 5.06601C15.2319 5.421 15.642 5.71408 16.0155 5.71794L17.4407 5.73245C17.8143 5.73632 17.8892 5.94138 17.6068 6.189L16.5226 7.13884C16.2403 7.38646 16.0952 7.8846 16.199 8.24635L16.5456 9.44672C16.6503 9.80944 16.4746 9.94389 16.1557 9.74753L14.9985 9.03176C14.6797 8.83541 14.1678 8.85185 13.8624 9.06852L12.7023 9.89262Z" fill="white"/>
<path fill-rule="evenodd" clip-rule="evenodd" d="M2.70233 9.89262C2.39693 10.1093 2.21831 9.98741 2.30762 9.62082L2.63702 8.25699C2.72537 7.8904 2.56596 7.38936 2.28169 7.14368L1.28389 6.28089C1.00058 6.0352 1.07357 5.82531 1.44811 5.81467L2.84446 5.77501C3.21803 5.76437 3.61082 5.46065 3.71742 5.0989L4.15438 3.60836C4.26097 3.24661 4.45208 3.2408 4.57885 3.59579L5.10512 5.06601C5.23189 5.421 5.64196 5.71408 6.01554 5.71794L7.4407 5.73245C7.81427 5.73632 7.88918 5.94138 7.60684 6.189L6.5226 7.13884C6.24026 7.38646 6.09524 7.8846 6.19896 8.24635L6.54565 9.44672C6.65033 9.80944 6.47458 9.94389 6.15575 9.74753L4.99852 9.03176C4.67969 8.83541 4.16782 8.85185 3.86243 9.06852L2.70233 9.89262Z" fill="white"/>
<circle cx="20" cy="20" r="19.5" stroke="#CCCCCC"/>
</g>
<defs>
<clipPath id="clip0_6041_13806">
<path d="M0 20C0 8.95431 8.95431 0 20 0C31.0457 0 40 8.95431 40 20C40 31.0457 31.0457 40 20 40C8.95431 40 0 31.0457 0 20Z" fill="white"/>
</clipPath>
</defs>
</svg>
