<svg width="40" height="40" viewBox="0 0 40 40" fill="none" xmlns="http://www.w3.org/2000/svg">
<g clip-path="url(#clip0_6041_13775)">
<path d="M0 20C0 8.95431 8.95431 0 20 0C31.0457 0 40 8.95431 40 20C40 31.0457 31.0457 40 20 40C8.95431 40 0 31.0457 0 20Z" fill="#F93939"/>
<path fill-rule="evenodd" clip-rule="evenodd" d="M-5.33301 29.3333H50.667V39.9999H-5.33301V29.3333Z" fill="#00B731"/>
<path fill-rule="evenodd" clip-rule="evenodd" d="M-5.33301 0H50.667V10.6667H-5.33301V0Z" fill="#03BCDB"/>
<path fill-rule="evenodd" clip-rule="evenodd" d="M0 13.3334H56V26.6667H0V13.3334ZM13.3333 10.4401C12.9173 10.5867 12.4667 10.6667 12 10.6667C9.792 10.6667 8 8.87475 8 6.66675C8 4.45875 9.792 2.66675 12 2.66675C12.4667 2.66675 12.9173 2.74675 13.3333 2.89341C11.7787 3.44275 10.6667 4.92541 10.6667 6.66675C10.6667 8.40808 11.7787 9.89341 13.3333 10.4401Z" fill="white"/>
<path opacity="0.5" fill-rule="evenodd" clip-rule="evenodd" d="M16 5.33341H18.6667V8.00008H16V5.33341ZM18.6667 2.66675H21.3333V5.33341H18.6667V2.66675ZM21.3333 5.33341H24V8.00008H21.3333V5.33341ZM24 2.66675H26.6667V5.33341H24V2.66675ZM26.6667 5.33341H29.3333V8.00008H26.6667V5.33341ZM24 8.00008H26.6667V10.6667H24V8.00008ZM18.6667 8.00008H21.3333V10.6667H18.6667V8.00008Z" fill="#1A47B8"/>
<rect y="13.3333" width="13.3333" height="13.3333" fill="white"/>
<circle cx="20" cy="20" r="19.5" stroke="#CCCCCC"/>
</g>
<defs>
<clipPath id="clip0_6041_13775">
<path d="M0 20C0 8.95431 8.95431 0 20 0C31.0457 0 40 8.95431 40 20C40 31.0457 31.0457 40 20 40C8.95431 40 0 31.0457 0 20Z" fill="white"/>
</clipPath>
</defs>
</svg>
