<svg width="40" height="40" viewBox="0 0 40 40" fill="none" xmlns="http://www.w3.org/2000/svg">
<g clip-path="url(#clip0_6041_13829)">
<path d="M20.0003 0C31.0459 0 40.0003 8.95437 40.0003 20C40.0003 31.0456 31.0459 40 20.0003 40C20.0003 39.1305 17.3916 20 17.3916 20L20.0003 0Z" fill="white"/>
<path d="M20 40C8.95437 40 0 31.0456 0 20C0 8.95437 8.95437 0 20 0" fill="#FFDA2C"/>
<path d="M27.659 17.4036L31.4177 22.3759C30.8255 23.2726 30.8286 24.4808 31.5135 25.3868C32.3823 26.5361 34.0183 26.7636 35.1677 25.8948C36.317 25.026 36.5445 23.39 35.6755 22.2407C34.9908 21.3347 33.8292 21.0022 32.805 21.3273L26.9471 13.5779L25.5598 14.6266L23.4785 16.1996L25.576 18.9742L27.659 17.4036ZM33.0702 23.12C33.4533 22.8303 33.9987 22.9062 34.2883 23.2892C34.5778 23.6723 34.5021 24.2177 34.119 24.5074C33.7359 24.7969 33.1905 24.7212 32.901 24.338C32.6112 23.9549 32.6871 23.4095 33.0702 23.12Z" fill="#CBCBCB"/>
<path d="M34.1058 18.9741L36.2033 16.1995L34.1222 14.6264L32.7348 13.5776L26.8769 21.3271C25.8529 21.0019 24.6912 21.3345 24.0064 22.2404C23.1375 23.3898 23.365 25.0258 24.5143 25.8945C25.6637 26.7633 27.2996 26.5358 28.1683 25.3865C28.8532 24.4805 28.8563 23.2724 28.2642 22.3757L32.0229 17.4033L34.1058 18.9741ZM26.781 24.3379C26.4915 24.7212 25.9462 24.7969 25.563 24.5073C25.1799 24.2176 25.1041 23.6722 25.3937 23.2891C25.6833 22.9062 26.2287 22.8302 26.6119 23.1199C26.9949 23.4095 27.0706 23.9549 26.781 24.3379Z" fill="#FFDA2C"/>
<circle cx="20" cy="20" r="19.5" stroke="#CCCCCC"/>
</g>
<defs>
<clipPath id="clip0_6041_13829">
<rect width="40" height="40" fill="white"/>
</clipPath>
</defs>
</svg>
