<svg width="40" height="40" viewBox="0 0 40 40" fill="none" xmlns="http://www.w3.org/2000/svg">
<g clip-path="url(#clip0_6041_13840)">
<path d="M38.0155 28.6956C39.287 26.0662 40 23.1164 40 20C40 16.8835 39.287 13.9337 38.0155 11.3043L20 9.56519L1.98453 11.3043C0.713047 13.9337 0 16.8835 0 20C0 23.1164 0.713047 26.0662 1.98453 28.6956L20 30.4347L38.0155 28.6956Z" fill="#1A47B8"/>
<path d="M19.9998 39.9999C27.929 39.9999 34.7803 35.3855 38.0153 28.6956H1.98438C5.21938 35.3855 12.0706 39.9999 19.9998 39.9999Z" fill="#F93939"/>
<path d="M34.6386 23.9259L33.5823 24.7513L34.0407 26.0108L32.9292 25.2613L31.8728 26.0866L32.2422 24.798L31.1309 24.0483L32.4706 24.0016L32.8403 22.7129L33.2989 23.9726L34.6386 23.9259Z" fill="white"/>
<path d="M31.9329 19.2407L31.2226 20.3777L32.0844 21.4044L30.7836 21.0805L30.0731 22.2171L29.9794 20.8799L28.6787 20.5554L29.9218 20.0532L29.8284 18.7158L30.69 19.7429L31.9329 19.2407Z" fill="white"/>
<path d="M27.7889 15.7632L27.5103 17.0745L28.6713 17.7448L27.3381 17.8854L27.0593 19.1963L26.514 17.9718L25.1807 18.1117L26.1771 17.2147L25.6318 15.9901L26.7928 16.6603L27.7889 15.7632Z" fill="white"/>
<path d="M22.7054 13.9131L22.8922 15.2407L24.2123 15.4733L23.0074 16.0613L23.1941 17.3888L22.2628 16.4244L21.0577 17.0121L21.6872 15.8282L20.7559 14.864L22.0762 15.0968L22.7054 13.9131Z" fill="white"/>
<path d="M17.2949 13.9131L17.9243 15.0968L19.2443 14.8639L18.3133 15.8285L18.9425 17.0122L17.7376 16.4244L16.8062 17.3886L16.993 16.0613L15.7881 15.4736L17.1083 15.2407L17.2949 13.9131Z" fill="white"/>
<path d="M12.2112 15.7632L13.2076 16.6603L14.3683 15.9901L13.8232 17.2151L14.8194 18.112L13.4862 17.9718L12.9407 19.1963L12.6624 17.8851L11.3291 17.7451L12.49 17.0747L12.2112 15.7632Z" fill="white"/>
<path d="M8.06719 19.2408L9.31039 19.7429L10.1718 18.7161L10.0786 20.0536L11.3214 20.5559L10.0207 20.8801L9.92703 22.2172L9.21688 21.0805L7.91602 21.4047L8.77773 20.3777L8.06719 19.2408Z" fill="white"/>
<path d="M5.3623 23.9259L6.7023 23.9727L7.16059 22.7131L7.53051 24.0019L8.87012 24.0487L7.75871 24.7984L8.12809 26.087L7.07184 25.2617L5.96035 26.0111L6.41887 24.7514L5.3623 23.9259Z" fill="white"/>
<path d="M38.0153 11.3044C34.7803 4.61445 27.929 0 19.9998 0C12.0706 0 5.21938 4.61445 1.98438 11.3044H38.0153Z" fill="#FFDA2C"/>
</g>
<defs>
<clipPath id="clip0_6041_13840">
<rect width="40" height="40" fill="white"/>
</clipPath>
</defs>
</svg>
