<svg width="40" height="40" viewBox="0 0 40 40" fill="none" xmlns="http://www.w3.org/2000/svg">
<path d="M40 20C40 31.0456 31.0456 40 20 40C8.95437 40 0 31.0456 0 20C0 20.0048 20 0.0021875 20 0C31.0456 0 40 8.95437 40 20Z" fill="#0052B4"/>
<path d="M19.9463 20H19.9998C19.9998 19.9821 19.9998 19.9646 19.9998 19.9465C19.982 19.9644 19.9642 19.9822 19.9463 20Z" fill="white"/>
<path d="M20 10.4348C20 6.91563 20 4.60977 20 0H19.9966C8.95242 0.001875 0 8.95539 0 20H10.4348V14.1241L16.3106 20H19.9466C19.9644 19.9822 19.9822 19.9644 20.0001 19.9465C20.0001 18.5991 20.0001 17.3968 20.0001 16.3108L14.1241 10.4348H20Z" fill="white"/>
<path d="M10.1191 2.60864C6.99102 4.38981 4.39047 6.99028 2.60938 10.1183V20H7.8268V7.82622V7.82607H20.0007C20.0007 6.18052 20.0007 4.61286 20.0007 2.60864H10.1191Z" fill="#D80027"/>
<path d="M28.6957 20L23.29 25.4057C24.3032 27.3597 26.3429 28.6956 28.6957 28.6956C31.0486 28.6956 33.0883 27.3597 34.1014 25.4057L28.6957 20Z" fill="#FFDA2C"/>
<path d="M19.9998 17.5405L12.8939 10.4348H10.4346V10.435L19.9996 20H19.9998C19.9998 20 19.9998 18.3041 19.9998 17.5405Z" fill="#D80027"/>
<path d="M22.6094 10.4348V20V20C22.6095 24.6593 28.6963 26.087 28.6963 26.087C28.6963 26.087 34.7832 24.6593 34.7833 20V20V10.4348H22.6094Z" fill="#249F58"/>
<path d="M27.3906 14.7826H29.9993V21.7391H27.3906V14.7826Z" fill="white"/>
<path d="M28.695 16.0869C29.4154 16.0869 29.9994 15.5029 29.9994 14.7825C29.9994 14.0621 29.4154 13.4781 28.695 13.4781C27.9746 13.4781 27.3906 14.0621 27.3906 14.7825C27.3906 15.5029 27.9746 16.0869 28.695 16.0869Z" fill="#D80027"/>
<path d="M24.3477 12.174H26.0868V13.9131H24.3477V12.174Z" fill="#FFDA2C"/>
<path d="M24.3477 16.087H26.0868V17.8262H24.3477V16.087Z" fill="#FFDA2C"/>
<path d="M24.3477 20H26.0868V21.7391H24.3477V20Z" fill="#FFDA2C"/>
<path d="M31.3047 12.174H33.0438V13.9131H31.3047V12.174Z" fill="#FFDA2C"/>
<path d="M31.3047 16.087H33.0438V17.8262H31.3047V16.087Z" fill="#FFDA2C"/>
<path d="M31.3047 20H33.0438V21.7391H31.3047V20Z" fill="#FFDA2C"/>
<circle cx="20" cy="20" r="19.5" stroke="#CCCCCC"/>
</svg>
