<svg width="40" height="40" viewBox="0 0 40 40" fill="none" xmlns="http://www.w3.org/2000/svg">
<path d="M20 40C31.0457 40 40 31.0457 40 20C40 8.9543 31.0457 0 20 0C8.9543 0 0 8.9543 0 20C0 31.0457 8.9543 40 20 40Z" fill="white"/>
<path d="M23.3972 13.9724C23.3972 12.0965 21.8764 10.5757 20.0004 10.5757C18.1244 10.5757 16.6036 12.0965 16.6036 13.9724H9.13086C9.13086 15.8194 10.7398 17.3168 12.5867 17.3168H12.4755C12.4755 19.1639 13.9727 20.6614 15.8199 20.6614C15.8199 22.2968 16.9945 23.6557 18.5456 23.9462L18.537 23.9657H21.4639L21.4552 23.9462C23.0065 23.6555 24.1809 22.2967 24.1809 20.6614C26.0281 20.6614 27.5254 19.1639 27.5254 17.3168H27.414C29.2609 17.3168 30.8699 15.8194 30.8699 13.9724H23.3972Z" fill="#FFDA2C"/>
<path d="M18.5065 23.6191L16.4004 28.3741C17.5116 28.8258 18.7263 29.0769 19.9998 29.0769C21.2733 29.0769 22.4879 28.8259 23.5991 28.3741L21.493 23.6191H18.5065Z" fill="#FFDA2C"/>
<path d="M15.6523 15.6428V21.4937C15.6523 24.8217 20.0002 25.8415 20.0002 25.8415C20.0002 25.8415 24.348 24.8217 24.348 21.4937V15.6428H15.6523Z" fill="white"/>
<path d="M4.85008 20.1409L7.20156 26.7177L9.52859 20.1409H11.3045L7.91187 28.8365H6.49117L3.07422 20.1409H4.85008Z" fill="#3A99FF"/>
<path d="M32.1738 28.8365V20.1409H33.8639V28.8365H32.1738Z" fill="#3A99FF"/>
<path d="M17.3906 17.5322V24.6224C17.9884 25.0623 18.6315 25.3649 19.1298 25.5586V17.5322H17.3906Z" fill="#F93939"/>
<path d="M22.6083 17.5322V24.6224C22.0105 25.0623 21.3674 25.3649 20.8691 25.5586V17.5322H22.6083Z" fill="#F93939"/>
<path d="M15.6523 15.6426H24.348V18.4016H15.6523V15.6426Z" fill="#1A47B8"/>
<circle cx="20" cy="20" r="19.5" stroke="#CCCCCC"/>
</svg>
