<svg width="40" height="40" viewBox="0 0 40 40" fill="none" xmlns="http://www.w3.org/2000/svg">
<g clip-path="url(#clip0_6041_13765)">
<path d="M36.1905 0H3.80952C1.70558 0 0 2.38781 0 5.33333V34.6667C0 37.6122 1.70558 40 3.80952 40H36.1905C38.2944 40 40 37.6122 40 34.6667V5.33333C40 2.38781 38.2944 0 36.1905 0Z" fill="white"/>
<path fill-rule="evenodd" clip-rule="evenodd" d="M0 24H40V40H0V24Z" fill="#249F58"/>
<path fill-rule="evenodd" clip-rule="evenodd" d="M0 0H40V16H0V0Z" fill="#AF010D"/>
<path fill-rule="evenodd" clip-rule="evenodd" d="M20.206 24L6.47652 40.088H2.66699V0H6.47652L20.1908 16H42.667V24H20.206Z" fill="#151515"/>
<path fill-rule="evenodd" clip-rule="evenodd" d="M19.6194 21.3333L3.61937 40L2.66699 40.088V0H3.61937L19.6194 18.6667H42.667V21.3333H19.6194Z" fill="#FFDA2C"/>
<path fill-rule="evenodd" clip-rule="evenodd" d="M2.66699 2.66675L17.9051 20.0001L2.66699 37.3334V2.66675Z" fill="#151515"/>
<path fill-rule="evenodd" clip-rule="evenodd" d="M-2.66699 2.66675L12.5711 20.0001L-2.66699 37.3334V2.66675Z" fill="#151515"/>
<path fill-rule="evenodd" clip-rule="evenodd" d="M4.19066 24.1144C3.25733 23.2613 2.66699 22.0331 2.66699 20.6667C2.66699 18.0907 4.75533 16 7.33366 16C9.91199 16 12.0003 18.0907 12.0003 20.6667C12.0003 23.2427 9.91199 25.3333 7.33366 25.3333V23.4667C8.62166 23.4667 9.66699 22.2123 9.66699 20.6667C9.66699 19.1211 8.62166 17.8667 7.33366 17.8667C6.04566 17.8667 5.00033 19.1211 5.00033 20.6667C5.00033 21.5253 5.32233 22.2907 5.82633 22.8059L4.19299 24.1125L4.19066 24.1144Z" fill="#FFDA2C"/>
</g>
<defs>
<clipPath id="clip0_6041_13765">
<path d="M0 20C0 8.95431 8.95431 0 20 0C31.0457 0 40 8.95431 40 20C40 31.0457 31.0457 40 20 40C8.95431 40 0 31.0457 0 20Z" fill="white"/>
</clipPath>
</defs>
</svg>
