<svg width="40" height="40" viewBox="0 0 40 40" fill="none" xmlns="http://www.w3.org/2000/svg">
<g clip-path="url(#clip0_6041_13853)">
<path d="M0 20C0 8.95431 8.95431 0 20 0C31.0457 0 40 8.95431 40 20C40 31.0457 31.0457 40 20 40C8.95431 40 0 31.0457 0 20Z" fill="white"/>
<circle cx="20" cy="20" r="20" fill="#F93939"/>
<path fill-rule="evenodd" clip-rule="evenodd" d="M-1.2334 0H6.69993V17H-1.2334V0Z" fill="#1A47B8"/>
<path fill-rule="evenodd" clip-rule="evenodd" d="M6.7002 0H14.6335V17H6.7002V0Z" fill="white"/>
<path fill-rule="evenodd" clip-rule="evenodd" d="M14.6328 0H22.5661V17H14.6328V0Z" fill="#F93939"/>
<path fill-rule="evenodd" clip-rule="evenodd" d="M22 0H23V17H22V0Z" fill="white"/>
<path fill-rule="evenodd" clip-rule="evenodd" d="M-1 18L-1 17H23V18H-1Z" fill="white"/>
<path d="M32.0001 21.7693L33.9986 28.6924H30.0016L32.0001 21.7693Z" fill="white"/>
<path d="M31.9999 20.2307L30.0014 13.3076H33.9984L31.9999 20.2307Z" fill="white"/>
<path d="M32.7695 20.9999L39.6926 19.0014V22.9984L32.7695 20.9999Z" fill="white"/>
<path d="M31.2305 20.9999L24.3074 19.0014V22.9984L31.2305 20.9999Z" fill="white"/>
</g>
<defs>
<clipPath id="clip0_6041_13853">
<path d="M0 20C0 8.95431 8.95431 0 20 0C31.0457 0 40 8.95431 40 20C40 31.0457 31.0457 40 20 40C8.95431 40 0 31.0457 0 20Z" fill="white"/>
</clipPath>
</defs>
</svg>
