<svg width="40" height="40" viewBox="0 0 40 40" fill="none" xmlns="http://www.w3.org/2000/svg">
<path d="M40 20C40 31.0456 31.0456 40 20 40C8.95437 40 0 31.0456 0 20C6.86953 13.1305 12.6956 7.30438 20 0C31.0456 0 40 8.95437 40 20Z" fill="#F93939"/>
<path d="M20 20C20 8.95437 20 7.65219 20 0C8.95437 0 0 8.95437 0 20H20Z" fill="#232C80"/>
<path d="M16.0199 13.0437L16.3438 14.0402H17.3914L16.5438 14.6559L16.8676 15.6524L16.0199 15.0365L15.1723 15.6524L15.4961 14.6559L14.6484 14.0402H15.6961L16.0199 13.0437Z" fill="white"/>
<path d="M10.7584 5.21753L11.298 6.87839H13.0443L11.6315 7.90456L12.1712 9.56534L10.7584 8.53886L9.3457 9.56534L9.88539 7.90456L8.47266 6.87839H10.2187L10.7584 5.21753Z" fill="white"/>
<path d="M15.9752 6.95654L16.5148 8.61748H18.261L16.8483 9.64365L17.3879 11.3044L15.9752 10.278L14.5625 11.3044L15.1022 9.64365L13.6895 8.61748H15.4355L15.9752 6.95654Z" fill="white"/>
<path d="M11.8512 13.9131L12.3909 15.5739H14.137L12.7243 16.6001L13.2639 18.2609L11.8512 17.2345L10.4385 18.2609L10.9782 16.6001L9.56543 15.5739H11.3116L11.8512 13.9131Z" fill="white"/>
<path d="M7.27984 9.56543L7.81953 11.2263H9.5657L8.15289 12.2525L8.69258 13.9132L7.27984 12.8868L5.86719 13.9132L6.4068 12.2525L4.99414 11.2263H6.74023L7.27984 9.56543Z" fill="white"/>
</svg>
