<svg width="40" height="40" viewBox="0 0 40 40" fill="none" xmlns="http://www.w3.org/2000/svg">
<path d="M20 40C31.0457 40 40 31.0457 40 20C40 8.9543 31.0457 0 20 0C8.9543 0 0 8.9543 0 20C0 31.0457 8.9543 40 20 40Z" fill="#1A47B8"/>
<path d="M8.78562 12.174L9.21734 13.5027H10.6142L9.48414 14.3237L9.91578 15.6522L8.78562 14.8312L7.65539 15.6522L8.08719 14.3237L6.95703 13.5027H8.35383L8.78562 12.174Z" fill="white"/>
<path d="M13.1332 10.8696L13.5649 12.1983H14.9618L13.8317 13.0193L14.2634 14.3478L13.1332 13.5268L12.003 14.3478L12.4348 13.0193L11.3047 12.1983H12.7016L13.1332 10.8696Z" fill="white"/>
<path d="M17.4809 9.56531L17.9126 10.894H19.3095L18.1794 11.7151L18.611 13.0436L17.4809 12.2225L16.3507 13.0436L16.7824 11.7151L15.6523 10.894H17.0492L17.4809 9.56531Z" fill="white"/>
<path d="M31.2153 12.174L30.7836 13.5027H29.3867L30.5169 14.3237L30.0852 15.6522L31.2153 14.8312L32.3455 15.6522L31.9138 14.3237L33.0439 13.5027H31.647L31.2153 12.174Z" fill="white"/>
<path d="M26.8677 10.8696L26.4359 12.1983H25.0391L26.1692 13.0193L25.7375 14.3478L26.8677 13.5268L27.9978 14.3478L27.5661 13.0193L28.6962 12.1983H27.2993L26.8677 10.8696Z" fill="white"/>
<path d="M22.52 9.56531L22.0883 10.894H20.6914L21.8215 11.7151L21.3898 13.0436L22.52 12.2225L23.6502 13.0436L23.2184 11.7151L24.3485 10.894H22.9516L22.52 9.56531Z" fill="white"/>
<path d="M23.4793 20.8695L20.001 16.5217L18.2619 17.3913V19.1304L15.6532 20.8695H13.9141V23.1163C16.4631 24.1485 18.2619 26.6461 18.2619 29.5652H20.001V27.8261L21.7402 26.087L23.4793 27.8261L25.2184 26.087V24.3478L26.9576 21.7391L23.4793 20.8695Z" fill="#FFDA2C"/>
</svg>
