<svg width="40" height="40" viewBox="0 0 40 40" fill="none" xmlns="http://www.w3.org/2000/svg">
<circle cx="20" cy="20" r="19.5" fill="white" stroke="#CCCCCC"/>
<path d="M4.61949 18.5617C4.57443 18.717 3.80832 18.6644 3.20494 18.4641C2.9646 18.384 2.60908 18.2087 2.44885 18.0911L2.32617 18.0009L2.44885 21.4459L5.88382 23.599L7.55874 24.0397L8.30482 21.9066C8.32235 21.8891 8.82558 22.2346 9.31128 22.5951C9.6042 22.8129 10.2777 23.4814 10.4755 23.7518C11.0188 24.4928 11.1965 25.0036 11.199 25.8298C11.199 26.2854 11.169 26.5283 11.0638 26.9664C10.8335 27.9028 10.2977 28.7941 9.68933 29.2447C9.28875 29.5426 8.81556 29.6428 7.93429 29.6152C6.86774 29.5827 6.20178 29.3599 5.70857 28.8767C5.34304 28.5162 5.10269 28.0455 5.00254 27.4947L4.29152 27.7075C4.40418 28.2458 4.70461 28.8291 5.12272 29.3098C5.82874 30.126 6.7651 30.499 8.10954 30.499C9.10598 30.499 9.81201 30.3087 10.513 29.8531C11.2941 29.3474 11.7999 28.6914 12.228 27.6324C12.3432 27.342 12.3882 27.1617 12.4083 26.9113C12.4158 26.7887 12.4358 26.6885 12.4583 26.6635C12.5585 26.5483 12.5935 26.2203 12.5309 26.0075L12.4934 25.8874L12.571 25.8198C12.7087 25.6971 12.6937 25.4317 12.5385 25.2539L12.4658 25.1713L12.5485 25.0887C12.6561 24.9785 12.7037 24.7707 12.6837 24.4953C12.6711 24.3051 12.586 24.0397 12.5385 24.0397C12.4884 24.0397 12.5209 23.9721 12.5935 23.9295C12.7062 23.8619 12.7663 23.7493 12.7663 23.599C12.7663 23.2961 12.6411 22.8304 12.5485 22.7954C12.5109 22.7804 12.5034 22.7128 12.5385 22.7128C12.596 22.7128 12.6736 22.4774 12.6862 22.2646C12.7012 21.9967 12.6486 21.7914 12.5385 21.6813L12.4658 21.6062L12.5435 21.4459C12.6111 21.3082 12.6211 21.2682 12.6086 21.153C12.581 20.8876 12.2881 20.3969 12.0678 20.2517C11.9877 20.1991 11.9651 20.1691 11.9651 20.1115C11.9651 19.9437 11.8274 19.6959 11.5971 19.448C11.3567 19.1927 11.2791 19.0775 11.2291 18.8972C11.194 18.7821 11.1565 18.722 11.0513 18.6168C10.9286 18.4942 10.6682 18.3389 10.513 18.2989C10.4805 18.2914 10.4629 18.2663 10.4629 18.2263C10.4604 18.066 10.2627 17.7981 10.0874 17.718C9.99978 17.678 9.98726 17.6629 9.98726 17.5903C9.98726 17.4877 9.90214 17.385 9.70185 17.2473C9.51157 17.1197 9.21114 17.042 8.74796 17.002C8.2247 16.9589 7.85755 16.8921 7.55874 16.7687V15.9029C7.83414 15.9279 8.01941 15.983 8.10954 16.0656C8.24474 16.1908 8.54768 16.2058 8.8381 16.1057C8.9132 16.0782 9.05341 16.0481 9.15105 16.0406L9.33131 16.0231L9.56415 16.1858C9.80449 16.351 10.8435 16.9369 11.0263 17.0095C11.3592 17.1422 11.7348 17.0496 11.8925 16.7967L11.9961 16.5808L10.3148 14.269L10.8402 13.537L9.58668 12.2726C9.57416 12.2927 9.56164 12.3377 9.56164 12.3728C9.56164 12.483 9.49154 12.7058 9.39891 12.8935C9.21865 13.2541 9.0484 13.219 8.69789 12.7558C8.4976 12.4905 8.46756 12.4078 8.52264 12.2877C8.65533 12.0073 9.21114 11.6292 9.73439 11.4665C9.83203 11.4364 9.91215 11.4039 9.91215 11.3939C9.91215 11.3819 9.90426 11.3659 9.8907 11.3477L9.70185 10.9414L8.52264 10.6612L6.88277 10.7663L5.28295 11.6568L5.14578 11.8038L3.82835 13.2165L3.19994 14.8364L4.61949 18.5617Z" fill="#CBCBCB"/>
<path d="M35.3795 18.5617C35.4246 18.717 36.1907 18.6644 36.7941 18.4641C37.0344 18.384 37.3899 18.2087 37.5502 18.0911L37.6729 18.0009L37.5502 21.4459L34.1152 23.599L32.4403 24.0397L31.6942 21.9066C31.6767 21.8891 31.1734 22.2346 30.6877 22.5951C30.3948 22.8129 29.7213 23.4814 29.5236 23.7518C28.9803 24.4928 28.8025 25.0036 28.8 25.8298C28.8 26.2854 28.8301 26.5283 28.9352 26.9664C29.1655 27.9028 29.7013 28.7941 30.3097 29.2447C30.7103 29.5426 31.1835 29.6428 32.0647 29.6152C33.1313 29.5827 33.7972 29.3599 34.2905 28.8767C34.656 28.5162 34.8963 28.0455 34.9965 27.4947L35.7075 27.7075C35.5948 28.2458 35.2944 28.8291 34.8763 29.3098C34.1703 30.126 33.2339 30.499 31.8895 30.499C30.893 30.499 30.187 30.3087 29.486 29.8531C28.7049 29.3474 28.1991 28.6914 27.771 27.6324C27.6559 27.342 27.6108 27.1617 27.5908 26.9113C27.5833 26.7887 27.5632 26.6885 27.5407 26.6635C27.4405 26.5483 27.4055 26.2203 27.4681 26.0075L27.5056 25.8874L27.428 25.8198C27.2903 25.6971 27.3053 25.4317 27.4606 25.2539L27.5332 25.1713L27.4506 25.0887C27.3429 24.9785 27.2953 24.7707 27.3154 24.4953C27.3279 24.3051 27.413 24.0397 27.4606 24.0397C27.5106 24.0397 27.4781 23.9721 27.4055 23.9295C27.2928 23.8619 27.2327 23.7493 27.2327 23.599C27.2327 23.2961 27.3579 22.8304 27.4506 22.7954C27.4881 22.7804 27.4956 22.7128 27.4606 22.7128C27.403 22.7128 27.3254 22.4774 27.3129 22.2646C27.2978 21.9967 27.3504 21.7914 27.4606 21.6813L27.5332 21.6062L27.4556 21.4459C27.388 21.3082 27.378 21.2682 27.3905 21.153C27.418 20.8876 27.7109 20.3969 27.9313 20.2517C28.0114 20.1991 28.0339 20.1691 28.0339 20.1115C28.0339 19.9437 28.1716 19.6959 28.4019 19.448C28.6423 19.1927 28.7199 19.0775 28.77 18.8972C28.805 18.7821 28.8426 18.722 28.9477 18.6168C29.0704 18.4942 29.3308 18.3389 29.486 18.2989C29.5186 18.2914 29.5361 18.2663 29.5361 18.2263C29.5386 18.066 29.7364 17.7981 29.9116 17.718C29.9992 17.678 30.0118 17.6629 30.0118 17.5903C30.0118 17.4877 30.0969 17.385 30.2972 17.2473C30.4875 17.1197 30.7879 17.042 31.2511 17.002C31.7743 16.9589 32.1415 16.8921 32.4403 16.7687V15.9029C32.1649 15.9279 31.9796 15.983 31.8895 16.0656C31.7543 16.1908 31.4513 16.2058 31.1609 16.1057C31.0858 16.0782 30.9456 16.0481 30.848 16.0406L30.6677 16.0231L30.4349 16.1858C30.1945 16.351 29.1555 16.9369 28.9728 17.0095C28.6398 17.1422 28.2642 17.0496 28.1065 16.7967L28.003 16.5808L29.6843 14.269L29.1589 13.537L30.4123 12.2726C30.4249 12.2927 30.4374 12.3377 30.4374 12.3728C30.4374 12.483 30.5075 12.7058 30.6001 12.8935C30.7804 13.2541 30.9506 13.219 31.3011 12.7558C31.5014 12.4905 31.5315 12.4078 31.4764 12.2877C31.3437 12.0073 30.7879 11.6292 30.2646 11.4665C30.167 11.4364 30.0869 11.4039 30.0869 11.3939C30.0869 11.3819 30.0948 11.3659 30.1083 11.3477L30.2972 10.9414L31.4764 10.6612L33.1163 10.7663L34.7161 11.6568L34.8532 11.8038L36.1707 13.2165L36.7991 14.8364L35.3795 18.5617Z" fill="#CBCBCB"/>
<path d="M14.6729 11.1599V19.0948C14.6729 23.9539 20.2403 25.4429 20.2403 25.4429C20.2403 25.4429 25.8077 23.9539 25.8077 19.0948V11.1599H14.6729Z" fill="#D42E12"/>
<rect x="14.6729" y="11.1599" width="11.1349" height="6.58766" fill="#171796"/>
<path fill-rule="evenodd" clip-rule="evenodd" d="M19.2686 13.2296H21.2118V15.1729H19.2686V13.2296Z" fill="white"/>
<path fill-rule="evenodd" clip-rule="evenodd" d="M17.082 19.7881H19.0253V21.7313H17.082V19.7881Z" fill="#FFDA2C"/>
<path fill-rule="evenodd" clip-rule="evenodd" d="M21.4541 19.7881H23.3974V21.7313H21.4541V19.7881Z" fill="#FFDA2C"/>
<path d="M20 31C16.134 31 13 32.3431 13 34H14.2174C14.2174 33.1716 16.8064 32.5 20 32.5C23.1936 32.5 25.7826 33.1716 25.7826 34H27C27 32.3431 23.866 31 20 31Z" fill="#CBCBCB"/>
</svg>
