<svg width="40" height="40" viewBox="0 0 40 40" fill="none" xmlns="http://www.w3.org/2000/svg">
<g clip-path="url(#clip0_6041_13588)">
<path d="M0 20C0 8.95431 8.95431 0 20 0C31.0457 0 40 8.95431 40 20C40 31.0457 31.0457 40 20 40C8.95431 40 0 31.0457 0 20Z" fill="white"/>
<path d="M36.1905 0H3.80952C1.70558 0 0 2.38781 0 5.33333V34.6667C0 37.6122 1.70558 40 3.80952 40H36.1905C38.2944 40 40 37.6122 40 34.6667V5.33333C40 2.38781 38.2944 0 36.1905 0Z" fill="white"/>
<path fill-rule="evenodd" clip-rule="evenodd" d="M0 26.6667H40V40.0001H0V26.6667Z" fill="#1A47B8"/>
<path fill-rule="evenodd" clip-rule="evenodd" d="M0 0H40V13.3333H0V0Z" fill="#F93939"/>
<path fill-rule="evenodd" clip-rule="evenodd" d="M15.2629 26.6667L3.80952 40.088H0V0H3.80952L15.2381 13.3333H40V26.6667H15.2629Z" fill="white"/>
<path fill-rule="evenodd" clip-rule="evenodd" d="M14.6667 24L0.952381 40L0 40.088V0H0.952381L14.6667 16H40V24H14.6667Z" fill="#249F58"/>
<path fill-rule="evenodd" clip-rule="evenodd" d="M0 8L11.4286 20L0 32V8Z" fill="#FFDA2C"/>
<path fill-rule="evenodd" clip-rule="evenodd" d="M0 10.6667L9.04762 20.0001L0 29.3334V10.6667Z" fill="#151515"/>
<circle cx="20" cy="20" r="19.5" stroke="#CCCCCC"/>
</g>
<defs>
<clipPath id="clip0_6041_13588">
<path d="M0 20C0 8.95431 8.95431 0 20 0C31.0457 0 40 8.95431 40 20C40 31.0457 31.0457 40 20 40C8.95431 40 0 31.0457 0 20Z" fill="white"/>
</clipPath>
</defs>
</svg>
