<svg width="40" height="40" viewBox="0 0 40 40" fill="none" xmlns="http://www.w3.org/2000/svg">
<path d="M0 20C0 8.95431 8.95431 0 20 0C31.0457 0 40 8.95431 40 20C40 31.0457 31.0457 40 20 40C8.95431 40 0 31.0457 0 20Z" fill="#249F58"/>
<path fill-rule="evenodd" clip-rule="evenodd" d="M0 5.33325H40V34.6666H0V5.33325Z" fill="#FFDA2C"/>
<path fill-rule="evenodd" clip-rule="evenodd" d="M0 10.6667H40V29.3334H0V10.6667Z" fill="#F93939"/>
<path fill-rule="evenodd" clip-rule="evenodd" d="M0 16H40V24H0V16Z" fill="#151515"/>
<path fill-rule="evenodd" clip-rule="evenodd" d="M1.90476 0L22.8571 20L1.90476 40H0V0" fill="#151515"/>
<path fill-rule="evenodd" clip-rule="evenodd" d="M0 0L20.9524 20L0 40V0Z" fill="white"/>
<path fill-rule="evenodd" clip-rule="evenodd" d="M7.99935 22.1769L4.70246 23.9999L5.33044 20.1394L2.66602 17.4037L6.35091 16.8448L7.99935 13.3333L9.64779 16.8471L13.3327 17.4061L10.6638 20.1417L11.2918 23.9999" fill="#F93939"/>
<path fill-rule="evenodd" clip-rule="evenodd" d="M5.33398 21.3333H10.6673V19.5556L8.88954 17.7778C8.88954 17.7778 8.88954 16 7.11176 16H5.33398L7.11176 17.7778L5.33398 21.3333Z" fill="#FFDA2C"/>
<circle cx="20" cy="20" r="19.5" stroke="#CCCCCC"/>
</svg>
